<svg width="30" height="26" viewBox="0 0 30 26" fill="none" xmlns="http://www.w3.org/2000/svg">
<path d="M2.78687 16.9637C2.26291 17.5246 1.37384 17.5253 0.848989 16.9653C0.371246 16.4555 0.370577 15.6626 0.847459 15.1521L13.5384 1.56483C14.329 0.718406 15.671 0.718404 16.4616 1.56483L29.1567 15.1566C29.6316 15.665 29.6319 16.4541 29.1576 16.9629C28.6346 17.5238 27.746 17.5244 27.2223 16.9642L16.4615 5.45392C15.6708 4.60818 14.3294 4.60842 13.5391 5.45444L2.78687 16.9637Z" fill="#CDCDCD"/>
<path d="M2.78687 24.9637C2.26291 25.5246 1.37384 25.5253 0.848989 24.9653C0.371246 24.4555 0.370577 23.6626 0.847459 23.1521L13.5384 9.56483C14.329 8.71841 15.671 8.7184 16.4616 9.56483L29.1567 23.1566C29.6316 23.665 29.6319 24.4541 29.1576 24.9629C28.6346 25.5238 27.746 25.5244 27.2223 24.9642L16.4615 13.4539C15.6708 12.6082 14.3294 12.6084 13.5391 13.4544L2.78687 24.9637Z" fill="#F5F5F5"/>
</svg>
