<svg width="30" height="26" viewBox="0 0 30 26" fill="none" xmlns="http://www.w3.org/2000/svg">
<path d="M27.2131 9.03628C27.7371 8.47543 28.6262 8.47473 29.151 9.03474C29.6288 9.5445 29.6294 10.3374 29.1525 10.8479L16.4616 24.4352C15.671 25.2816 14.329 25.2816 13.5384 24.4352L0.84325 10.8434C0.368406 10.3351 0.368053 9.54587 0.842445 9.03707C1.36539 8.47619 2.254 8.47559 2.7777 9.03577L13.5385 20.5461C14.3292 21.3918 15.6706 21.3916 16.4609 20.5456L27.2131 9.03628Z" fill="#CDCDCD"/>
<path d="M27.2131 1.03628C27.7371 0.475435 28.6262 0.474728 29.151 1.03474C29.6288 1.5445 29.6294 2.33737 29.1525 2.84794L16.4616 16.4352C15.671 17.2816 14.329 17.2816 13.5384 16.4352L0.84325 2.84343C0.368406 2.33505 0.368053 1.54587 0.842445 1.03707C1.36539 0.476191 2.254 0.475594 2.7777 1.03577L13.5385 12.5461C14.3292 13.3918 15.6706 13.3916 16.4609 12.5456L27.2131 1.03628Z" fill="#F5F5F5"/>
</svg>
