<svg width="20" height="24" viewBox="0 0 20 24" fill="none" xmlns="http://www.w3.org/2000/svg">
<path d="M6.92028 2.20112C6.49959 1.79238 6.49905 1.11707 6.9191 0.707658V0.707658C7.32324 0.31374 7.96755 0.313195 8.37236 0.706429L18.5217 10.5654C19.3303 11.3509 19.3303 12.6491 18.5217 13.4346L8.36875 23.2971C7.96565 23.6886 7.32434 23.6889 6.92089 23.2977V23.2977C6.50015 22.8898 6.49969 22.2148 6.91989 21.8062L15.5304 13.4345C16.3383 12.6489 16.3381 11.3513 15.5298 10.5661L6.92028 2.20112Z" fill="#CDCDCD"/>
<path d="M0.76794 2.20112C0.347243 1.79238 0.346706 1.11707 0.766752 0.707658V0.707658C1.1709 0.31374 1.81521 0.313195 2.22002 0.706429L12.3693 10.5654C13.1779 11.3509 13.1779 12.6491 12.3693 13.4346L2.21641 23.2971C1.81331 23.6886 1.17199 23.6889 0.768548 23.2977V23.2977C0.347803 22.8898 0.347348 22.2148 0.767543 21.8062L9.37801 13.4345C10.1859 12.6489 10.1857 11.3513 9.3775 10.5661L0.76794 2.20112Z" fill="#F5F5F5"/>
</svg>
