<svg width="20" height="24" viewBox="0 0 20 24" fill="none" xmlns="http://www.w3.org/2000/svg">
<path d="M13.0797 21.7989C13.5004 22.2076 13.501 22.8829 13.0809 23.2923V23.2923C12.6768 23.6863 12.0325 23.6868 11.6276 23.2936L1.47833 13.4346C0.669725 12.6491 0.669724 11.3509 1.47833 10.5654L11.6313 0.702916C12.0343 0.311351 12.6757 0.311064 13.0791 0.702268V0.702268C13.4999 1.11025 13.5003 1.78522 13.0801 2.19376L4.46965 10.5655C3.66171 11.3511 3.66194 12.6487 4.47016 13.4339L13.0797 21.7989Z" fill="#CDCDCD"/>
<path d="M19.2321 21.7989C19.6528 22.2076 19.6533 22.8829 19.2332 23.2923V23.2923C18.8291 23.6863 18.1848 23.6868 17.78 23.2936L7.63067 13.4346C6.82207 12.6491 6.82207 11.3509 7.63067 10.5654L17.7836 0.702916C18.1867 0.311351 18.828 0.311064 19.2315 0.702268V0.702268C19.6522 1.11025 19.6527 1.78522 19.2325 2.19376L10.622 10.5655C9.81406 11.3511 9.81429 12.6487 10.6225 13.4339L19.2321 21.7989Z" fill="#F5F5F5"/>
</svg>
