<svg width="20" height="20" viewBox="0 0 20 20" fill="none" xmlns="http://www.w3.org/2000/svg">
<g clip-path="url(#clip0_794_5192)">
<path d="M20 6.3C20 6.72 19.67 7.05 19.25 7.05H18V8.887C18 8.96303 17.9799 9.03772 17.9418 9.10351C17.9037 9.16931 17.849 9.22389 17.783 9.26173C17.7171 9.29957 17.6423 9.31934 17.5663 9.31904C17.4902 9.31873 17.4156 9.29837 17.35 9.26C16.92 9.01 16.42 8.93 15.94 9.06C15.632 9.134 15.26 8.935 15.26 8.618V7.74C15.26 6.09 13.91 4.74 12.26 4.74H7.74C6.09 4.74 4.74 6.09 4.74 7.74V12.26C4.74 13.91 6.09 15.26 7.74 15.26H8.19C8.21758 15.26 8.24489 15.2654 8.27036 15.276C8.29584 15.2865 8.31899 15.302 8.33849 15.3215C8.35799 15.341 8.37346 15.3642 8.38402 15.3896C8.39457 15.4151 8.4 15.4424 8.4 15.47C8.4 16.433 9.098 17.244 10.017 17.43C10.19 17.465 10.307 17.672 10.25 17.838C10.2348 17.8846 10.2054 17.9252 10.166 17.9543C10.1265 17.9833 10.079 17.9993 10.03 18H7.06V19.25C7.06 19.4489 6.98098 19.6397 6.84033 19.7803C6.69968 19.921 6.50891 20 6.31 20C6.11109 20 5.92032 19.921 5.77967 19.7803C5.63902 19.6397 5.56 19.4489 5.56 19.25V17.78C4.77429 17.5408 4.05953 17.112 3.47878 16.5312C2.89803 15.9505 2.46916 15.2357 2.23 14.45H0.75C0.551088 14.45 0.360322 14.371 0.21967 14.2303C0.0790175 14.0897 0 13.8989 0 13.7C0 13.5011 0.0790175 13.3103 0.21967 13.1697C0.360322 13.029 0.551088 12.95 0.75 12.95H2V10.75H0.75C0.551088 10.75 0.360322 10.671 0.21967 10.5303C0.0790175 10.3897 0 10.1989 0 10C0 9.80109 0.0790175 9.61032 0.21967 9.46967C0.360322 9.32902 0.551088 9.25 0.75 9.25H2V7.05H0.75C0.551088 7.05 0.360322 6.97098 0.21967 6.83033C0.0790175 6.68968 0 6.49891 0 6.3C0 6.10109 0.0790175 5.91032 0.21967 5.76967C0.360322 5.62902 0.551088 5.55 0.75 5.55H2.23C2.46916 4.76429 2.89803 4.04953 3.47878 3.46878C4.05953 2.88803 4.77429 2.45916 5.56 2.22V0.75C5.56 0.551088 5.63902 0.360322 5.77967 0.21967C5.92032 0.0790175 6.11109 0 6.31 0C6.50891 0 6.69968 0.0790175 6.84033 0.21967C6.98098 0.360322 7.06 0.551088 7.06 0.75V2H9.25V0.75C9.25 0.34 9.59 0 10 0C10.41 0 10.75 0.34 10.75 0.75V2H12.95V0.75C12.95 0.34 13.29 0 13.7 0C14.11 0 14.45 0.34 14.45 0.75V2.23C16.04 2.71 17.29 3.96 17.77 5.55H19.25C19.67 5.55 20 5.89 20 6.3Z" fill="#4C58A2"/>
<path d="M18.9519 13.5295C18.2462 13.5295 17.8415 13.1896 17.8415 12.6897C17.8415 12.4897 17.9038 12.2597 18.0491 12.0198C18.1177 11.9057 18.1622 11.7796 18.18 11.6488C18.1978 11.5181 18.1886 11.3852 18.153 11.2579C18.1173 11.1306 18.0558 11.0113 17.9721 10.907C17.8883 10.8027 17.784 10.7153 17.6651 10.65L16.7208 10.1201C16.6165 10.0617 16.5013 10.0236 16.3818 10.008C16.2623 9.99249 16.1407 9.99978 16.0241 10.0295C15.9075 10.0592 15.7982 10.1107 15.7022 10.1812C15.6063 10.2516 15.5257 10.3396 15.4651 10.44L15.4028 10.54C14.9047 11.3699 14.0953 11.3699 13.5972 10.54L13.5349 10.44C13.4755 10.3397 13.3959 10.2518 13.301 10.1813C13.206 10.1108 13.0974 10.0592 12.9816 10.0295C12.8658 9.99971 12.745 9.9924 12.6262 10.008C12.5074 10.0235 12.393 10.0616 12.2896 10.1201L11.3349 10.65C11.0028 10.83 10.8057 11.1699 10.8057 11.5199C10.8057 11.6898 10.8575 11.8598 10.9509 12.0198C11.0962 12.2597 11.1689 12.4897 11.1689 12.6897C11.1689 13.1896 10.7538 13.5295 10.0481 13.5295C9.47736 13.5295 9 13.9795 9 14.5294V15.4692C9 16.0191 9.47736 16.4691 10.0481 16.4691C10.7538 16.4691 11.1689 16.809 11.1689 17.3089C11.1689 17.5089 11.0962 17.7389 10.9509 17.9788C10.8823 18.0929 10.8378 18.219 10.82 18.3498C10.8022 18.4805 10.8114 18.6134 10.847 18.7407C10.8827 18.868 10.9442 18.9873 11.0279 19.0916C11.1117 19.196 11.216 19.2833 11.3349 19.3486L12.2896 19.8785C12.7151 20.1285 13.2859 19.9785 13.5349 19.5586L13.5972 19.4586C14.0953 18.6287 14.9047 18.6287 15.4028 19.4586L15.4651 19.5586C15.7245 19.9785 16.2849 20.1285 16.7208 19.8785L17.6651 19.3486C17.9972 19.1686 18.1943 18.8287 18.1943 18.4788C18.1943 18.3088 18.1425 18.1388 18.0491 17.9788C17.9038 17.7389 17.8415 17.5089 17.8415 17.3089C17.8415 16.809 18.2462 16.4691 18.9519 16.4691C19.533 16.4691 20 16.0191 20 15.4692V14.5294C20 13.9795 19.533 13.5295 18.9519 13.5295ZM14.5 16.719C14.0266 16.719 13.5726 16.5378 13.2379 16.2153C12.9031 15.8928 12.7151 15.4554 12.7151 14.9993C12.7151 14.5432 12.9031 14.1058 13.2379 13.7833C13.5726 13.4608 14.0266 13.2796 14.5 13.2796C14.9734 13.2796 15.4274 13.4608 15.7621 13.7833C16.0969 14.1058 16.2849 14.5432 16.2849 14.9993C16.2849 15.4554 16.0969 15.8928 15.7621 16.2153C15.4274 16.5378 14.9734 16.719 14.5 16.719Z" fill="#4C58A2"/>
<path d="M14 8.13647V8.67482C14 8.99012 13.5812 9.18871 13.2753 9.11529C12.8047 8.99294 12.3341 9.05882 11.9482 9.29412L11.0918 9.79294C10.7754 9.96989 10.517 10.2347 10.348 10.5554C10.1789 10.8761 10.1065 11.239 10.1393 11.6C10.1694 11.9633 9.91529 12.4047 9.58494 12.56C9.12864 12.7743 8.77595 13.1608 8.60424 13.6348C8.53082 13.8381 8.35294 14 8.13647 14C6.95059 14 6 13.0494 6 11.8635V8.13647C6 6.95059 6.95059 6 8.13647 6H11.8635C13.0494 6 14 6.95059 14 8.13647Z" fill="#4C58A2"/>
</g>
<defs>
<clipPath id="clip0_794_5192">
<rect width="20" height="20" fill="white"/>
</clipPath>
</defs>
</svg>
