<svg width="18" height="18" viewBox="0 0 18 18" fill="none" xmlns="http://www.w3.org/2000/svg">
<path d="M15.5405 13.68L14.8355 12.975C15.203 12.42 15.4205 11.7525 15.4205 11.0325C15.4205 9.0825 13.838 7.5 11.888 7.5C9.93797 7.5 8.35547 9.0825 8.35547 11.0325C8.35547 12.9825 9.93797 14.565 11.888 14.565C12.608 14.565 13.268 14.3475 13.8305 13.98L14.5355 14.685C14.678 14.8275 14.858 14.895 15.0455 14.895C15.233 14.895 15.413 14.8275 15.5555 14.685C15.818 14.415 15.818 13.965 15.5405 13.68Z" fill="#F5F5F5"/>
<path d="M14.6864 3.015V4.68C14.6864 5.2875 14.3114 6.045 13.9364 6.4275L13.8014 6.5475C13.6964 6.645 13.5389 6.6675 13.4039 6.6225C13.2539 6.57 13.1039 6.5325 12.9539 6.495C12.6239 6.4125 12.2714 6.375 11.9114 6.375C9.32391 6.375 7.22391 8.475 7.22391 11.0625C7.22391 11.9175 7.45641 12.7575 7.89891 13.4775C8.27391 14.1075 8.79891 14.6325 9.36891 14.985C9.54141 15.0975 9.60891 15.3375 9.45891 15.4725C9.40641 15.5175 9.35391 15.555 9.30141 15.5925L8.25141 16.275C7.27641 16.8825 5.93391 16.2 5.93391 14.985V10.9725C5.93391 10.44 5.63391 9.7575 5.33391 9.3825L2.49141 6.3525C2.11641 5.97 1.81641 5.2875 1.81641 4.8375V3.09C1.81641 2.1825 2.49141 1.5 3.30891 1.5H13.1939C14.0114 1.5 14.6864 2.1825 14.6864 3.015Z" fill="#F5F5F5"/>
</svg>
