<svg width="60" height="60" viewBox="0 0 60 60" fill="none" xmlns="http://www.w3.org/2000/svg">
<path d="M31.093 2.34331L52.2258 17.707C53.2998 18.4878 53.837 19.9513 53.5735 21.3789L47.053 56.7074C46.7401 58.4027 45.3917 59.5819 43.8829 59.4796L14.6254 57.4963C13.0414 57.3889 1.21584 36.0825 1.18014 34.2645L10.8649 8.47764C10.831 6.74636 11.908 5.24539 13.3972 4.94862L28.9375 1.85186C29.6848 1.70296 30.4531 1.87815 31.093 2.34331Z" fill="#4C58A2"/>
<path d="M36.5014 25.1536C36.5014 26.6471 35.96 28.0794 34.9961 29.1354C34.0323 30.1914 32.7251 30.7847 31.362 30.7847C29.999 30.7847 28.6918 30.1914 27.7279 29.1354C26.7641 28.0794 26.2227 26.6471 26.2227 25.1536C26.2227 23.6601 26.7641 22.2278 27.7279 21.1718C28.6918 20.1157 29.999 19.5225 31.362 19.5225C32.7251 19.5225 34.0323 20.1157 34.9961 21.1718C35.96 22.2278 36.5014 23.6601 36.5014 25.1536Z" fill="#FFE500"/>
<path fill-rule="evenodd" clip-rule="evenodd" d="M17.6562 28.906C17.6562 24.9234 19.1002 21.1039 21.6704 18.2878C24.2406 15.4717 27.7265 13.8896 31.3613 13.8896C34.9961 13.8896 38.482 15.4717 41.0522 18.2878C43.6224 21.1039 45.0663 24.9234 45.0663 28.906C45.0663 32.8886 43.6224 36.708 41.0522 39.5242C38.482 42.3403 34.9961 43.9223 31.3613 43.9223C27.7265 43.9223 24.2406 42.3403 21.6704 39.5242C19.1002 36.708 17.6563 32.8886 17.6562 28.906ZM31.3613 15.7667C29.103 15.7668 26.8906 16.4656 24.9789 17.7827C23.0671 19.0997 21.5335 20.9815 20.5548 23.2114C19.5761 25.4413 19.1919 27.9287 19.4465 30.3873C19.7011 32.8459 20.5841 35.1757 21.9939 37.1087C23.2102 34.9613 25.8878 32.6601 31.3613 32.6601C36.8347 32.6601 39.5106 34.9595 40.7287 37.1087C42.1385 35.1757 43.0215 32.8459 43.2761 30.3873C43.5307 27.9287 43.1465 25.4413 42.1678 23.2114C41.189 20.9815 39.6555 19.0997 37.7437 17.7827C35.8319 16.4656 33.6196 15.7668 31.3613 15.7667Z" fill="#FFE500"/>
<path d="M10.8012 28.3275C9.68987 28.3275 8.73849 27.8939 7.94709 27.0268C7.15568 26.1596 6.75998 25.1172 6.75998 23.8996C6.75998 22.6819 7.15568 21.6395 7.94709 20.7724C8.73849 19.9052 9.68987 19.4717 10.8012 19.4717C11.9125 19.4717 12.8639 19.9052 13.6553 20.7724C14.4467 21.6395 14.8424 22.6819 14.8424 23.8996C14.8424 25.1172 14.4467 26.1596 13.6553 27.0268C12.8639 27.8939 11.9125 28.3275 10.8012 28.3275ZM4.73936 37.1833C4.18369 37.1833 3.70818 36.9667 3.31281 36.5335C2.91677 36.0995 2.71875 35.5782 2.71875 34.9693V34.0837C2.71875 33.4565 2.86625 32.8797 3.16126 32.3535C3.4556 31.8281 3.84693 31.427 4.33524 31.1503C5.37922 30.5783 6.44005 30.1492 7.51771 29.8628C8.59537 29.5772 9.68987 29.4344 10.8012 29.4344C11.9125 29.4344 13.007 29.5772 14.0847 29.8628C15.1624 30.1492 16.2232 30.5783 17.2672 31.1503C17.7555 31.427 18.1468 31.8281 18.4411 32.3535C18.7362 32.8797 18.8837 33.4565 18.8837 34.0837V34.9693C18.8837 35.5782 18.686 36.0995 18.2906 36.5335C17.8946 36.9667 17.4187 37.1833 16.863 37.1833H4.73936Z" fill="#F5F5F5"/>
<path d="M51.9184 28.3275C50.8071 28.3275 49.8557 27.8939 49.0643 27.0268C48.2729 26.1596 47.8772 25.1172 47.8772 23.8996C47.8772 22.6819 48.2729 21.6395 49.0643 20.7724C49.8557 19.9052 50.8071 19.4717 51.9184 19.4717C53.0297 19.4717 53.9811 19.9052 54.7725 20.7724C55.5639 21.6395 55.9596 22.6819 55.9596 23.8996C55.9596 25.1172 55.5639 26.1596 54.7725 27.0268C53.9811 27.8939 53.0297 28.3275 51.9184 28.3275ZM45.8566 37.1833C45.3009 37.1833 44.8254 36.9667 44.43 36.5335C44.034 36.0995 43.8359 35.5782 43.8359 34.9693V34.0837C43.8359 33.4565 43.9834 32.8797 44.2785 32.3535C44.5728 31.8281 44.9641 31.427 45.4524 31.1503C46.4964 30.5783 47.5572 30.1492 48.6349 29.8628C49.7126 29.5772 50.8071 29.4344 51.9184 29.4344C53.0297 29.4344 54.1242 29.5772 55.2019 29.8628C56.2795 30.1492 57.3404 30.5783 58.3844 31.1503C58.8727 31.427 59.264 31.8281 59.5583 32.3535C59.8533 32.8797 60.0008 33.4565 60.0008 34.0837V34.9693C60.0008 35.5782 59.8032 36.0995 59.4078 36.5335C59.0118 36.9667 58.5359 37.1833 57.9802 37.1833H45.8566Z" fill="#F5F5F5"/>
<path d="M45.9243 29.8422C45.9243 33.3625 44.9118 36.6143 43.2062 39.2526L51.8089 48.9699C52.6583 49.9286 52.6583 51.4855 51.8089 52.4442C50.9595 53.4028 49.5801 53.4028 48.7307 52.4442L40.128 42.7269C37.7904 44.6596 34.9092 45.7947 31.7903 45.7947C23.9826 45.7947 17.6562 38.6544 17.6562 29.8422C17.6562 21.0299 23.9826 13.8896 31.7903 13.8896C39.5979 13.8896 45.9243 21.0299 45.9243 29.8422ZM31.7903 40.8862C37.1924 40.8862 41.5753 35.9394 41.5753 29.8422C41.5753 23.7449 37.1924 18.7981 31.7903 18.7981C26.3881 18.7981 22.0052 23.7449 22.0052 29.8422C22.0052 35.9394 26.3881 40.8862 31.7903 40.8862Z" fill="#F5F5F5"/>
</svg>
