<svg width="60" height="60" viewBox="0 0 60 60" fill="none" xmlns="http://www.w3.org/2000/svg">
<path d="M17.7315 0.19688L26.924 19.036L57.2909 34.2846L36.8053 43.639L12.001 43.999L1.13645 16.2164L17.7315 0.19688Z" fill="#F5F5F5"/>
<path d="M20.2291 13.1769C19.2732 13.5506 18.5566 13.3197 18.3092 12.665C18.2102 12.4031 18.1808 12.069 18.2588 11.6778C18.2953 11.492 18.2932 11.3034 18.2526 11.1227C18.2121 10.942 18.1338 10.7729 18.0225 10.625C17.9111 10.4772 17.7688 10.3536 17.6037 10.2613C17.4387 10.169 17.2541 10.1098 17.0607 10.0873L15.5191 9.89331C15.3489 9.87199 15.174 9.88312 15.0044 9.92605C14.8348 9.96898 14.6738 10.0429 14.5305 10.1435C14.3873 10.2442 14.2646 10.3696 14.1695 10.5126C14.0744 10.6557 14.0088 10.8135 13.9763 10.9772L13.9415 11.1411C13.6774 12.4916 12.5808 12.9202 11.4953 12.0972L11.3614 11.9992C11.2312 11.8994 11.08 11.8263 10.9165 11.7843C10.7529 11.7423 10.5803 11.7322 10.4087 11.7545C10.237 11.7769 10.0697 11.8313 9.9165 11.9145C9.76327 11.9978 9.62715 12.1083 9.51603 12.2396L8.4849 13.4391C8.1241 13.8506 8.02524 14.4002 8.19844 14.8585C8.28257 15.0811 8.43698 15.2762 8.64269 15.4363C8.95828 15.6736 9.17051 15.9363 9.26948 16.1982C9.51691 16.8529 9.12281 17.5179 8.16682 17.8915C7.3936 18.1937 6.96959 19.0357 7.24176 19.7559L7.70692 20.9867C7.9791 21.7069 8.84848 22.0433 9.62171 21.7411C10.5777 21.3674 11.3083 21.5928 11.5557 22.2475C11.6547 22.5094 11.6701 22.849 11.592 23.2402C11.5556 23.426 11.5577 23.6147 11.5982 23.7953C11.6388 23.976 11.717 24.1452 11.8284 24.293C11.9397 24.4408 12.0821 24.5645 12.2471 24.6568C12.4122 24.749 12.5967 24.8082 12.7902 24.8308L14.3458 25.0192C15.046 25.1213 15.745 24.6227 15.8745 23.9408L15.9094 23.7769C16.1735 22.4264 17.2701 21.9978 18.3556 22.8208L18.4894 22.9188C19.0487 23.3314 19.8821 23.231 20.3489 22.6729L21.366 21.4789C21.7268 21.0674 21.8256 20.5178 21.6524 20.0595C21.5683 19.8369 21.4139 19.6418 21.2082 19.4817C20.8926 19.2444 20.6944 18.9762 20.5954 18.7144C20.348 18.0597 20.728 17.4002 21.684 17.0265C22.4713 16.7188 22.8813 15.8823 22.6091 15.1622L22.1439 13.9313C21.8718 13.2112 21.0164 12.8692 20.2291 13.1769ZM15.7766 19.7112C15.1353 19.9618 14.4305 19.9649 13.8174 19.7198C13.2043 19.4747 12.7331 19.0014 12.5073 18.4041C12.2816 17.8068 12.3199 17.1344 12.6137 16.5348C12.9076 15.9352 13.433 15.4575 14.0743 15.2069C14.7156 14.9562 15.4203 14.9531 16.0334 15.1982C16.6465 15.4433 17.1178 15.9166 17.3435 16.5139C17.5693 17.1112 17.531 17.7836 17.2371 18.3832C16.9433 18.9828 16.4179 19.4605 15.7766 19.7112Z" fill="#4C58A2"/>
<path d="M35.33 12.4994C34.629 11.7496 34.618 10.9415 35.1931 10.3855C35.4231 10.1631 35.7494 9.97349 36.1698 9.86098C36.3692 9.80696 36.5584 9.71404 36.7265 9.58756C36.8946 9.46108 37.0383 9.30355 37.1493 9.12402C37.2603 8.9445 37.3364 8.74654 37.3733 8.54155C37.4101 8.33655 37.4069 8.12857 37.3639 7.92958L37.0354 6.33686C36.999 6.16111 36.9284 5.99639 36.8276 5.85211C36.7267 5.70782 36.5976 5.58681 36.4476 5.49596C36.2976 5.40512 36.1296 5.34623 35.9533 5.32265C35.777 5.29907 35.5958 5.31127 35.42 5.35856L35.2432 5.4036C33.7938 5.79731 32.9897 4.93729 33.4495 3.48509L33.5026 3.30773C33.5589 3.13302 33.5811 2.95074 33.5678 2.77145C33.5545 2.59215 33.5061 2.41942 33.4252 2.26325C33.3444 2.10708 33.2328 1.97059 33.0969 1.86168C32.961 1.75277 32.8036 1.6736 32.6336 1.62878L31.0757 1.20375C30.5388 1.05108 29.9519 1.21966 29.5494 1.60886C29.3539 1.7979 29.2099 2.04207 29.1187 2.31923C28.987 2.74047 28.7946 3.07341 28.5646 3.29581C27.9896 3.85181 27.1862 3.78885 26.4852 3.03909C25.9183 2.43266 24.9265 2.42586 24.294 3.03746L23.2129 4.08274C22.5804 4.69434 22.5371 5.70194 23.1041 6.30836C23.805 7.05813 23.8264 7.87724 23.2513 8.43324C23.0213 8.65564 22.6846 8.83422 22.2643 8.94674C22.0649 9.00075 21.8757 9.09367 21.7076 9.22015C21.5394 9.34663 21.3957 9.50417 21.2847 9.68369C21.1737 9.86321 21.0976 10.0612 21.0608 10.2662C21.024 10.4712 21.0272 10.6791 21.0701 10.8781L21.409 12.4819C21.5441 13.2119 22.2836 13.6516 23.0141 13.4492L23.1909 13.4041C24.6403 13.0104 25.4443 13.8704 24.9846 15.3226L24.9315 15.5C24.7061 16.2427 25.0903 17.0049 25.8108 17.19L27.3584 17.604C27.8953 17.7566 28.4822 17.5881 28.8847 17.1989C29.0802 17.0098 29.2242 16.7656 29.3154 16.4885C29.4471 16.0672 29.6498 15.7453 29.8798 15.5229C30.4548 14.9669 31.2479 15.0189 31.9488 15.7686C32.5261 16.3861 33.5075 16.3819 34.1401 15.7703L35.2211 14.725C35.8537 14.1134 35.9073 13.1168 35.33 12.4994ZM27.2389 11.3165C26.7687 10.8135 26.5261 10.1296 26.5645 9.41529C26.603 8.70095 26.9193 8.01466 27.444 7.50739C27.9686 7.00013 28.6585 6.71345 29.362 6.71042C30.0655 6.70738 30.7249 6.98825 31.1951 7.49122C31.6654 7.99419 31.908 8.67808 31.8695 9.39242C31.8311 10.1068 31.5147 10.7931 30.9901 11.3003C30.4655 11.8076 29.7755 12.0943 29.0721 12.0973C28.3686 12.1003 27.7092 11.8195 27.2389 11.3165Z" fill="#4C58A2"/>
<path d="M46.3534 21.6268C45.9005 20.8513 46.0481 20.1604 46.6472 19.7986C46.8868 19.6538 47.2024 19.5558 47.5832 19.5418C47.764 19.5346 47.9436 19.4923 48.1118 19.4172C48.2799 19.3422 48.4332 19.2359 48.5629 19.1045C48.6926 18.9731 48.796 18.8192 48.8673 18.6517C48.9386 18.4842 48.9763 18.3063 48.9782 18.1283L49.0071 16.7069C49.0102 16.5501 48.9819 16.3959 48.9238 16.2533C48.8657 16.1107 48.779 15.9824 48.6686 15.8758C48.5581 15.7691 48.4261 15.6862 48.2801 15.6318C48.1342 15.5774 47.977 15.5525 47.8177 15.5585L47.658 15.5625C46.3437 15.6157 45.8242 14.7261 46.499 13.578L46.5788 13.4372C46.6609 13.2993 46.7152 13.1482 46.7387 12.9929C46.7622 12.8375 46.7544 12.6808 46.7157 12.532C46.677 12.3831 46.6082 12.2451 46.5133 12.1258C46.4184 12.0065 46.2993 11.9083 46.1629 11.837L44.9151 11.1713C44.4863 10.9367 43.9523 10.966 43.533 11.2193C43.3293 11.3424 43.1589 11.5224 43.0271 11.7408C42.8328 12.0742 42.6039 12.3205 42.3642 12.4652C41.7651 12.8271 41.0913 12.6169 40.6384 11.8414C40.272 11.2141 39.4264 11.0152 38.7675 11.4132L37.6412 12.0935C36.9822 12.4915 36.7494 13.3418 37.1157 13.9691C37.5687 14.7446 37.4277 15.4469 36.8286 15.8087C36.589 15.9535 36.2668 16.0401 35.886 16.0541C35.7052 16.0613 35.5256 16.1036 35.3574 16.1787C35.1893 16.2537 35.036 16.36 34.9063 16.4914C34.7766 16.6228 34.6732 16.7767 34.6019 16.9442C34.5306 17.1117 34.4929 17.2896 34.4909 17.4676L34.4687 18.9004C34.4423 19.5489 34.9883 20.0676 35.6514 20.0374L35.8112 20.0335C37.1254 19.9802 37.645 20.8698 36.9702 22.0179L36.8904 22.1587C36.5537 22.7478 36.7336 23.4722 37.3129 23.7703L38.5541 24.4246C38.9829 24.6593 39.5168 24.6299 39.9362 24.3766C40.1399 24.2536 40.3103 24.0735 40.442 23.8551C40.6364 23.5217 40.872 23.2868 41.1116 23.1421C41.7107 22.7802 42.3779 22.979 42.8308 23.7545C43.2038 24.3932 44.0427 24.5807 44.7017 24.1827L45.828 23.5024C46.487 23.1044 46.7264 22.2655 46.3534 21.6268ZM39.6737 19.0427C39.3699 18.5225 39.2956 17.8924 39.4672 17.2911C39.6389 16.6897 40.0423 16.1664 40.5889 15.8363C41.1355 15.5062 41.7804 15.3962 42.3817 15.5307C42.9831 15.6651 43.4916 16.0329 43.7955 16.5532C44.0993 17.0734 44.1736 17.7035 44.002 18.3049C43.8303 18.9062 43.4268 19.4295 42.8803 19.7596C42.3337 20.0897 41.6888 20.1997 41.0874 20.0652C40.4861 19.9308 39.9776 19.563 39.6737 19.0427Z" fill="#F7D056"/>
<path d="M19.3049 31.8891C18.3058 30.5672 16.4111 30.2953 15.082 31.2891C13.7529 32.2828 13.4795 34.1672 14.4787 35.4891L18.0701 40.2516C18.5226 40.8516 18.4566 41.6859 17.9287 42.2109L16.7221 43.4109C16.0906 44.0391 15.0631 43.9922 14.4976 43.3078L6.03275 33.2016V19.2891C6.03275 17.6297 4.68479 16.2891 3.01634 16.2891C1.34789 16.2891 0.665881 19.2891 0.665881 19.2891C0.665881 19.2891 -0.502763 30.7548 1.50757 39.6048C3.01578 42.5548 2.87762 42.6141 3.51861 43.4109L10.8024 55.1672C11.1304 55.6805 11.4249 56.3554 11.7828 57.2016C11.809 57.3013 11.8452 57.3962 11.8903 57.4853C12.1377 57.9739 12.651 58.2891 13.225 58.2891H25.6394C26.4689 58.2891 27.1476 57.6141 27.1476 56.7891V46.2891C27.1476 43.6922 26.2992 41.1703 24.7345 39.0891L19.3049 31.8891ZM57.3117 16.2891C55.6433 16.2891 54.002 17.6297 54.002 19.2891L53.2899 33.2132L45.8305 43.3078C45.2649 43.9828 44.2281 44.0297 43.6059 43.4109L42.3993 42.2109C41.8715 41.6859 41.8055 40.8516 42.2579 40.2516L45.8494 35.4891C46.8485 34.1672 46.5752 32.2828 45.2461 31.2891C43.917 30.2953 42.0223 30.5672 41.0231 31.8891L35.5936 39.0891C34.0288 41.1703 33.1805 43.6922 33.1805 46.2891V56.7891C33.1805 57.6141 33.8591 58.2891 34.6887 58.2891H47.1031C47.7723 58.2891 48.3756 57.8484 48.5453 57.2016C48.7338 56.4703 49.0543 55.7766 49.5256 55.1672L56.809 44.5215C57.45 43.7246 58.8199 39.1132 58.8199 38.1298L60.002 19.2891C60.002 17.6297 58.9802 16.2891 57.3117 16.2891Z" fill="#4C58A2"/>
</svg>
