<svg width="60" height="60" viewBox="0 0 60 60" fill="none" xmlns="http://www.w3.org/2000/svg">
<path d="M2.46023 30.1416L16.7056 2.78769C17.4296 1.39753 18.8889 0.631346 20.3669 0.865444L56.9444 6.65906C58.6996 6.93707 59.9989 8.53983 59.9989 10.4271V47.0235C59.9989 49.0048 58.5708 50.6553 56.7143 50.8199L10.1351 54.9479C8.36713 55.1046 6.75763 53.8613 6.35095 52.0249L2.10711 32.8606C1.90305 31.9391 2.02893 30.9698 2.46023 30.1416Z" fill="#4C58A2"/>
<path d="M12 28.9286C17.5228 28.9286 22 24.1316 22 18.2143C22 12.2969 17.5228 7.5 12 7.5C6.47715 7.5 2 12.2969 2 18.2143C2 24.1316 6.47715 28.9286 12 28.9286Z" stroke="#F5F5F5" stroke-width="1.79067"/>
<path d="M50 7.5H30V28.9286H50V7.5Z" stroke="#F5F5F5" stroke-width="1.79067"/>
<path d="M26.2723 38.8937L25.5 37.5L24.7277 38.8937L16.7723 53.2492L16 54.6429H17.5446H33.4554H35L34.2277 53.2492L26.2723 38.8937Z" fill="#F7D056" stroke="#F5F5F5" stroke-width="1.79067"/>
</svg>
