<svg width="60" height="60" viewBox="0 0 60 60" fill="none" xmlns="http://www.w3.org/2000/svg">
<path d="M1.70801 39.895L53.1479 16.595C55.596 15.4861 59.1758 16.5593 58.9919 18.3469L55.0638 56.5333C54.9076 58.0523 52.0525 58.9614 49.7268 58.2327L2.21509 43.3464C-0.060359 42.6334 -0.327255 40.8169 1.70801 39.895Z" fill="#4C58A2"/>
<path d="M28.2722 50.3802L47.184 44.105C47.8803 43.874 48.6551 44.1889 48.9148 44.8084C49.1745 45.4278 48.8205 46.1173 48.1242 46.3484L29.2125 52.6236C28.5162 52.8547 27.7413 52.5397 27.4817 51.9202C27.222 51.3007 27.576 50.6112 28.2722 50.3802ZM32.6745 54.0305L46.5431 49.4287C47.2394 49.1977 48.0144 49.5126 48.2741 50.132C48.5337 50.7515 48.1798 51.441 47.4835 51.6721L33.6149 56.274C32.9186 56.505 32.1436 56.1901 31.884 55.5706C31.6243 54.9511 31.9782 54.2615 32.6745 54.0305ZM37.0768 57.6808L45.9024 54.7525C46.5987 54.5214 47.3736 54.8362 47.6333 55.4557C47.8929 56.0752 47.539 56.7648 46.8427 56.9958L38.0171 59.9242C37.3209 60.1553 36.546 59.8403 36.2863 59.2209C36.0266 58.6014 36.3806 57.9119 37.0768 57.6808ZM43.5758 32.0709C48.2622 26.8272 49.834 19.5914 47.0112 12.8569C42.7264 2.63465 29.9393 -2.56163 18.4503 1.2506C6.96116 5.06285 1.12091 16.44 5.40558 26.6623C8.22839 33.3967 14.7416 37.9498 22.1427 39.1828L25.601 47.4332C25.8605 48.0527 26.6356 48.3676 27.3319 48.1366C28.0282 47.9055 28.3821 47.216 28.1225 46.5965L24.7537 38.5593L24.1094 37.0223C17.0073 36.3338 10.5937 32.1872 7.9272 25.8256C4.16187 16.8424 9.29422 6.84432 19.3907 3.49417C29.4871 0.143969 40.7242 4.71046 44.4897 13.6936C47.1562 20.0552 45.3603 26.9258 40.4994 31.5839L41.1436 33.1209L44.5126 41.1581C44.7722 41.7776 45.5472 42.0925 46.2435 41.8614C46.9398 41.6304 47.2937 40.9409 47.0341 40.3214L43.5758 32.0709Z" fill="#F5F5F5"/>
<path d="M28 16H28C23.5817 16 20 18.6863 20 22V22C20 25.3137 23.5817 28 28 28H28C32.4183 28 36 25.3137 36 22V22C36 18.6863 32.4183 16 28 16Z" fill="#F7D056"/>
</svg>
