<svg width="60" height="60" viewBox="0 0 60 60" fill="none" xmlns="http://www.w3.org/2000/svg">
<path d="M55.7826 30.25C57.4853 43.75 49.0748 55 34.4993 55C19.9238 55 3 43.5048 3 30.25C3 16.9952 4.5998 1 19.1753 1C33.7508 1 55.7826 16.9952 55.7826 30.25Z" fill="#F5F5F5"/>
<path d="M55.8637 20.0774L39.1807 18.6146L32.6661 3.11584C31.4942 0.294719 27.4958 0.294719 26.3238 3.11584L19.8092 18.6494L3.16066 20.0774C0.127389 20.3212 -1.1135 24.1524 1.19593 26.1724L13.846 37.248L10.0545 53.6871C9.36507 56.6824 12.5707 59.0507 15.1903 57.4486L29.495 48.7414L43.7996 57.4834C46.4192 59.0856 49.6248 56.7172 48.9355 53.7219L45.1439 37.248L57.794 26.1724C60.1034 24.1524 58.897 20.3212 55.8637 20.0774ZM29.495 42.2285L16.5346 50.1346L19.9815 35.2279L8.53782 25.1972L23.6352 23.8737L29.495 9.83778L35.3891 23.9086L50.4866 25.2321L39.0429 35.2627L42.4898 50.1694L29.495 42.2285Z" fill="#4C58A2"/>
<line x1="46.3598" y1="32.3158" x2="52.4615" y2="27.231" stroke="#F7D056" stroke-width="2"/>
<line x1="42.9701" y1="38.7572" x2="44.8987" y2="46.4621" stroke="#F7D056" stroke-width="2"/>
</svg>
