<svg width="60" height="60" viewBox="0 0 60 60" fill="none" xmlns="http://www.w3.org/2000/svg">
<g clip-path="url(#clip0_794_5212)">
<path d="M52.7173 42.3425L26.1191 49.1015L5.02596 39.377L25 19.6881L53.1128 19.6881L52.7173 42.3425Z" fill="#F5F5F5"/>
<path d="M26.6112 36.66C27.0589 37.0819 27.3104 37.6537 27.3104 38.25C27.3104 38.8463 27.0589 39.4181 26.6112 39.84L20.2362 45.84C19.788 46.2614 19.1804 46.498 18.5469 46.498C17.9134 46.498 17.3057 46.2614 16.8575 45.84L13.67 42.84C13.4351 42.634 13.2467 42.3856 13.1161 42.1096C12.9854 41.8336 12.9152 41.5357 12.9095 41.2336C12.9038 40.9315 12.9629 40.6314 13.0831 40.3512C13.2033 40.071 13.3823 39.8165 13.6093 39.6029C13.8363 39.3892 14.1067 39.2208 14.4044 39.1076C14.7021 38.9945 15.0209 38.9389 15.3419 38.9442C15.6629 38.9496 15.9795 39.0157 16.2727 39.1387C16.566 39.2616 16.8299 39.4389 17.0487 39.66L18.5469 41.07L23.2325 36.66C23.6807 36.2387 24.2884 36.002 24.9219 36.002C25.5554 36.002 26.163 36.2387 26.6112 36.66Z" fill="#4C58A2"/>
<path d="M26.6112 23.34C26.8461 23.134 27.0345 22.8856 27.1652 22.6096C27.2958 22.3336 27.3661 22.0357 27.3718 21.7336C27.3774 21.4315 27.3184 21.1314 27.1981 20.8512C27.0779 20.571 26.8989 20.3165 26.6719 20.1029C26.4449 19.8892 26.1745 19.7208 25.8768 19.6076C25.5792 19.4945 25.2603 19.4389 24.9393 19.4442C24.6183 19.4496 24.3018 19.5157 24.0085 19.6387C23.7153 19.7616 23.4514 19.9389 23.2325 20.16L18.5469 24.57L17.0487 23.16C16.5956 22.7626 15.9962 22.5462 15.3768 22.5565C14.7575 22.5668 14.1666 22.8029 13.7286 23.2151C13.2906 23.6274 13.0397 24.1835 13.0288 24.7664C13.0178 25.3493 13.2477 25.9135 13.67 26.34L16.8575 29.34C17.3057 29.7614 17.9134 29.998 18.5469 29.998C19.1804 29.998 19.788 29.7614 20.2362 29.34L26.6112 23.34Z" fill="#F7D056"/>
<path fill-rule="evenodd" clip-rule="evenodd" d="M40.959 1.80396C42.2199 2.90607 43.0149 4.39601 43.2054 6H48.8281C49.7699 6 50.7026 6.17459 51.5727 6.51381C52.4428 6.85303 53.2334 7.35023 53.8994 7.97703C54.5654 8.60383 55.0937 9.34794 55.4541 10.1669C55.8145 10.9858 56 11.8636 56 12.75V53.25C56 54.1364 55.8145 55.0142 55.4541 55.8331C55.0937 56.6521 54.5654 57.3962 53.8994 58.023C53.2334 58.6498 52.4428 59.147 51.5727 59.4862C50.7026 59.8254 49.7699 60 48.8281 60H12.1719C10.2698 60 8.44558 59.2888 7.10059 58.023C5.75561 56.7571 5 55.0402 5 53.25V12.75C5 10.9598 5.75561 9.2429 7.10059 7.97703C8.44558 6.71116 10.2698 6 12.1719 6H17.7946C17.9906 4.34997 18.8259 2.82581 20.1408 1.71891C21.4556 0.612021 23.1578 5.01734e-05 24.9219 1.16142e-08H36.0781C37.8887 -9.98932e-05 39.6323 0.644334 40.959 1.80396ZM24.9219 13.5H36.0781C38.5644 13.5 40.7542 12.309 42.0419 10.5H48.8281C49.4622 10.5 50.0702 10.7371 50.5186 11.159C50.9669 11.581 51.2188 12.1533 51.2188 12.75V53.25C51.2188 53.8467 50.9669 54.419 50.5186 54.841C50.0702 55.2629 49.4622 55.5 48.8281 55.5H12.1719C11.5378 55.5 10.9298 55.2629 10.4814 54.841C10.0331 54.419 9.78125 53.8467 9.78125 53.25V12.75C9.78125 12.1533 10.0331 11.581 10.4814 11.159C10.9298 10.7371 11.5378 10.5 12.1719 10.5H18.9581C20.2458 12.309 22.4356 13.5 24.9219 13.5ZM24.9219 4.5H36.0781C36.7122 4.5 37.3202 4.73705 37.7686 5.15901C38.2169 5.58097 38.4688 6.15326 38.4688 6.75C38.4688 7.34674 38.2169 7.91903 37.7686 8.34099C37.3202 8.76295 36.7122 9 36.0781 9H24.9219C24.2878 9 23.6798 8.76295 23.2314 8.34099C22.7831 7.91903 22.5312 7.34674 22.5312 6.75C22.5312 6.15326 22.7831 5.58097 23.2314 5.15901C23.6798 4.73705 24.2878 4.5 24.9219 4.5Z" fill="#4C58A2"/>
<path d="M32.0938 24.75C32.0938 24.1533 32.3456 23.581 32.7939 23.159C33.2423 22.7371 33.8503 22.5 34.4844 22.5H45.6406C46.2747 22.5 46.8827 22.7371 47.3311 23.159C47.7794 23.581 48.0312 24.1533 48.0312 24.75C48.0312 25.3467 47.7794 25.919 47.3311 26.341C46.8827 26.7629 46.2747 27 45.6406 27H34.4844C33.8503 27 33.2423 26.7629 32.7939 26.341C32.3456 25.919 32.0938 25.3467 32.0938 24.75Z" fill="#F7D056"/>
<path d="M34.4844 39C33.8503 39 33.2423 39.2371 32.7939 39.659C32.3456 40.081 32.0938 40.6533 32.0938 41.25C32.0938 41.8467 32.3456 42.419 32.7939 42.841C33.2423 43.2629 33.8503 43.5 34.4844 43.5H45.6406C46.2747 43.5 46.8827 43.2629 47.3311 42.841C47.7794 42.419 48.0312 41.8467 48.0312 41.25C48.0312 40.6533 47.7794 40.081 47.3311 39.659C46.8827 39.2371 46.2747 39 45.6406 39H34.4844Z" fill="#4C58A2"/>
</g>
<defs>
<clipPath id="clip0_794_5212">
<rect width="60" height="60" fill="white"/>
</clipPath>
</defs>
</svg>
