<svg width="60" height="60" viewBox="0 0 60 60" fill="none" xmlns="http://www.w3.org/2000/svg">
<path d="M1.36328 29.7319L19.0863 5.7233C19.7915 4.56777 21.213 3.93091 22.6527 4.12549L58.2822 8.94125C59.992 9.17234 54.9489 23.7423 54.9489 25.311L44.2318 38.1316C44.2318 39.7784 50.8656 44.7615 49.5904 46.5312L12.6861 49.0798C10.9639 49.21 9.39613 48.1766 8.99999 46.6501L15.4904 36.8053C15.2916 36.0393 2.33757 33.7107 1.36328 29.7319Z" fill="#4C58A2"/>
<path d="M58.6176 50.7921L40.1216 32.1623C37.6723 29.6958 38.8548 27.8841 38.8548 27.8841L38.8435 27.8718C39.6615 26.1753 39.386 24.0834 37.9899 22.6747L30.7901 15.4243C29.023 13.6437 26.1577 13.6437 24.3896 15.4243L23.2896 16.5301L23.1725 16.649C23.1725 16.649 22.6675 17.6605 24.9696 17.7954L24.9706 17.7983C24.9706 17.7983 26.0293 17.8889 27.0638 18.9306L29.6124 21.4971C30.5437 22.434 30.569 23.4116 30.5259 23.8513C30.3132 25.0591 29.7604 26.2168 28.8319 27.1491C27.9127 28.0775 26.7696 28.6295 25.5796 28.8447C25.0521 28.8937 24.0486 28.8022 22.9373 27.6831L21.0052 25.7347C19.7881 24.509 19.5295 22.9275 19.5295 22.9275H19.5267C19.0554 20.7771 18.4107 21.4471 18.4107 21.4471L17.1927 22.6737C15.4255 24.4523 15.4255 27.3387 17.1917 29.1192L24.3906 36.3677C25.8616 37.8501 28.0888 38.0794 29.8157 37.0952L29.8288 37.1094C29.8288 37.1094 31.4132 36.1007 33.5458 38.2502L52.7408 57.583C52.7408 57.583 55.0739 59.89 57.2749 57.6745L59.0908 55.8459C59.7045 55.1552 61.0041 53.1954 58.6176 50.7921Z" fill="#FFE600"/>
<path d="M38.2382 48.2561C37.0895 46.8804 35.2455 47.7334 35.2455 47.7334L35.2408 47.7211C35.0834 47.7749 34.9288 47.8381 34.7686 47.8881C34.718 47.907 34.6861 47.9277 34.6271 47.9513C32.1085 48.8855 32.0851 50.8141 32.0851 50.8141V53.0759C32.0495 55.0007 30.5241 55.3385 29.7351 55.3895H28.8216C26.8614 55.4291 26.51 54.2223 26.4594 53.5769V50.9726C26.4594 48.5779 23.805 47.9164 23.805 47.9164L23.8134 47.9051C22.3761 47.4767 21.0165 46.8681 19.7394 46.1378C19.686 46.1142 19.6438 46.1 19.5857 46.0708C17.4372 44.9866 15.8359 46.5161 15.8359 46.5161L14.0098 48.3552C12.7345 49.6346 11.791 49.0383 11.4452 48.7222L11.2981 48.5722L11.2925 48.5646H11.2916L9.79146 47.054C9.79053 47.0512 9.78865 47.0512 9.78584 47.0483C8.6118 45.8679 10.1391 44.244 10.3424 44.0393L12.1236 42.2474C12.1245 42.2474 12.1245 42.2427 12.1245 42.2427C13.4972 40.8604 12.4188 38.7081 12.4188 38.7081C12.4188 38.7081 12.4338 38.7053 12.4366 38.7053C11.7516 37.4522 11.1857 36.1246 10.7819 34.7206C10.7687 34.6838 10.7537 34.6602 10.7397 34.6215C9.8355 32.104 7.55489 32.1465 7.51085 32.1465L5.78024 32.1541C3.75449 32.1569 3.39 30.8312 3.33566 30.1339L3.33097 28.7289C3.34315 28.1486 3.5521 26.5068 5.60128 26.4889C5.60222 26.4889 5.60222 26.4889 5.60222 26.4889L7.82005 26.4794C7.82005 26.4794 9.91046 26.5776 10.6525 24.3347C10.6629 24.3064 10.6769 24.2913 10.6863 24.263C11.1313 22.6108 11.7732 21.0426 12.6071 19.5998C12.6071 19.5998 12.6071 19.5989 12.6071 19.597C13.6659 17.4523 12.1536 15.8435 11.9559 15.6482L10.4474 14.1309C10.4474 14.1309 10.4473 14.13 10.4445 14.1271C8.98941 12.6618 9.98635 11.3917 10.3321 11.0294L11.1182 10.2377C11.1182 10.2377 12.7767 8.46949 14.5326 10.2377C14.5354 10.2377 14.5354 10.2387 14.5373 10.2406L16.252 11.9673C16.5752 12.2759 17.8945 13.3562 19.7872 12.4306C19.7947 12.4278 19.7975 12.4278 19.8041 12.4249C21.0221 11.7305 22.332 11.1851 23.6953 10.7661C23.7319 10.751 23.7516 10.7331 23.7928 10.7161C25.9891 9.8471 26.3985 8.48364 26.4594 7.7788V5.20096C26.4716 4.76975 26.6356 3.07227 28.6042 3.07227H29.8354C29.8354 3.07227 32.0813 2.99678 32.0813 5.51517V7.46081C32.0935 8.01563 32.2856 9.86409 34.4032 10.6161C34.4069 10.6171 34.4069 10.6189 34.4125 10.6208C35.6943 10.9766 36.9171 11.4767 38.0771 12.0805L38.0893 12.0702C38.0893 12.0702 40.7315 13.7214 42.7264 11.7144L44.0606 10.3708C44.1225 10.3085 45.928 8.54781 47.2782 9.90749C47.2811 9.90844 47.2839 9.91032 47.2839 9.91315L48.3895 11.0237C48.3895 11.0237 49.7303 12.6674 48.0419 14.3687L46.5474 15.8737C46.5474 15.8737 44.9892 17.4815 46.1211 19.9178C46.1407 19.9603 46.1407 19.9858 46.1585 20.0273C46.8482 21.2926 47.3926 22.6466 47.7936 24.0648C47.7973 24.062 47.8123 24.0497 47.8123 24.0497C47.8123 24.0497 48.2958 26.4936 50.4602 26.4879L52.5609 26.4785H52.6172H52.7118C52.7727 26.4775 55.2773 26.437 55.2829 28.8195L55.2894 29.8206V29.8234V30.0697C55.2688 30.6594 54.9896 32.1333 52.6612 32.1418L50.6467 32.1484C49.0716 32.1635 48.2883 33.4628 47.9435 34.2894C47.8123 34.6507 47.5059 35.8227 48.6172 36.9238L48.903 37.2069C48.9086 37.2116 48.9123 37.2144 48.9161 37.2191C50.5764 39.0119 51.7617 36.5011 51.7617 36.5011C52.515 35.2405 53.616 34.9876 54.2053 34.947H57.2777C58.2119 34.947 58.969 34.1856 58.969 33.2439V25.3887C58.969 24.4498 58.2119 23.6855 57.2777 23.6855H54.3468C52.0484 23.6855 51.4684 21.5379 51.4684 21.5379C51.4684 21.5379 51.4534 21.5417 51.4487 21.5436C51.1067 20.5529 50.7179 19.5819 50.2522 18.6553C50.2522 18.6525 50.2522 18.6506 50.2494 18.6478C49.4745 16.9305 50.9278 15.467 51.0074 15.3906L52.8776 13.5034C53.5373 12.8382 53.5373 11.7607 52.8776 11.0945L47.3626 5.54065C46.7001 4.87637 45.6301 4.87732 44.9705 5.54159L43.6118 6.90788C41.4905 9.05733 39.5013 8.01941 39.5013 8.01941L39.4985 8.02507C38.7358 7.65708 37.9553 7.32494 37.1532 7.03715C37.1157 7.01922 37.0895 7.00318 37.0511 6.98714C35.2774 6.25587 35.0441 4.42535 35.0216 3.6837V1.70315C35.0216 0.762405 34.2636 0 33.3303 0H25.2114C24.2791 0 23.5201 0.762405 23.5201 1.70315V4.16492C23.5201 6.63047 21.4494 7.00413 21.4494 7.00413L21.4616 7.01639C20.5658 7.33815 19.6879 7.69765 18.8427 8.12037C18.8277 8.12603 18.8193 8.1232 18.8043 8.12886C17.1159 8.88183 16.1826 8.14396 15.9456 7.91278L15.8875 7.85428L15.879 7.8439H15.8781L13.5909 5.53593C12.9294 4.87166 11.8584 4.87166 11.1988 5.5331L5.67811 11.0851C5.01848 11.7512 5.0166 12.8278 5.67811 13.4931L7.51085 15.3406C7.51085 15.3406 9.09997 16.8833 8.31197 18.6157C8.31197 18.6185 8.31197 18.6185 8.31197 18.6185C7.85566 19.5215 7.47243 20.466 7.13324 21.4304C7.10982 21.4804 7.08733 21.5191 7.06391 21.5776C6.36117 23.3053 5.05595 23.6346 4.3579 23.6855H1.69125C0.757082 23.6855 0 24.4498 0 25.3887V33.2439C0 34.1856 0.757082 34.947 1.69125 34.947H4.72707C6.44456 34.947 6.89619 36.5426 6.89619 36.5426C6.89619 36.5426 6.90837 36.5134 6.91586 36.4992C7.26723 37.6003 7.66826 38.6788 8.16767 39.7026C8.16674 39.7026 8.15737 39.7073 8.15737 39.7073C8.15737 39.7073 9.23021 41.5388 8.02806 42.7494V42.7522L5.6678 45.1282C5.00817 45.7924 5.00817 46.8738 5.6678 47.5352L11.1838 53.0891C11.8453 53.7552 12.9144 53.7552 13.5741 53.0891L15.6973 50.9547L15.7019 50.9481L15.7966 50.8547C16.088 50.5754 17.1102 49.8158 19.0826 50.6358C19.1032 50.6462 19.1154 50.649 19.1341 50.6556C19.8865 51.0141 20.6605 51.3406 21.4531 51.6209L21.4438 51.6294C21.4438 51.6294 23.5211 52.2521 23.5211 54.3534V56.9313C23.5211 57.873 24.28 58.6344 25.2123 58.6344H33.3313C34.2645 58.6344 35.0225 57.873 35.0225 56.9313V54.1081C35.06 53.4854 35.3345 52.3097 36.7897 51.7332C36.8459 51.7096 36.8815 51.6897 36.9255 51.6699C37.4877 51.4727 38.0274 51.2321 38.5709 50.9981C39.8836 50.264 38.6664 48.7675 38.6664 48.7675L38.2382 48.2561Z" fill="#F5F5F5"/>
</svg>
