<svg width="60" height="60" viewBox="0 0 60 60" fill="none" xmlns="http://www.w3.org/2000/svg">
<path d="M9 9.5L27 1L48 7.5L52 33.5L25 37L9.5 28.5L9 9.5Z" fill="#F5F5F5"/>
<path d="M41.767 14.4455C42.762 14.4455 43.7721 14.0001 43.451 12.8494C43.1815 11.8849 42.7221 10.8384 41.6041 11.3587C40.8928 11.6892 39.885 12.5306 39.8018 13.365C39.7069 14.3119 41.1037 14.4455 41.767 14.4455Z" fill="#F7D056"/>
<path d="M40.9725 19.481C41.9885 20.0892 43.4955 19.8033 44.262 18.9349C44.4278 18.7467 44.5747 18.5202 44.7234 18.291C45.1116 17.6923 45.5117 17.0755 46.2905 17.0763C46.7646 17.0753 47.2201 17.261 47.5584 17.5931C47.896 17.9422 47.9272 18.2752 47.9639 18.6671L47.9683 18.7143C47.9788 18.825 47.9907 18.9406 48.0108 19.0626C48.2229 20.3576 49.6116 19.1365 49.9737 18.6349C50.208 18.308 50.5256 17.8228 50.419 17.3974C50.358 17.1511 50.1564 16.8949 49.9629 16.6489C49.8443 16.4981 49.7286 16.3512 49.6502 16.2126C49.502 15.953 49.3601 15.6829 49.2171 15.4106C48.7792 14.5766 48.3301 13.7213 47.6498 13.079C46.7815 12.2587 45.7139 12.3537 44.8901 13.2056C44.6925 13.4114 44.4855 13.6047 44.2801 13.7966C43.7837 14.2603 43.2959 14.7158 42.9694 15.3208C42.6436 15.922 42.2768 16.2091 41.617 16.365C41.5389 16.3834 41.4584 16.3993 41.3771 16.4153C41.0804 16.474 40.7734 16.5346 40.5342 16.7259C39.6858 17.3939 40.1686 18.9982 40.9725 19.481Z" fill="#F7D056"/>
<path fill-rule="evenodd" clip-rule="evenodd" d="M21.5725 29.6849L21.6385 29.7094C21.7931 29.7665 21.9512 29.8228 22.1194 29.8662C22.5309 29.9728 22.9028 29.9577 23.2856 29.9422L23.3741 29.9386C23.581 29.9306 23.7922 29.9251 24.0155 29.9412C25.0915 30.0175 25.9109 30.7308 26.7129 31.429C26.9948 31.6744 27.2747 31.918 27.5627 32.1314C28.1397 32.5585 28.8644 32.9366 29.6134 33.3273C31.3651 34.2411 33.2494 35.2241 33.687 37.0662C34.1112 38.8462 33.803 40.8982 32.7799 42.4193C32.1644 43.3337 31.3241 44.0322 30.4836 44.7309C29.8904 45.224 29.2971 45.7172 28.7827 46.2865C27.5241 47.681 26.5912 49.5033 26.3065 51.3665C26.2809 51.5352 26.2729 51.7589 26.264 52.0047C26.24 52.6709 26.2103 53.4987 25.8096 53.8275C25.5118 54.0724 24.9714 53.903 24.5052 53.7569C24.3201 53.6989 24.1468 53.6445 24.0049 53.6212C24.2098 53.5621 24.0066 53.4487 23.7473 53.304C23.5541 53.1963 23.3298 53.0711 23.2198 52.938C22.8997 52.5521 22.7578 51.9685 22.6352 51.4644L22.6272 51.4314C22.6085 51.3547 22.5902 51.28 22.5717 51.2083C22.1701 49.6178 21.8784 48.0015 21.6987 46.3708C21.6754 46.1687 21.656 45.965 21.6367 45.7612C21.5231 44.5677 21.4093 43.3714 20.5174 42.4615C20.1274 42.0589 19.6703 41.764 19.2194 41.4731C18.489 41.0019 17.7745 40.5409 17.3862 39.649C16.9816 38.7192 17.0363 37.6984 17.0909 36.6809C17.1529 35.5233 17.2148 34.3699 16.5998 33.3595C15.9829 32.3455 14.9963 31.9641 14.012 31.5836C12.9191 31.1611 11.8291 30.7398 11.2514 29.4548C10.8103 28.4793 10.2668 27.5829 9.72591 26.6907C8.98806 25.4736 8.25504 24.2645 7.7932 22.8736C7.7415 22.7172 7.63858 22.5207 7.53114 22.3155C7.34877 21.9673 7.15337 21.5942 7.17328 21.3501L10.103 18.9841C10.3801 19.374 10.5885 19.9518 10.803 20.5466C11.2778 21.8629 11.7824 23.2621 13.1287 22.89C13.3226 22.8365 13.5126 22.7833 13.7003 22.7307C14.6483 22.465 15.536 22.2162 16.5495 22.0451C16.6972 22.0199 16.8031 22.0069 16.8835 21.997C16.9902 21.9839 17.0521 21.9763 17.1073 21.953C17.1836 21.9209 17.2472 21.8588 17.3987 21.7111L17.4553 21.656C17.6326 21.4831 17.7814 21.2632 17.9308 21.0426C18.0658 20.8431 18.2014 20.6428 18.3588 20.4759C19.1252 19.6521 19.308 19.0521 19.2588 17.8802C19.2258 17.0794 18.7386 16.6803 18.2111 16.2482C17.9343 16.0214 17.6464 15.7856 17.4073 15.4779C16.9983 14.9551 16.7007 14.3542 16.5326 13.7121C16.3645 13.07 16.3296 12.4004 16.4299 11.7443L19.9233 7.8267C20.6662 8.24154 22.0537 9.87865 21.6354 10.7447C21.4954 11.0344 21.1907 11.2729 20.8896 11.5084C20.291 11.9769 19.7071 12.4337 20.4635 13.2595C21.3084 14.1818 22.9514 13.5044 23.7952 12.908C24.0566 12.7234 24.2876 12.464 24.5194 12.2038C25.0117 11.6509 25.5073 11.0945 26.3041 11.2451C27.2416 11.4232 28.2295 12.724 28.7651 13.4517C30.0472 15.1964 28.2193 15.681 26.5499 16.1236C25.8467 16.3101 25.1716 16.4891 24.769 16.7517L24.7383 16.7717C24.2119 17.1151 23.4297 17.6253 23.1412 18.1896C22.881 18.6967 22.9826 19.0181 23.1045 19.404C23.1644 19.5933 23.2291 19.7982 23.2584 20.0482C23.3994 21.2631 22.6998 21.7957 21.8368 22.4528L21.8347 22.4544L21.784 22.493L21.6694 22.5806C20.464 23.5103 20.5751 24.1029 20.7985 25.2946C20.8257 25.4398 20.8547 25.594 20.883 25.7587C21.0577 26.7712 20.8268 27.7697 19.6866 27.1451C19.4159 26.9959 19.2023 26.7818 18.989 26.5678C18.7228 26.301 18.457 26.0345 18.0811 25.8947C17.5666 25.699 16.9655 25.7599 16.4299 25.8162C15.1467 25.9509 13.9491 26.4419 14.31 27.956C14.5912 29.1337 15.8651 30.5798 17.1014 30.7462C17.8319 30.8448 18.3934 30.4807 18.9595 30.1137C19.4032 29.8261 19.8497 29.5366 20.3827 29.4665C20.456 29.4569 20.5272 29.4525 20.5966 29.4525L21.5725 29.6849ZM24.8838 42.608C24.4183 41.2035 23.5296 39.9775 22.3397 39.0982C22.2122 39.0017 22.0192 38.8951 21.8128 38.7811C21.4253 38.5672 20.9906 38.3271 20.8537 38.0787C20.6839 37.7788 20.7479 37.1835 20.7992 36.7072C20.8186 36.5264 20.8363 36.3627 20.8385 36.2388C20.8436 35.9819 20.8008 35.6583 20.7567 35.3239C20.688 34.8041 20.6159 34.258 20.7143 33.8951C20.7877 33.6258 20.7771 33.5255 20.7738 33.495C20.7731 33.4878 20.7739 33.4838 20.7739 33.4838C20.7739 33.4838 20.7773 33.4844 20.7815 33.4867C20.8046 33.4996 20.887 33.5455 21.1561 33.4861C21.4807 33.4134 22.8213 33.649 23.2256 33.7333C23.742 33.8408 24.072 34.1202 24.4446 34.4357C24.5354 34.5126 24.6288 34.5916 24.728 34.6708C26.0592 35.7384 27.5252 36.5646 29.017 37.3826C30.1725 38.0224 30.5123 38.8322 29.7741 40.1505C29.3191 40.9626 28.503 41.601 27.7109 42.2207C27.2789 42.5587 26.854 42.8911 26.4987 43.2431C26.4302 43.311 26.3424 43.4208 26.2438 43.544C25.9492 43.9122 25.5586 44.4005 25.3022 44.2486C25.1347 44.1492 25.0428 43.5488 24.9726 43.09C24.9402 42.8779 24.9123 42.6961 24.8838 42.608Z" fill="#4C58A2"/>
<path d="M28.0467 10.7728C29.0217 10.9497 30.0541 10.3802 30.2955 9.38295C30.439 8.80128 30.3055 8.18844 30.1733 7.58179C30.0895 7.19722 30.0062 6.81514 29.9944 6.44506C29.9944 6.41394 29.9983 6.35764 30.0032 6.28842C30.019 6.06311 30.0444 5.70095 29.9745 5.62475C29.9218 5.5666 29.569 5.60425 29.3727 5.6252C29.3158 5.63127 29.2721 5.63594 29.2526 5.63647C28.6174 5.65522 27.9838 5.69897 27.3518 5.76772C25.0477 6.01711 22.7912 6.59524 20.651 7.48451C20.8812 7.64369 21.159 7.72549 21.4285 7.80487C21.4923 7.82367 21.5557 7.84233 21.6178 7.86186C21.6894 7.9318 21.7605 8.00341 21.8317 8.07519C22.3131 8.56024 22.8027 9.05357 23.5245 9.10053C23.7888 9.11831 24.0482 9.08186 24.302 9.04617C24.8009 8.97603 25.2787 8.90886 25.7323 9.26225C25.9315 9.416 26.1162 9.58048 26.2984 9.74278C26.8106 10.199 27.3034 10.638 28.0467 10.7728Z" fill="#4C58A2"/>
<path d="M37.6022 24.1298C35.9838 25.6533 35.3006 27.3162 36.3483 29.4701C37.3561 31.5408 39.4643 32.6646 41.7389 32.5169C42.2202 32.4849 42.7055 32.3996 43.1702 32.318C44.863 32.0206 46.2813 31.7714 46.2307 34.3193C46.2073 35.4677 46.4475 36.2646 46.8002 37.3322C47.0576 38.1072 47.0986 38.8633 47.141 39.6457C47.1524 39.8571 47.164 40.0704 47.1799 40.2865C47.3182 42.1849 47.6674 44.313 48.6096 45.99L50.3674 43.5103C50.4358 43.4134 50.5279 43.3042 50.6251 43.1888C50.8361 42.9386 51.0718 42.6589 51.1455 42.4111C51.2694 41.9955 51.1548 41.3864 51.0471 40.8137C50.9887 40.5029 50.9323 40.2028 50.917 39.9501C50.9027 39.7132 50.8954 39.4752 50.8881 39.2369C50.8733 38.7527 50.8584 38.2671 50.7846 37.7857C50.7126 37.3169 50.545 36.8618 50.3782 36.4089C50.1868 35.8892 49.9964 35.3724 49.9526 34.8408C49.9202 34.4444 49.9103 34.0652 49.9007 33.6988C49.8679 32.4425 49.8389 31.3361 48.9242 30.2046C48.8584 30.1232 48.788 30.0416 48.7127 29.9599C47.3346 28.4658 45.3143 28.1072 43.3842 28.4107L43.3659 28.4136C42.3635 28.5706 38.506 29.1751 40.0678 26.9658C40.2398 26.7236 40.483 26.5056 40.7251 26.2886C40.9201 26.1138 41.1144 25.9396 41.2702 25.754C41.3938 25.6066 41.5108 25.4087 41.6301 25.2069C41.8038 24.9133 41.9824 24.6113 42.1936 24.4439C42.5498 24.1615 44.1858 23.8369 44.6545 23.981C44.9523 24.0726 45.2581 24.3788 45.5458 24.667C45.711 24.8324 45.8703 24.9919 46.0186 25.1013C46.7699 25.6672 47.6467 26.0435 48.5745 26.1982C48.8887 26.2442 49.2702 26.2453 49.6803 26.2019C51.3592 26.024 53.517 25.0991 53.4963 23.449C53.4931 22.7734 53.0616 21.9156 52.6744 21.1462C52.4975 20.7946 52.3299 20.4613 52.2166 20.1724C51.4187 20.1774 50.9923 20.8044 50.5872 21.4003C50.0368 22.2098 49.5255 22.9618 48.1748 22.0181C47.8777 21.8109 47.6196 21.5717 47.365 21.3357C46.8736 20.8803 46.3954 20.4371 45.6752 20.2603C44.8498 20.0577 44.0068 20.2123 43.1842 20.3632C43.055 20.3869 42.9263 20.4105 42.7983 20.4326C42.6456 20.4589 42.4888 20.4832 42.3299 20.5079C41.3732 20.6562 40.3387 20.8166 39.6413 21.513C39.2643 21.8877 38.9725 22.3238 38.6786 22.763C38.3594 23.2399 38.0378 23.7204 37.6022 24.1298Z" fill="#F7D056"/>
<path d="M54.375 30C54.375 16.5387 43.4613 5.625 30 5.625C16.5387 5.625 5.625 16.5387 5.625 30C5.625 43.4613 16.5387 54.375 30 54.375C43.4613 54.375 54.375 43.4613 54.375 30Z" stroke="#4C58A2" stroke-width="3" stroke-miterlimit="10"/>
</svg>
