<svg width="60" height="60" viewBox="0 0 60 60" fill="none" xmlns="http://www.w3.org/2000/svg">
<path d="M24.9172 25.1248L41.2671 4.32758C42.2186 3.11723 43.7769 2.61833 45.2197 3.06229L53.1566 5.50421C54.472 5.90892 55.3112 7.24361 55.1389 8.65689L51.0863 41.9012C50.8895 43.5156 49.9255 44.9195 48.52 45.639L21.4431 59.4991C19.2856 60.6034 16.6733 59.8241 15.4094 57.6992L0.42105 32.5011C-0.673114 30.6616 0.480325 28.2697 2.55424 28.0774L22.9972 26.1821C23.7482 26.1124 24.4404 25.7313 24.9172 25.1248Z" fill="#4C58A2"/>
<path d="M9.19531 14.5156V32.6608" stroke="#F5F5F5" stroke-width="3" stroke-linecap="round" stroke-linejoin="round"/>
<path d="M40.3347 18.6445C41.9991 20.4622 43.0988 22.7248 43.4997 25.1566C43.9006 27.5884 43.5853 30.0843 42.5923 32.34C41.5993 34.5957 39.9716 36.5138 37.9074 37.8605C35.8432 39.2071 33.4318 39.9241 30.9672 39.9241C28.5026 39.9241 26.0913 39.2071 24.0271 37.8605C21.9629 36.5138 20.3351 34.5957 19.3422 32.34C18.3492 30.0843 18.0339 27.5884 18.4348 25.1566C18.8356 22.7248 19.9353 20.4622 21.5998 18.6445" stroke="#FFE500" stroke-width="3" stroke-linecap="round" stroke-linejoin="round"/>
<path d="M14.2305 48.9908C16.046 46.2061 18.5276 43.9183 21.4505 42.3348C24.3734 40.7512 27.6451 39.9219 30.9694 39.9219C34.2937 39.9219 37.5654 40.7512 40.4883 42.3348C43.4111 43.9183 45.8927 46.2061 47.7083 48.9908" stroke="#FFE500" stroke-width="3" stroke-linecap="round" stroke-linejoin="round"/>
<path d="M52.7437 14.5159L30.9695 21.7739L9.19531 14.5159L30.9695 7.25781L52.7437 14.5159Z" stroke="#F5F5F5" stroke-width="3" stroke-linecap="round" stroke-linejoin="round"/>
</svg>
