<svg width="60" height="60" viewBox="0 0 60 60" fill="none" xmlns="http://www.w3.org/2000/svg">
<path d="M27.103 23.3524L44.887 1.49771C45.922 0.225817 47.617 -0.29846 49.1863 0.168074L57.8194 2.73416C59.2502 3.15945 60.1631 4.56201 59.9757 6.04715L55.5675 40.9819C55.3534 42.6784 54.305 44.1536 52.7761 44.9097L23.324 59.4745C20.9773 60.635 18.1359 59.8161 16.7611 57.5831L0.457984 31.1038C-0.732159 29.1708 0.522458 26.6572 2.77829 26.4552L25.0145 24.4635C25.8313 24.3903 26.5843 23.9897 27.103 23.3524Z" fill="#4C58A2"/>
<path d="M48.6172 5.7717C47.0986 4.31734 45.0647 3.46295 42.9191 3.37808C40.7734 3.29321 38.6729 3.98407 37.0343 5.31356C35.3957 6.64305 34.3388 8.51398 34.0734 10.5551C33.808 12.5962 34.3535 14.6582 35.6016 16.3321L41.1961 23.8336C41.3519 24.0424 41.5574 24.2127 41.7957 24.3301C42.0339 24.4476 42.298 24.5089 42.566 24.5089C42.834 24.5089 43.0981 24.4476 43.3363 24.3301C43.5746 24.2127 43.7801 24.0424 43.9359 23.8336L49.5304 16.3321C50.713 14.7549 51.2706 12.826 51.1033 10.8909C50.9359 8.95577 50.0546 7.14098 48.6172 5.7717ZM42.566 14.2551C42.0111 14.2551 41.4687 14.0975 41.0074 13.8022C40.546 13.5069 40.1864 13.0873 39.9741 12.5963C39.7617 12.1053 39.7062 11.565 39.8144 11.0437C39.9227 10.5225 40.1899 10.0437 40.5822 9.66789C40.9746 9.29209 41.4745 9.03617 42.0187 8.93248C42.5629 8.8288 43.127 8.88202 43.6396 9.0854C44.1523 9.28878 44.5904 9.63319 44.8987 10.0751C45.207 10.517 45.3715 11.0365 45.3715 11.568C45.3715 12.2806 45.0759 12.9641 44.5497 13.468C44.0236 13.9719 43.3101 14.255 42.566 14.2551Z" fill="#F5F5F5"/>
<path d="M42.5663 28.4493C42.3452 28.4493 42.1264 28.491 41.9221 28.572C41.7179 28.653 41.5324 28.7718 41.3761 28.9215C41.2198 29.0712 41.0958 29.2489 41.0112 29.4445C40.9267 29.6401 40.8831 29.8497 40.8832 30.0614V33.499C40.8832 35.0104 40.2563 36.4599 39.1405 37.5287C38.0247 38.5974 36.5114 39.1978 34.9334 39.1978C33.3554 39.1978 31.842 38.5974 30.7262 37.5287C29.6104 36.4599 28.9836 35.0104 28.9836 33.499V18.8774C28.9848 17.7049 28.7448 16.5436 28.2772 15.4599C27.8096 14.3763 27.1236 13.3916 26.2584 12.562C25.3932 11.7325 24.3658 11.0744 23.2349 10.6254C22.104 10.1764 20.8918 9.94531 19.6676 9.94531C18.4434 9.94531 17.2312 10.1764 16.1003 10.6254C14.9694 11.0744 13.942 11.7325 13.0768 12.562C12.2116 13.3916 11.5256 14.3763 11.058 15.4599C10.5903 16.5436 10.3503 17.7049 10.3516 18.8774V26.4786C10.3526 26.9055 10.5304 27.3145 10.846 27.616C11.1615 27.9175 11.589 28.0868 12.0347 28.0868C12.4804 28.0868 12.9079 27.9175 13.2234 27.616C13.5389 27.3145 13.7167 26.9055 13.7178 26.4786V18.8774C13.7168 18.1284 13.8699 17.3866 14.1685 16.6943C14.467 16.0021 14.9051 15.373 15.4577 14.843C16.0103 14.3131 16.6666 13.8927 17.3889 13.6058C18.1113 13.319 18.8856 13.1713 19.6676 13.1713C20.4496 13.1713 21.2239 13.319 21.9462 13.6058C22.6686 13.8927 23.3248 14.3131 23.8774 14.843C24.43 15.373 24.8681 16.0021 25.1667 16.6943C25.4652 17.3866 25.6184 18.1284 25.6174 18.8774V33.499C25.6174 35.8655 26.5989 38.1351 28.346 39.8085C30.093 41.4819 32.4626 42.422 34.9334 42.422C37.4041 42.422 39.7737 41.4819 41.5208 39.8085C43.2679 38.1351 44.2494 35.8655 44.2494 33.499V30.0614C44.2494 29.8497 44.2059 29.6401 44.1213 29.4445C44.0367 29.2489 43.9128 29.0712 43.7565 28.9215C43.6002 28.7718 43.4146 28.653 43.2104 28.572C43.0062 28.491 42.7873 28.4493 42.5663 28.4493Z" fill="#F5F5F5"/>
<path d="M12.0331 32.0352C10.9604 32.0352 9.91178 32.3398 9.01985 32.9107C8.12792 33.4815 7.43274 34.2928 7.02223 35.2421C6.61172 36.1913 6.50432 37.2358 6.71359 38.2435C6.92287 39.2512 7.43944 40.1769 8.19796 40.9034C8.95649 41.6299 9.92291 42.1247 10.975 42.3251C12.0271 42.5256 13.1177 42.4227 14.1087 42.0295C15.0998 41.6363 15.9469 40.9705 16.5428 40.1162C17.1388 39.2619 17.4569 38.2575 17.4569 37.2301C17.4553 35.8527 16.8834 34.5323 15.8666 33.5584C14.8498 32.5844 13.4711 32.0366 12.0331 32.0352Z" fill="#FFE600"/>
</svg>
