<svg width="60" height="60" viewBox="0 0 60 60" fill="none" xmlns="http://www.w3.org/2000/svg">
<g clip-path="url(#clip0_794_5200)">
<path d="M34.7555 18.4719C42.2542 25.6832 46.9452 49.2791 40.001 56.5C33.0568 63.7209 18.1897 56.7457 10.691 49.5344C3.19234 42.3231 -2.03497 38.6113 4.90925 31.3903C11.8535 24.1694 27.2569 11.2606 34.7555 18.4719Z" fill="#F5F5F5"/>
<path d="M23.3972 19.0502C25.0772 19.0502 26.4272 17.7002 26.4272 16.0202C26.4272 14.3402 25.0772 12.9902 23.3972 12.9902C21.7172 12.9902 20.3672 14.3402 20.3672 16.0202C20.3672 17.7002 21.7172 19.0502 23.3972 19.0502Z" fill="#F7D056"/>
<path fill-rule="evenodd" clip-rule="evenodd" d="M17.909 32.9093C17.4871 33.3313 17.25 33.9036 17.25 34.5003C17.25 35.0971 17.4871 35.6693 17.909 36.0913C18.331 36.5133 18.9033 36.7503 19.5 36.7503H40.5C41.0967 36.7503 41.669 36.5133 42.091 36.0913C42.5129 35.6693 42.75 35.0971 42.75 34.5003C42.75 33.9036 42.5129 33.3313 42.091 32.9093C41.669 32.4874 41.0967 32.2503 40.5 32.2503H19.5C18.9033 32.2503 18.331 32.4874 17.909 32.9093ZM17.909 41.9093C17.4871 42.3313 17.25 42.9036 17.25 43.5003C17.25 44.0971 17.4871 44.6693 17.909 45.0913C18.331 45.5133 18.9033 45.7503 19.5 45.7503H40.5C41.0967 45.7503 41.669 45.5133 42.091 45.0913C42.5129 44.6693 42.75 44.0971 42.75 43.5003C42.75 42.9036 42.5129 42.3313 42.091 41.9093C41.669 41.4874 41.0967 41.2503 40.5 41.2503H19.5C18.9033 41.2503 18.331 41.4874 17.909 41.9093Z" fill="#4C58A2"/>
<path d="M29.49 25.6503C29.49 22.4103 26.76 20.0703 23.4 20.0703C20.04 20.0703 17.31 22.4103 17.31 25.6503V27.1803C17.31 27.4503 17.43 27.7203 17.61 27.9003C17.79 28.0803 18.06 28.2003 18.33 28.2003H28.47C28.74 28.2003 29.01 28.0803 29.19 27.9003C29.37 27.7203 29.49 27.4503 29.49 27.1803V25.6503Z" fill="#F7D056"/>
<path fill-rule="evenodd" clip-rule="evenodd" d="M7.5 7.5C7.5 4.194 10.194 1.5 13.5 1.5H33.57C35.256 1.5 36.846 2.214 37.965 3.393L37.983 3.414L50.919 17.52C51.996 18.669 52.5 20.172 52.5 21.6V52.5C52.5 55.806 49.806 58.5 46.5 58.5H13.5C10.194 58.5 7.5 55.806 7.5 52.5V7.5ZM33.567 7.5H13.5V52.5H46.5V21.576L33.612 7.521L33.603 7.518C33.5921 7.51006 33.5799 7.50398 33.567 7.5Z" fill="#4C58A2"/>
<path fill-rule="evenodd" clip-rule="evenodd" d="M33.5703 1.5C34.366 1.5 35.129 1.81607 35.6916 2.37868C36.2542 2.94129 36.5703 3.70435 36.5703 4.5V18.6H49.5003C49.8943 18.6 50.2844 18.6776 50.6484 18.8284C51.0123 18.9791 51.3431 19.2001 51.6216 19.4787C51.9002 19.7573 52.1212 20.088 52.272 20.452C52.4227 20.8159 52.5003 21.206 52.5003 21.6C52.5003 21.994 52.4227 22.3841 52.272 22.7481C52.1212 23.112 51.9002 23.4427 51.6216 23.7213C51.3431 23.9999 51.0123 24.2209 50.6484 24.3716C50.2844 24.5224 49.8943 24.6 49.5003 24.6H33.5703C32.7747 24.6 32.0116 24.2839 31.449 23.7213C30.8864 23.1587 30.5703 22.3957 30.5703 21.6V4.5C30.5703 3.70435 30.8864 2.94129 31.449 2.37868C32.0116 1.81607 32.7747 1.5 33.5703 1.5Z" fill="#4C58A2"/>
</g>
<defs>
<clipPath id="clip0_794_5200">
<rect width="60" height="60" fill="white"/>
</clipPath>
</defs>
</svg>
