<svg width="18" height="18" viewBox="0 0 18 18" fill="none" xmlns="http://www.w3.org/2000/svg">
<path d="M12.7774 0H5.23161C1.95397 0 0 1.953 0 5.229V12.762C0 16.047 1.95397 18 5.23161 18H12.7684C16.046 18 18 16.047 18 12.771V5.229C18.009 1.953 16.055 0 12.7774 0ZM8.04101 13.635C8.04101 13.725 8.023 13.806 7.98698 13.896C7.91494 14.058 7.78888 14.193 7.6178 14.265C7.53554 14.3014 7.4466 14.3201 7.35667 14.3201C7.26673 14.3201 7.17779 14.3014 7.09554 14.265C7.01513 14.2309 6.94183 14.1821 6.87943 14.121L4.14206 11.385C4.01647 11.258 3.94603 11.0866 3.94603 10.908C3.94603 10.7294 4.01647 10.558 4.14206 10.431C4.40319 10.17 4.83541 10.17 5.09654 10.431L6.68133 12.015V4.365C6.68133 3.996 6.98748 3.69 7.35667 3.69C7.72585 3.69 8.032 3.996 8.032 4.365V13.635H8.04101ZM13.8579 7.578C13.7228 7.713 13.5518 7.776 13.3807 7.776C13.2096 7.776 13.0385 7.713 12.9034 7.578L11.3186 5.994V13.644C11.3186 14.013 11.0125 14.319 10.6433 14.319C10.2741 14.319 9.96797 14.013 9.96797 13.644V4.365C9.96797 4.275 9.98598 4.194 10.022 4.104C10.094 3.942 10.2201 3.807 10.3912 3.735C10.5533 3.663 10.7424 3.663 10.9044 3.735C10.9855 3.771 11.0575 3.816 11.1205 3.879L13.8579 6.615C14.119 6.885 14.119 7.308 13.8579 7.578Z" fill="#F5F5F5"/>
</svg>
