<svg width="20" height="20" viewBox="0 0 20 20" fill="none" xmlns="http://www.w3.org/2000/svg">
<g clip-path="url(#clip0_794_5188)">
<path d="M7.02337 0C4.40956 0 2.28459 2.13011 2.28459 4.75024C2.28459 7.32037 4.28984 9.40047 6.90366 9.49047C6.98347 9.48047 7.06328 9.48047 7.12314 9.49047H7.19297C8.41942 9.44945 9.58189 8.93192 10.4346 8.04731C11.2873 7.16269 11.7634 5.98034 11.7622 4.75024C11.7622 2.13011 9.63719 0 7.02337 0ZM12.0914 12.1496C9.30796 10.2895 4.76871 10.2895 1.96535 12.1496C0.698347 12.9996 0 14.1497 0 15.3798C0 16.6098 0.698347 17.7499 1.95537 18.5899C3.35206 19.53 5.18772 20 7.02337 20C8.85903 20 10.6947 19.53 12.0914 18.5899C13.3484 17.7399 14.0467 16.5998 14.0467 15.3598C14.0368 14.1297 13.3484 12.9896 12.0914 12.1496ZM17.9874 5.33827C18.147 7.27836 16.7703 8.97845 14.8648 9.20846H14.8149C14.7551 9.20846 14.6952 9.20846 14.6453 9.22846C13.6776 9.27846 12.7897 8.96845 12.1213 8.39842C13.1489 7.47837 13.7375 6.0983 13.6178 4.59823C13.5493 3.81819 13.285 3.06821 12.8496 2.41812C13.3723 2.16319 13.9491 2.03957 14.5301 2.05792C15.1112 2.07628 15.6791 2.23606 16.1848 2.52348C16.6905 2.8109 17.1188 3.21733 17.4329 3.70771C17.7469 4.1981 17.9372 4.7577 17.9874 5.33827Z" fill="#4C58A2"/>
<path d="M19.9891 14.9479C19.9092 15.8841 19.2901 16.6948 18.2515 17.2449C17.2528 17.7758 15.9946 18.0267 14.7463 17.9978C15.4653 17.3704 15.8847 16.5886 15.9646 15.7586C16.0645 14.5618 15.4753 13.4133 14.2969 12.4964C13.6278 11.9848 12.8488 11.5795 12 11.2803C14.207 10.6626 16.9832 11.0776 18.6909 12.4095C19.6096 13.1237 20.079 14.0213 19.9891 14.9479Z" fill="#4C58A2"/>
</g>
<defs>
<clipPath id="clip0_794_5188">
<rect width="20" height="20" fill="white"/>
</clipPath>
</defs>
</svg>
