<svg width="20" height="20" viewBox="0 0 20 20" fill="none" xmlns="http://www.w3.org/2000/svg">
<path d="M7.6224 6.24023C7.15573 6.24023 6.78906 6.61523 6.78906 7.07357C6.78906 7.5319 7.16406 7.9069 7.6224 7.9069C8.08073 7.9069 8.45573 7.5319 8.45573 7.07357C8.45573 6.61523 8.08073 6.24023 7.6224 6.24023Z" fill="#4C58A2"/>
<path d="M17.8846 4.20033C17.1846 2.57533 15.643 1.66699 13.493 1.66699H6.50964C3.83464 1.66699 1.66797 3.83366 1.66797 6.50866V13.492C1.66797 15.642 2.5763 17.1837 4.2013 17.8837C4.35964 17.9503 4.54297 17.9087 4.65964 17.792L17.793 4.65866C17.918 4.53366 17.9596 4.35033 17.8846 4.20033ZM8.7763 10.2003C8.4513 10.517 8.0263 10.667 7.6013 10.667C7.1763 10.667 6.7513 10.5087 6.4263 10.2003C5.5763 9.40033 4.64297 8.12533 5.0013 6.60866C5.31797 5.23366 6.53464 4.61699 7.6013 4.61699C8.66797 4.61699 9.88464 5.23366 10.2013 6.61699C10.5513 8.12533 9.61797 9.40033 8.7763 10.2003ZM16.2255 17.1087C16.4088 17.292 16.3838 17.592 16.1588 17.717C15.4255 18.1253 14.5338 18.3337 13.4921 18.3337H6.5088C6.26714 18.3337 6.16714 18.0503 6.3338 17.8837L11.3671 12.8503C11.5338 12.6837 11.7921 12.6837 11.9588 12.8503L16.2255 17.1087ZM18.3363 6.50783V13.4912C18.3363 14.5328 18.128 15.4328 17.7196 16.1578C17.5946 16.3828 17.2946 16.3995 17.1113 16.2245L12.8446 11.9578C12.678 11.7912 12.678 11.5328 12.8446 11.3662L17.878 6.33283C18.053 6.16616 18.3363 6.26616 18.3363 6.50783Z" fill="#4C58A2"/>
</svg>
