<svg width="30" height="30" viewBox="0 0 30 30" fill="none" xmlns="http://www.w3.org/2000/svg">
<rect width="30" height="30" rx="8" fill="#1B1839"/>
<path d="M15.0008 14.9998C16.1059 14.9998 17.1657 14.5609 17.9471 13.7794C18.7285 12.998 19.1674 11.9382 19.1674 10.8332C19.1674 9.7281 18.7285 8.66829 17.9471 7.88689C17.1657 7.10549 16.1059 6.6665 15.0008 6.6665C13.8957 6.6665 12.8359 7.10549 12.0545 7.88689C11.2731 8.66829 10.8341 9.7281 10.8341 10.8332C10.8341 11.9382 11.2731 12.998 12.0545 13.7794C12.8359 14.5609 13.8957 14.9998 15.0008 14.9998ZM15.0008 17.0832C10.8258 17.0832 7.42578 19.8832 7.42578 23.3332C7.42578 23.5665 7.60911 23.7498 7.84245 23.7498H22.1591C22.3924 23.7498 22.5758 23.5665 22.5758 23.3332C22.5758 19.8832 19.1758 17.0832 15.0008 17.0832Z" fill="#F5F5F5"/>
</svg>
