<svg aria-hidden="true" style="position: absolute; width: 0; height: 0; overflow: hidden;" version="1.1" xmlns="http://www.w3.org/2000/svg" xmlns:xlink="http://www.w3.org/1999/xlink">
<defs>
<symbol id="icon-filter-icon" viewBox="0 0 32 32">
<path fill="#f5f5f5" style="fill: var(--color1, #f5f5f5)" d="M27.628 24.32l-1.253-1.253c0.653-0.987 1.040-2.173 1.040-3.453 0-3.467-2.813-6.28-6.28-6.28s-6.28 2.813-6.28 6.28 2.813 6.28 6.28 6.28c1.28 0 2.453-0.387 3.453-1.040l1.253 1.253c0.253 0.253 0.573 0.373 0.907 0.373s0.653-0.12 0.907-0.373c0.467-0.48 0.467-1.28-0.027-1.787z"></path>
<path fill="#f5f5f5" style="fill: var(--color1, #f5f5f5)" d="M26.109 5.36v2.96c0 1.080-0.667 2.427-1.333 3.107l-0.24 0.213c-0.187 0.173-0.467 0.213-0.707 0.133-0.267-0.093-0.533-0.16-0.8-0.227-0.587-0.147-1.213-0.213-1.853-0.213-4.6 0-8.333 3.733-8.333 8.333 0 1.52 0.413 3.013 1.2 4.293 0.667 1.12 1.6 2.053 2.613 2.68 0.307 0.2 0.427 0.627 0.16 0.867-0.093 0.080-0.187 0.147-0.28 0.213l-1.867 1.213c-1.733 1.080-4.12-0.133-4.12-2.293v-7.133c0-0.947-0.533-2.16-1.067-2.827l-5.053-5.387c-0.667-0.68-1.2-1.893-1.2-2.693v-3.107c0-1.613 1.2-2.827 2.653-2.827h17.573c1.453 0 2.653 1.213 2.653 2.693z"></path>
</symbol>
<symbol id="icon-top-rated-icon" viewBox="0 0 32 32">
<path fill="#f5f5f5" style="fill: var(--color1, #f5f5f5)" d="M30.844 26.558l-2.641 0.629c-0.592 0.145-1.056 0.597-1.184 1.193l-0.56 2.37c-0.304 1.29-1.937 1.693-2.785 0.677l-4.785-5.547c-0.089-0.103-0.151-0.228-0.179-0.362s-0.022-0.273 0.018-0.404c0.040-0.131 0.113-0.249 0.211-0.344s0.218-0.163 0.35-0.197c2.841-0.696 5.383-2.296 7.25-4.563 0.304-0.371 0.848-0.419 1.184-0.081l3.553 3.58c1.216 1.225 0.784 2.757-0.432 3.047zM1.156 26.558l2.641 0.629c0.592 0.145 1.056 0.597 1.184 1.193l0.56 2.37c0.304 1.29 1.936 1.693 2.785 0.677l4.785-5.547c0.384-0.452 0.176-1.161-0.4-1.306-2.841-0.696-5.383-2.296-7.25-4.563-0.069-0.089-0.156-0.162-0.255-0.214s-0.208-0.084-0.319-0.092c-0.112-0.007-0.224 0.009-0.329 0.047s-0.201 0.099-0.281 0.178l-3.553 3.58c-1.216 1.225-0.784 2.757 0.432 3.047zM16.040 0c-6.193 0-11.203 5.047-11.203 11.287 0 2.338 0.688 4.483 1.872 6.273 0.868 1.304 1.997 2.411 3.314 3.25s2.794 1.39 4.336 1.62c0.544 0.097 1.104 0.145 1.68 0.145s1.136-0.048 1.68-0.145c3.185-0.468 5.921-2.29 7.65-4.87 1.228-1.857 1.88-4.041 1.872-6.273 0-6.24-5.009-11.287-11.203-11.287zM20.937 10.933l-1.328 1.338c-0.224 0.226-0.352 0.661-0.272 0.984l0.384 1.661c0.304 1.306-0.384 1.822-1.536 1.129l-1.6-0.951c-0.163-0.087-0.344-0.133-0.528-0.133s-0.366 0.046-0.528 0.133l-1.6 0.951c-1.152 0.677-1.84 0.177-1.536-1.129l0.384-1.661c0.064-0.306-0.048-0.758-0.272-0.984l-1.36-1.338c-0.784-0.79-0.528-1.58 0.56-1.758l1.712-0.29c0.288-0.048 0.624-0.306 0.752-0.564l0.944-1.903c0.512-1.032 1.344-1.032 1.856 0l0.944 1.903c0.128 0.258 0.464 0.516 0.768 0.564l1.712 0.29c1.072 0.177 1.328 0.967 0.544 1.758z"></path>
</symbol>
<symbol id="icon-newest-icon" viewBox="0 0 32 32">
<path fill="#f5f5f5" style="fill: var(--color1, #f5f5f5)" d="M22.715 0h-13.415c-5.827 0-9.301 3.472-9.301 9.296v13.392c0 5.84 3.474 9.312 9.301 9.312h13.399c5.827 0 9.301-3.472 9.301-9.296v-13.408c0.016-5.824-3.458-9.296-9.285-9.296zM14.295 24.24c0 0.16-0.032 0.304-0.096 0.464-0.128 0.288-0.352 0.528-0.656 0.656-0.146 0.065-0.304 0.098-0.464 0.098s-0.318-0.033-0.464-0.098c-0.143-0.061-0.273-0.147-0.384-0.256l-4.866-4.864c-0.223-0.226-0.348-0.53-0.348-0.848s0.125-0.622 0.348-0.848c0.464-0.464 1.233-0.464 1.697 0l2.817 2.816v-13.6c0-0.656 0.544-1.2 1.201-1.2s1.201 0.544 1.201 1.2v16.48h0.016zM24.636 13.472c-0.24 0.24-0.544 0.352-0.848 0.352s-0.608-0.112-0.849-0.352l-2.817-2.816v13.6c0 0.656-0.544 1.2-1.201 1.2s-1.201-0.544-1.201-1.2v-16.496c0-0.16 0.032-0.304 0.096-0.464 0.128-0.288 0.352-0.528 0.656-0.656 0.288-0.128 0.624-0.128 0.912 0 0.144 0.064 0.272 0.144 0.384 0.256l4.866 4.864c0.464 0.48 0.464 1.232 0 1.712v0z"></path>
</symbol>
<symbol id="icon-youtube-1" viewBox="0 0 32 32">
<path d="M0 0h32v32h-32v-32z"></path>
</symbol>
<symbol id="icon-tik-tok-1" viewBox="0 0 32 32">
<path d="M0 0h32v32h-32v-32z"></path>
</symbol>
<symbol id="icon-instagram-1" viewBox="0 0 32 32">
<path d="M0 0h32v32h-32v-32z"></path>
</symbol>
<symbol id="icon-1" viewBox="0 0 32 32">
<path d="M0 0h32v32h-32v-32z"></path>
</symbol>
<symbol id="icon-symbol-defs" viewBox="0 0 32 32">
<path d="M0 0h32v32h-32v-32z"></path>
</symbol>
<symbol id="icon-Sign-up" viewBox="0 0 32 32">
<path fill="#1b1839" style="fill: var(--color2, #1b1839)" d="M8.533 0h14.933c4.713 0 8.533 3.821 8.533 8.533v14.933c0 4.713-3.82 8.533-8.533 8.533h-14.933c-4.713 0-8.533-3.82-8.533-8.533v-14.933c0-4.713 3.821-8.533 8.533-8.533z"></path>
<path fill="#f5f5f5" style="fill: var(--color1, #f5f5f5)" d="M16.001 16c1.179 0 2.309-0.468 3.143-1.302s1.302-1.964 1.302-3.143c0-1.179-0.468-2.309-1.302-3.143s-1.964-1.302-3.143-1.302c-1.179 0-2.309 0.468-3.143 1.302s-1.302 1.964-1.302 3.143c0 1.179 0.468 2.309 1.302 3.143s1.964 1.302 3.143 1.302zM16.001 18.222c-4.453 0-8.080 2.987-8.080 6.667 0 0.249 0.196 0.444 0.444 0.444h15.271c0.249 0 0.444-0.196 0.444-0.444 0-3.68-3.627-6.667-8.080-6.667z"></path>
</symbol>
<symbol id="icon-Burger" viewBox="0 0 32 32">
<path fill="none" stroke="#f5f5f5" style="stroke: var(--color1, #f5f5f5)" stroke-linejoin="miter" stroke-linecap="round" stroke-miterlimit="4" stroke-width="3.5556" d="M30.222 6.667h-28.444"></path>
<path fill="none" stroke="#f5f5f5" style="stroke: var(--color1, #f5f5f5)" stroke-linejoin="miter" stroke-linecap="round" stroke-miterlimit="4" stroke-width="3.5556" d="M30.222 15.556h-28.444"></path>
<path fill="none" stroke="#f5f5f5" style="stroke: var(--color1, #f5f5f5)" stroke-linejoin="miter" stroke-linecap="round" stroke-miterlimit="4" stroke-width="4.4444" d="M29.778 24.889h-16"></path>
</symbol>
<symbol id="icon-Arrow_right" viewBox="0 0 32 32">
<path fill="#cdcdcd" style="fill: var(--color3, #cdcdcd)" d="M11.894 2.935c-0.561-0.545-0.562-1.445-0.002-1.991v0c0.539-0.525 1.398-0.526 1.938-0.002l13.532 13.145c1.078 1.047 1.078 2.778 0 3.826l-13.537 13.15c-0.537 0.522-1.393 0.522-1.93 0.001v0c-0.561-0.544-0.562-1.444-0.001-1.989l11.481-11.162c1.077-1.047 1.077-2.778-0.001-3.825l-11.479-11.153z"></path>
<path fill="#f5f5f5" style="fill: var(--color1, #f5f5f5)" d="M3.691 2.935c-0.561-0.545-0.562-1.445-0.002-1.991v0c0.539-0.525 1.398-0.526 1.938-0.002l13.532 13.145c1.078 1.047 1.078 2.778 0 3.826l-13.537 13.15c-0.537 0.522-1.393 0.522-1.93 0.001v0c-0.561-0.544-0.562-1.444-0.001-1.989l11.481-11.162c1.077-1.047 1.077-2.778-0.001-3.825l-11.479-11.153z"></path>
</symbol>
<symbol id="icon-Arrow_left" viewBox="0 0 32 32">
<path fill="#cdcdcd" style="fill: var(--color3, #cdcdcd)" d="M20.106 29.065c0.561 0.545 0.562 1.445 0.002 1.991v0c-0.539 0.525-1.398 0.526-1.938 0.002l-13.532-13.145c-1.078-1.047-1.078-2.778 0-3.826l13.537-13.15c0.537-0.522 1.393-0.522 1.93-0.001v0c0.561 0.544 0.562 1.444 0.001 1.989l-11.481 11.162c-1.077 1.047-1.077 2.778 0.001 3.825l11.479 11.153z"></path>
<path fill="#f5f5f5" style="fill: var(--color1, #f5f5f5)" d="M28.309 29.065c0.561 0.545 0.562 1.445 0.001 1.991v0c-0.539 0.525-1.398 0.526-1.938 0.002l-13.532-13.145c-1.078-1.047-1.078-2.778 0-3.826l13.537-13.15c0.537-0.522 1.393-0.522 1.931-0.001v0c0.561 0.544 0.562 1.444 0.001 1.989l-11.481 11.162c-1.077 1.047-1.077 2.778 0.001 3.825l11.479 11.153z"></path>
</symbol>
<symbol id="icon-Arrow_up" viewBox="0 0 32 32">
<path fill="#cdcdcd" style="fill: var(--color3, #cdcdcd)" d="M2.973 20.228c-0.559 0.598-1.507 0.599-2.067 0.002-0.51-0.544-0.51-1.39-0.002-1.934l13.537-14.493c0.843-0.903 2.275-0.903 3.118 0l13.541 14.498c0.507 0.542 0.507 1.384 0.001 1.927-0.558 0.598-1.506 0.599-2.064 0.001l-11.478-12.278c-0.843-0.902-2.274-0.902-3.117 0.001l-11.469 12.277z"></path>
<path fill="#f5f5f5" style="fill: var(--color1, #f5f5f5)" d="M2.973 28.761c-0.559 0.598-1.507 0.599-2.067 0.002-0.51-0.544-0.51-1.39-0.002-1.934l13.537-14.493c0.843-0.903 2.275-0.903 3.118 0l13.541 14.498c0.507 0.542 0.507 1.384 0.001 1.927-0.558 0.598-1.506 0.599-2.064 0.001l-11.478-12.278c-0.843-0.902-2.274-0.902-3.117 0.001l-11.469 12.277z"></path>
</symbol>
<symbol id="icon-Arrow_down" viewBox="0 0 32 32">
<path fill="#cdcdcd" style="fill: var(--color3, #cdcdcd)" d="M29.027 11.772c0.559-0.598 1.507-0.599 2.067-0.002 0.51 0.544 0.51 1.389 0.002 1.934l-13.537 14.493c-0.843 0.903-2.275 0.903-3.118 0l-13.541-14.498c-0.506-0.542-0.507-1.384-0.001-1.927 0.558-0.598 1.506-0.599 2.064-0.001l11.478 12.278c0.843 0.902 2.274 0.902 3.117-0.001l11.469-12.277z"></path>
<path fill="#f5f5f5" style="fill: var(--color1, #f5f5f5)" d="M29.027 3.239c0.559-0.598 1.507-0.599 2.067-0.002 0.51 0.544 0.51 1.389 0.002 1.934l-13.537 14.493c-0.843 0.903-2.275 0.903-3.118 0l-13.541-14.498c-0.506-0.542-0.507-1.384-0.001-1.927 0.558-0.598 1.506-0.599 2.064-0.001l11.478 12.278c0.843 0.902 2.274 0.902 3.117-0.001l11.469-12.277z"></path>
</symbol>
<symbol id="icon-Profiles" viewBox="0 0 32 32">
<path fill="#4c58a2" style="fill: var(--color4, #4c58a2)" d="M11.237 0c-4.182 0-7.582 3.408-7.582 7.6 0 4.112 3.208 7.44 7.391 7.584 0.128-0.016 0.255-0.016 0.351 0h0.112c1.962-0.066 3.822-0.894 5.187-2.309s2.126-3.307 2.124-5.275c0-4.192-3.4-7.6-7.582-7.6zM19.346 19.439c-4.454-2.976-11.716-2.976-16.202 0-2.027 1.36-3.145 3.2-3.145 5.168s1.117 3.792 3.129 5.136c2.235 1.504 5.172 2.256 8.109 2.256s5.874-0.752 8.109-2.256c2.011-1.36 3.128-3.184 3.128-5.168-0.016-1.968-1.117-3.792-3.128-5.136zM28.78 8.541c0.255 3.104-1.947 5.824-4.996 6.192h-0.080c-0.096 0-0.192 0-0.271 0.032-1.548 0.080-2.969-0.416-4.038-1.328 1.644-1.472 2.586-3.68 2.394-6.080-0.11-1.248-0.532-2.448-1.229-3.488 0.836-0.408 1.759-0.606 2.689-0.576s1.838 0.285 2.648 0.745 1.494 1.11 1.997 1.895c0.502 0.785 0.807 1.68 0.887 2.609z"></path>
<path fill="#4c58a2" style="fill: var(--color4, #4c58a2)" d="M31.983 23.917c-0.128 1.498-1.118 2.795-2.78 3.675-1.598 0.849-3.611 1.251-5.608 1.205 1.15-1.004 1.821-2.255 1.949-3.583 0.16-1.915-0.783-3.752-2.668-5.22-1.071-0.819-2.317-1.467-3.675-1.946 3.531-0.988 7.973-0.324 10.705 1.807 1.47 1.143 2.221 2.579 2.077 4.061z"></path>
</symbol>
<symbol id="icon-Development" viewBox="0 0 32 32">
<path fill="#4c58a2" style="fill: var(--color4, #4c58a2)" d="M32 10.080c0 0.672-0.528 1.2-1.2 1.2h-2v2.939c0 0.122-0.032 0.241-0.093 0.346s-0.148 0.193-0.254 0.253c-0.105 0.061-0.225 0.092-0.347 0.092s-0.241-0.033-0.346-0.094c-0.688-0.4-1.488-0.528-2.256-0.32-0.493 0.118-1.088-0.2-1.088-0.707v-1.405c0-2.64-2.16-4.8-4.8-4.8h-7.232c-2.64 0-4.8 2.16-4.8 4.8v7.232c0 2.64 2.16 4.8 4.8 4.8h0.72c0.044 0 0.088 0.009 0.129 0.026s0.078 0.042 0.109 0.073 0.056 0.068 0.073 0.109c0.017 0.041 0.026 0.084 0.026 0.129 0 1.541 1.117 2.838 2.587 3.136 0.277 0.056 0.464 0.387 0.373 0.653-0.024 0.075-0.071 0.14-0.134 0.186s-0.139 0.072-0.218 0.073h-4.752v2c0 0.318-0.126 0.624-0.351 0.848s-0.53 0.352-0.849 0.352-0.623-0.126-0.849-0.352c-0.225-0.225-0.351-0.53-0.351-0.848v-2.352c-1.257-0.383-2.401-1.069-3.33-1.998s-1.615-2.073-1.998-3.33h-2.368c-0.318 0-0.624-0.126-0.849-0.352s-0.351-0.53-0.351-0.848 0.126-0.624 0.351-0.848c0.225-0.225 0.53-0.352 0.849-0.352h2v-3.52h-2c-0.318 0-0.624-0.126-0.849-0.352s-0.351-0.53-0.351-0.848 0.126-0.623 0.351-0.849c0.225-0.225 0.53-0.351 0.849-0.351h2v-3.52h-2c-0.318 0-0.624-0.126-0.849-0.351s-0.351-0.53-0.351-0.849c0-0.318 0.126-0.623 0.351-0.849s0.53-0.351 0.849-0.351h2.368c0.383-1.257 1.069-2.401 1.998-3.33s2.073-1.615 3.33-1.998v-2.352c0-0.318 0.126-0.624 0.351-0.849s0.53-0.351 0.849-0.351c0.318 0 0.623 0.126 0.849 0.351s0.351 0.53 0.351 0.849v2h3.504v-2c0-0.656 0.544-1.2 1.2-1.2s1.2 0.544 1.2 1.2v2h3.52v-2c0-0.656 0.544-1.2 1.2-1.2s1.2 0.544 1.2 1.2v2.368c2.544 0.768 4.544 2.768 5.312 5.312h2.368c0.672 0 1.2 0.544 1.2 1.2z"></path>
<path fill="#4c58a2" style="fill: var(--color4, #4c58a2)" d="M30.323 21.647c-1.129 0-1.777-0.544-1.777-1.344 0-0.32 0.1-0.688 0.332-1.072 0.11-0.183 0.181-0.384 0.209-0.594s0.014-0.422-0.043-0.625c-0.057-0.204-0.156-0.395-0.289-0.561s-0.301-0.307-0.491-0.411l-1.511-0.848c-0.167-0.093-0.351-0.154-0.542-0.179s-0.386-0.013-0.572 0.034c-0.187 0.048-0.361 0.13-0.515 0.243s-0.282 0.253-0.379 0.414l-0.1 0.16c-0.797 1.328-2.092 1.328-2.889 0l-0.1-0.16c-0.095-0.16-0.222-0.301-0.374-0.414s-0.326-0.195-0.511-0.243c-0.185-0.048-0.379-0.059-0.569-0.034s-0.373 0.086-0.539 0.179l-1.528 0.848c-0.531 0.288-0.847 0.832-0.847 1.392 0 0.272 0.083 0.544 0.232 0.8 0.232 0.384 0.349 0.752 0.349 1.072 0 0.8-0.664 1.344-1.793 1.344-0.913 0-1.677 0.72-1.677 1.6v1.504c0 0.88 0.764 1.6 1.677 1.6 1.129 0 1.793 0.544 1.793 1.344 0 0.32-0.116 0.688-0.349 1.072-0.11 0.183-0.181 0.384-0.209 0.594s-0.014 0.422 0.043 0.625c0.057 0.204 0.156 0.395 0.289 0.561s0.301 0.307 0.491 0.411l1.528 0.848c0.681 0.4 1.594 0.16 1.992-0.512l0.1-0.16c0.797-1.328 2.092-1.328 2.889 0l0.1 0.16c0.415 0.672 1.312 0.912 2.009 0.512l1.511-0.848c0.531-0.288 0.847-0.832 0.847-1.392 0-0.272-0.083-0.544-0.232-0.8-0.232-0.384-0.332-0.752-0.332-1.072 0-0.8 0.648-1.344 1.777-1.344 0.93 0 1.677-0.72 1.677-1.6v-1.504c0-0.88-0.747-1.6-1.677-1.6zM23.2 26.75c-0.757 0-1.484-0.29-2.019-0.806s-0.836-1.216-0.836-1.946 0.301-1.43 0.836-1.946c0.536-0.516 1.262-0.806 2.019-0.806s1.484 0.29 2.019 0.806c0.536 0.516 0.836 1.216 0.836 1.946s-0.301 1.43-0.836 1.946c-0.536 0.516-1.262 0.806-2.019 0.806z"></path>
<path fill="#4c58a2" style="fill: var(--color4, #4c58a2)" d="M22.4 13.018v0.861c0 0.504-0.67 0.822-1.16 0.705-0.753-0.196-1.506-0.090-2.123 0.286l-1.37 0.798c-0.506 0.283-0.92 0.707-1.19 1.22s-0.386 1.094-0.334 1.671c0.048 0.581-0.358 1.288-0.887 1.536-0.73 0.343-1.294 0.961-1.569 1.72-0.117 0.325-0.402 0.584-0.748 0.584-1.897 0-3.418-1.521-3.418-3.418v-5.963c0-1.897 1.521-3.418 3.418-3.418h5.963c1.897 0 3.418 1.521 3.418 3.418z"></path>
</symbol>
<symbol id="icon-Vacancies" viewBox="0 0 32 32">
<path fill="#4c58a2" style="fill: var(--color4, #4c58a2)" d="M14.4 0c-1.273 0-2.494 0.534-3.394 1.484s-1.406 2.239-1.406 3.583v1.689h-4.8c-1.273 0-2.494 0.534-3.394 1.484s-1.406 2.239-1.406 3.583v13.511c0 1.344 0.506 2.632 1.406 3.583s2.121 1.484 3.394 1.484h22.4c1.273 0 2.494-0.534 3.394-1.484s1.406-2.239 1.406-3.583v-13.511c0-1.344-0.506-2.633-1.406-3.583s-2.121-1.484-3.394-1.484h-4.8v-1.689c0-1.344-0.506-2.632-1.406-3.583s-2.121-1.484-3.394-1.484h-3.2zM19.2 6.756h-6.4v-1.689c0-0.448 0.169-0.877 0.469-1.194s0.707-0.495 1.131-0.495h3.2c0.424 0 0.831 0.178 1.131 0.495s0.469 0.746 0.469 1.194v1.689z"></path>
<path fill="none" stroke="#252525" style="stroke: var(--color5, #252525)" stroke-linejoin="miter" stroke-linecap="butt" stroke-miterlimit="4" stroke-width="1.6" d="M0 15.2h32"></path>
<path fill="none" stroke="#252525" style="stroke: var(--color5, #252525)" stroke-linejoin="miter" stroke-linecap="round" stroke-miterlimit="4" stroke-width="2.4" d="M11.869 15.867v1.6"></path>
<path fill="none" stroke="#252525" style="stroke: var(--color5, #252525)" stroke-linejoin="miter" stroke-linecap="round" stroke-miterlimit="4" stroke-width="2.4" d="M19.869 15.867v1.6"></path>
</symbol>
<symbol id="icon-Helpful" viewBox="0 0 32 32">
<path fill="#4c58a2" style="fill: var(--color4, #4c58a2)" d="M30.4 12.8h-28.8c-0.88 0-1.6 0.72-1.6 1.6v8.304c0 0.32 0.016 0.64 0.048 0.96 0.32 4.928 3.36 7.968 8.288 8.288 0.32 0.032 0.64 0.048 0.96 0.048h13.408c0.32 0 0.64-0.016 0.96-0.048 4.928-0.32 7.968-3.36 8.288-8.288 0.032-0.32 0.048-0.64 0.048-0.96v-8.304c0-0.88-0.72-1.6-1.6-1.6zM9.6 22.64c0.544 0.8 1.28 1.456 2.128 1.888 0.608 0.288 0.848 1.008 0.544 1.616-0.208 0.416-0.64 0.656-1.072 0.656-0.176 0-0.368-0.048-0.528-0.128-1.248-0.608-2.304-1.552-3.056-2.688-0.64-0.96-0.64-2.208 0-3.168 0.752-1.136 1.808-2.080 3.056-2.688 0.592-0.304 1.312-0.064 1.6 0.528 0.304 0.608 0.064 1.328-0.544 1.616-0.848 0.432-1.584 1.088-2.128 1.888-0.096 0.144-0.096 0.336 0 0.48zM24.72 23.984c-0.768 1.136-1.824 2.080-3.056 2.688-0.14 0.071-0.292 0.114-0.448 0.125s-0.313-0.007-0.462-0.056c-0.149-0.049-0.286-0.127-0.405-0.229s-0.216-0.227-0.285-0.368c-0.073-0.14-0.117-0.294-0.13-0.452s0.006-0.316 0.055-0.467c0.049-0.15 0.128-0.289 0.231-0.409s0.23-0.218 0.372-0.288c0.864-0.432 1.6-1.088 2.128-1.888 0.055-0.068 0.084-0.153 0.084-0.24s-0.030-0.172-0.084-0.24c-0.528-0.8-1.264-1.456-2.128-1.888-0.142-0.070-0.268-0.168-0.372-0.288s-0.182-0.259-0.231-0.409-0.068-0.309-0.055-0.467c0.013-0.158 0.057-0.311 0.13-0.452 0.288-0.592 1.008-0.832 1.6-0.528 1.232 0.608 2.288 1.552 3.056 2.688 0.64 0.96 0.64 2.208 0 3.168zM32 9.296v0.304c0 0.88-0.72 1.6-1.6 1.6l-28.8 0.016c-0.88 0-1.6-0.72-1.6-1.6v-0.32c0-0.32 0.016-0.64 0.048-0.96 0.32-4.928 3.36-7.968 8.288-8.288 0.32-0.032 0.64-0.048 0.96-0.048h13.408c0.32 0 0.64 0.016 0.96 0.048 4.928 0.32 7.968 3.36 8.288 8.288 0.032 0.32 0.048 0.64 0.048 0.96z"></path>
</symbol>
<symbol id="icon-Mentorship" viewBox="0 0 32 32">
<path fill="#4c58a2" style="fill: var(--color4, #4c58a2)" d="M5.333 24.156v-5.382l6.187 3.791c1.332 0.816 2.889 1.251 4.48 1.251s3.148-0.435 4.48-1.251l6.187-3.791v5.382c0 0.232-0.080 0.458-0.228 0.643l-0.002 0.001-0.001 0.003-0.005 0.006-0.014 0.014-0.018 0.023-0.020 0.024-0.131 0.144c-0.154 0.164-0.315 0.321-0.483 0.472-0.422 0.382-1.051 0.877-1.905 1.369-1.708 0.986-4.296 1.945-7.86 1.945s-6.15-0.957-7.861-1.945c-0.685-0.391-1.323-0.85-1.905-1.368-0.231-0.209-0.448-0.43-0.651-0.663l-0.014-0.014-0.005-0.007v-0.003c-0.149-0.186-0.231-0.412-0.232-0.644zM31.482 13.263l-12.252 7.507c-0.96 0.589-2.083 0.902-3.231 0.902s-2.27-0.314-3.23-0.902l-10.484-6.424v7.666c0 0.284-0.12 0.557-0.335 0.758s-0.505 0.314-0.808 0.314c-0.303 0-0.594-0.113-0.808-0.314s-0.335-0.474-0.335-0.758v-8.932c0-0.126 0.023-0.246 0.066-0.357-0.086-0.228-0.087-0.476-0.004-0.705s0.247-0.424 0.464-0.554l12.288-7.388c0.951-0.572 2.057-0.875 3.186-0.875s2.235 0.304 3.186 0.875l12.288 7.388c0.16 0.097 0.293 0.229 0.384 0.386s0.14 0.333 0.141 0.511-0.046 0.355-0.137 0.513c-0.090 0.157-0.221 0.291-0.381 0.389z"></path>
</symbol>
<symbol id="icon-Roadmaps" viewBox="0 0 32 32">
<path fill="#4c58a2" style="fill: var(--color4, #4c58a2)" d="M12.196 9.984c-0.747 0-1.333 0.6-1.333 1.333s0.6 1.333 1.333 1.333c0.733 0 1.333-0.6 1.333-1.333s-0.6-1.333-1.333-1.333z"></path>
<path fill="#4c58a2" style="fill: var(--color4, #4c58a2)" d="M28.615 6.721c-1.12-2.6-3.587-4.053-7.027-4.053h-11.173c-4.28 0-7.747 3.467-7.747 7.747v11.173c0 3.44 1.453 5.907 4.053 7.027 0.253 0.107 0.547 0.040 0.733-0.147l21.013-21.013c0.2-0.2 0.267-0.493 0.147-0.733zM14.042 16.32c-0.52 0.507-1.2 0.747-1.88 0.747s-1.36-0.253-1.88-0.747c-1.36-1.28-2.853-3.32-2.28-5.747 0.507-2.2 2.453-3.187 4.16-3.187s3.653 0.987 4.16 3.2c0.56 2.413-0.933 4.453-2.28 5.733zM25.961 27.374c0.293 0.293 0.253 0.773-0.107 0.973-1.173 0.653-2.6 0.987-4.267 0.987h-11.173c-0.387 0-0.547-0.453-0.28-0.72l8.053-8.053c0.267-0.267 0.68-0.267 0.947 0l6.827 6.813zM29.338 10.413v11.173c0 1.667-0.333 3.107-0.987 4.267-0.2 0.36-0.68 0.387-0.973 0.107l-6.827-6.827c-0.267-0.267-0.267-0.68 0-0.947l8.053-8.053c0.28-0.267 0.733-0.107 0.733 0.28z"></path>
</symbol>
<symbol id="icon-Blog" viewBox="0 0 32 32">
<path fill="#4c58a2" style="fill: var(--color4, #4c58a2)" d="M19.907 3.334v7.867c0 0.587-0.693 0.88-1.12 0.493l-2.333-2.147c-0.123-0.116-0.285-0.18-0.453-0.18s-0.331 0.064-0.453 0.18l-2.333 2.133c-0.427 0.4-1.12 0.093-1.12-0.48v-7.867c0-0.373 0.293-0.667 0.667-0.667h6.48c0.373 0 0.667 0.293 0.667 0.667z"></path>
<path fill="#4c58a2" style="fill: var(--color4, #4c58a2)" d="M22.64 2.745c-0.387-0.053-0.733 0.28-0.733 0.667v8.027c0 1.013-0.6 1.933-1.533 2.347-0.933 0.4-2.013 0.227-2.76-0.467l-1.16-1.067c-0.123-0.116-0.285-0.18-0.453-0.18s-0.331 0.064-0.453 0.18l-1.16 1.067c-0.48 0.453-1.107 0.68-1.733 0.68-0.353 0.001-0.703-0.071-1.027-0.213-0.933-0.413-1.533-1.333-1.533-2.347v-8.027c0-0.387-0.347-0.72-0.733-0.667-3.733 0.467-5.36 2.987-5.36 6.587v13.333c0 4 2 6.667 6.667 6.667h10.667c4.667 0 6.667-2.667 6.667-6.667v-13.333c0-3.6-1.627-6.12-5.36-6.587zM23.333 24.998h-11.333c-0.547 0-1-0.453-1-1s0.453-1 1-1h11.333c0.547 0 1 0.453 1 1s-0.453 1-1 1zM23.333 19.665h-5.667c-0.547 0-1-0.453-1-1s0.453-1 1-1h5.667c0.547 0 1 0.453 1 1s-0.453 1-1 1z"></path>
</symbol>
<symbol id="icon-Icon_erth" viewBox="0 0 32 32">
<path fill="#f5f5f5" style="fill: var(--color1, #f5f5f5)" d="M4.8 5.067l9.6-4.533 11.2 3.467 2.133 13.867-14.4 1.867-8.267-4.533-0.267-10.133z"></path>
<path fill="#f7d056" style="fill: var(--color6, #f7d056)" d="M22.276 7.704c0.531 0 1.069-0.238 0.898-0.851-0.144-0.514-0.389-1.073-0.985-0.795-0.379 0.176-0.917 0.625-0.961 1.070-0.051 0.505 0.694 0.576 1.048 0.576z"></path>
<path fill="#f7d056" style="fill: var(--color6, #f7d056)" d="M21.852 10.39c0.542 0.324 1.346 0.172 1.754-0.291 0.088-0.1 0.167-0.221 0.246-0.343 0.207-0.319 0.42-0.648 0.836-0.648 0.253-0.001 0.496 0.098 0.676 0.276 0.18 0.186 0.197 0.364 0.216 0.573l0.002 0.025c0.006 0.059 0.012 0.121 0.023 0.186 0.113 0.691 0.854 0.039 1.047-0.228 0.125-0.174 0.294-0.433 0.238-0.66-0.033-0.131-0.14-0.268-0.243-0.399-0.063-0.080-0.125-0.159-0.167-0.233-0.079-0.138-0.155-0.283-0.231-0.428-0.234-0.445-0.473-0.901-0.836-1.244-0.463-0.438-1.032-0.387-1.472 0.068-0.105 0.11-0.216 0.213-0.325 0.315-0.265 0.247-0.525 0.49-0.699 0.813-0.174 0.321-0.369 0.474-0.721 0.557-0.042 0.010-0.085 0.018-0.128 0.027-0.158 0.031-0.322 0.064-0.45 0.166-0.452 0.356-0.195 1.212 0.234 1.469z"></path>
<path fill="#4c58a2" style="fill: var(--color4, #4c58a2)" d="M11.505 15.832l-0.52-0.124c-0.037 0-0.075 0.002-0.114 0.007-0.284 0.037-0.522 0.192-0.759 0.345-0.302 0.196-0.601 0.39-0.991 0.337-0.659-0.089-1.339-0.86-1.489-1.488-0.192-0.808 0.446-1.069 1.131-1.141 0.286-0.030 0.606-0.063 0.881 0.042 0.2 0.075 0.342 0.217 0.484 0.359 0.114 0.114 0.228 0.228 0.372 0.308 0.608 0.333 0.731-0.199 0.638-0.739-0.015-0.088-0.031-0.17-0.045-0.248-0.119-0.636-0.178-0.952 0.464-1.447l0.089-0.068c0.46-0.35 0.833-0.634 0.758-1.282-0.016-0.133-0.050-0.243-0.082-0.344-0.065-0.206-0.119-0.377 0.020-0.648 0.154-0.301 0.571-0.573 0.852-0.756l0.016-0.011c0.215-0.14 0.575-0.236 0.95-0.335 0.89-0.236 1.865-0.495 1.181-1.425-0.286-0.388-0.813-1.082-1.313-1.177-0.425-0.080-0.689 0.216-0.952 0.511-0.124 0.139-0.247 0.277-0.386 0.376-0.45 0.318-1.326 0.679-1.777 0.187-0.403-0.44-0.092-0.684 0.227-0.934 0.161-0.126 0.323-0.253 0.398-0.407 0.223-0.462-0.517-1.335-0.913-1.556l-1.863 2.089c-0.053 0.35-0.035 0.707 0.055 1.050s0.248 0.663 0.466 0.942c0.128 0.164 0.281 0.29 0.429 0.411 0.281 0.23 0.541 0.443 0.559 0.87 0.026 0.625-0.071 0.945-0.48 1.384-0.084 0.089-0.156 0.196-0.228 0.302-0.080 0.118-0.159 0.235-0.254 0.327l-0.030 0.029c-0.081 0.079-0.115 0.112-0.155 0.129-0.029 0.012-0.062 0.016-0.119 0.023-0.043 0.005-0.099 0.012-0.178 0.026-0.541 0.091-1.014 0.224-1.52 0.366-0.1 0.028-0.201 0.056-0.305 0.085-0.718 0.198-0.987-0.548-1.24-1.25-0.114-0.317-0.226-0.625-0.373-0.833l-1.563 1.262c-0.011 0.13 0.094 0.329 0.191 0.515 0.057 0.109 0.112 0.214 0.14 0.298 0.246 0.742 0.637 1.387 1.031 2.036 0.288 0.476 0.578 0.954 0.814 1.474 0.308 0.685 0.889 0.91 1.472 1.135 0.525 0.203 1.051 0.406 1.38 0.947 0.328 0.539 0.295 1.154 0.262 1.771-0.029 0.543-0.058 1.087 0.158 1.583 0.207 0.476 0.588 0.722 0.978 0.973 0.24 0.155 0.484 0.312 0.692 0.527 0.476 0.485 0.536 1.123 0.597 1.76 0.010 0.109 0.021 0.217 0.033 0.325 0.096 0.87 0.251 1.732 0.466 2.58 0.010 0.038 0.020 0.078 0.030 0.119l0.004 0.018c0.065 0.269 0.141 0.58 0.312 0.786 0.059 0.071 0.178 0.138 0.281 0.195 0.138 0.077 0.247 0.138 0.137 0.169 0.076 0.012 0.168 0.041 0.267 0.072 0.249 0.078 0.537 0.168 0.696 0.038 0.214-0.175 0.23-0.617 0.242-0.972 0.005-0.131 0.009-0.25 0.023-0.34 0.152-0.994 0.649-1.966 1.321-2.709 0.274-0.304 0.591-0.567 0.907-0.83 0.448-0.373 0.896-0.745 1.225-1.233 0.546-0.811 0.71-1.906 0.484-2.855-0.233-0.982-1.238-1.507-2.173-1.994-0.399-0.208-0.786-0.41-1.094-0.638-0.154-0.114-0.303-0.244-0.453-0.375-0.428-0.372-0.865-0.753-1.439-0.793-0.119-0.009-0.232-0.006-0.342-0.001l-0.047 0.002c-0.204 0.008-0.402 0.016-0.622-0.041-0.090-0.023-0.174-0.053-0.256-0.084l-0.035-0.013zM13.271 22.724c-0.248-0.749-0.722-1.403-1.357-1.872-0.068-0.051-0.171-0.108-0.281-0.169-0.207-0.114-0.438-0.242-0.512-0.375-0.091-0.16-0.056-0.477-0.029-0.731 0.010-0.096 0.020-0.184 0.021-0.25 0.003-0.137-0.020-0.31-0.044-0.488-0.037-0.277-0.075-0.568-0.023-0.762 0.039-0.144 0.034-0.197 0.032-0.213-0-0.004 0-0.006 0-0.006s0.002 0 0.004 0.002c0.012 0.007 0.056 0.031 0.2-0 0.173-0.039 0.888 0.087 1.104 0.132 0.275 0.057 0.451 0.206 0.65 0.375 0.048 0.041 0.098 0.083 0.151 0.125 0.71 0.569 1.492 1.010 2.287 1.446 0.616 0.341 0.797 0.773 0.404 1.476-0.243 0.433-0.678 0.774-1.1 1.104-0.23 0.18-0.457 0.358-0.646 0.545-0.037 0.036-0.083 0.095-0.136 0.16-0.157 0.196-0.365 0.457-0.502 0.376-0.089-0.053-0.138-0.373-0.176-0.618-0.017-0.113-0.032-0.21-0.047-0.257z"></path>
<path fill="#4c58a2" style="fill: var(--color4, #4c58a2)" d="M14.958 5.745c0.52 0.094 1.071-0.209 1.199-0.741 0.077-0.31 0.005-0.637-0.065-0.961-0.045-0.205-0.089-0.409-0.095-0.606 0-0.017 0.002-0.047 0.005-0.084 0.008-0.12 0.022-0.313-0.015-0.354-0.028-0.031-0.216-0.011-0.321 0-0.030 0.003-0.054 0.006-0.064 0.006-0.339 0.010-0.677 0.033-1.014 0.070-1.229 0.133-2.432 0.441-3.574 0.916 0.123 0.085 0.271 0.129 0.415 0.171 0.034 0.010 0.068 0.020 0.101 0.030 0.038 0.037 0.076 0.075 0.114 0.114 0.257 0.259 0.518 0.522 0.903 0.547 0.141 0.009 0.279-0.010 0.415-0.029 0.266-0.037 0.521-0.073 0.763 0.115 0.106 0.082 0.205 0.17 0.302 0.256 0.273 0.243 0.536 0.477 0.932 0.549z"></path>
<path fill="#f7d056" style="fill: var(--color6, #f7d056)" d="M20.055 12.869c-0.863 0.813-1.228 1.699-0.669 2.848 0.538 1.104 1.662 1.704 2.875 1.625 0.257-0.017 0.516-0.063 0.763-0.106 0.903-0.159 1.659-0.292 1.632 1.067-0.012 0.612 0.116 1.038 0.304 1.607 0.137 0.413 0.159 0.817 0.182 1.234 0.006 0.113 0.012 0.227 0.021 0.342 0.074 1.012 0.26 2.147 0.762 3.042l0.938-1.323c0.036-0.052 0.086-0.11 0.137-0.171 0.113-0.133 0.238-0.283 0.278-0.415 0.066-0.222 0.005-0.547-0.052-0.852-0.031-0.166-0.061-0.326-0.069-0.461-0.008-0.126-0.012-0.253-0.015-0.38-0.008-0.258-0.016-0.517-0.055-0.774-0.038-0.25-0.128-0.493-0.217-0.734-0.102-0.277-0.204-0.553-0.227-0.836-0.017-0.211-0.023-0.414-0.028-0.609-0.017-0.67-0.033-1.26-0.521-1.864-0.035-0.043-0.073-0.087-0.113-0.13-0.735-0.797-1.812-0.988-2.842-0.826l-0.010 0.002c-0.535 0.084-2.592 0.406-1.759-0.772 0.092-0.129 0.221-0.245 0.351-0.361 0.104-0.093 0.208-0.186 0.291-0.285 0.066-0.079 0.128-0.184 0.192-0.292 0.093-0.157 0.188-0.318 0.301-0.407 0.19-0.151 1.063-0.324 1.312-0.247 0.159 0.049 0.322 0.212 0.475 0.366 0.088 0.088 0.173 0.173 0.252 0.232 0.401 0.302 0.868 0.502 1.363 0.585 0.168 0.025 0.371 0.025 0.59 0.002 0.895-0.095 2.046-0.588 2.035-1.468-0.002-0.36-0.232-0.818-0.438-1.228-0.094-0.188-0.184-0.365-0.244-0.519-0.426 0.003-0.653 0.337-0.869 0.655-0.294 0.432-0.566 0.833-1.287 0.329-0.158-0.111-0.296-0.238-0.432-0.364-0.262-0.243-0.517-0.479-0.901-0.574-0.44-0.108-0.89-0.026-1.329 0.055-0.069 0.013-0.138 0.025-0.206 0.037-0.081 0.014-0.165 0.027-0.25 0.040-0.51 0.079-1.062 0.165-1.434 0.536-0.201 0.2-0.357 0.432-0.513 0.667-0.17 0.254-0.342 0.511-0.574 0.729z"></path>
<path fill="none" stroke="#4c58a2" style="stroke: var(--color4, #4c58a2)" stroke-linejoin="miter" stroke-linecap="butt" stroke-miterlimit="10" stroke-width="1.6" d="M29 16c0-7.179-5.821-13-13-13s-13 5.821-13 13c0 7.179 5.821 13 13 13s13-5.821 13-13z"></path>
</symbol>
<symbol id="icon-Icon_cv" viewBox="0 0 32 32">
<path fill="#f5f5f5" style="fill: var(--color1, #f5f5f5)" d="M18.536 9.852c3.999 3.846 6.501 16.43 2.798 20.282s-11.633 0.131-15.632-3.715c-3.999-3.846-6.787-5.826-3.084-9.677s11.919-10.736 15.918-6.89z"></path>
<path fill="#f7d056" style="fill: var(--color6, #f7d056)" d="M12.479 10.16c0.896 0 1.616-0.72 1.616-1.616s-0.72-1.616-1.616-1.616c-0.896 0-1.616 0.72-1.616 1.616s0.72 1.616 1.616 1.616z"></path>
<path fill="#4c58a2" style="fill: var(--color4, #4c58a2)" d="M9.551 17.552c-0.225 0.225-0.351 0.53-0.351 0.849s0.126 0.623 0.351 0.849c0.225 0.225 0.53 0.351 0.849 0.351h11.2c0.318 0 0.623-0.126 0.849-0.351s0.351-0.53 0.351-0.849c0-0.318-0.126-0.623-0.351-0.849s-0.53-0.351-0.849-0.351h-11.2c-0.318 0-0.623 0.126-0.849 0.351zM9.551 22.352c-0.225 0.225-0.351 0.53-0.351 0.849s0.126 0.623 0.351 0.849c0.225 0.225 0.53 0.351 0.849 0.351h11.2c0.318 0 0.623-0.126 0.849-0.351s0.351-0.53 0.351-0.849c0-0.318-0.126-0.623-0.351-0.849s-0.53-0.351-0.849-0.351h-11.2c-0.318 0-0.623 0.126-0.849 0.351z"></path>
<path fill="#f7d056" style="fill: var(--color6, #f7d056)" d="M15.728 13.68c0-1.728-1.456-2.976-3.248-2.976s-3.248 1.248-3.248 2.976v0.816c0 0.144 0.064 0.288 0.16 0.384s0.24 0.16 0.384 0.16h5.408c0.144 0 0.288-0.064 0.384-0.16s0.16-0.24 0.16-0.384v-0.816z"></path>
<path fill="#4c58a2" style="fill: var(--color4, #4c58a2)" d="M4 4c0-1.763 1.437-3.2 3.2-3.2h10.704c0.899 0 1.747 0.381 2.344 1.010l0.010 0.011 6.899 7.523c0.574 0.613 0.843 1.414 0.843 2.176v16.48c0 1.763-1.437 3.2-3.2 3.2h-17.6c-1.763 0-3.2-1.437-3.2-3.2v-24zM17.902 4h-10.702v24h17.6v-16.493l-6.878-7.498c-0.006-0.004-0.012-0.007-0.019-0.010z"></path>
<path fill="#4c58a2" style="fill: var(--color4, #4c58a2)" d="M17.904 0.8c0.424 0 0.831 0.169 1.131 0.469s0.469 0.707 0.469 1.131v7.52h6.896c0.21 0 0.418 0.041 0.612 0.122s0.37 0.198 0.519 0.347c0.149 0.149 0.266 0.325 0.347 0.519s0.122 0.402 0.122 0.612-0.041 0.418-0.122 0.612c-0.080 0.194-0.198 0.37-0.347 0.519s-0.325 0.266-0.519 0.347c-0.194 0.080-0.402 0.122-0.612 0.122h-8.496c-0.424 0-0.831-0.169-1.131-0.469s-0.469-0.707-0.469-1.131v-9.12c0-0.424 0.169-0.831 0.469-1.131s0.707-0.469 1.131-0.469z"></path>
</symbol>
<symbol id="icon-Icon_table" viewBox="0 0 32 32">
<path fill="#f5f5f5" style="fill: var(--color1, #f5f5f5)" d="M28.116 22.583l-14.186 3.605-11.25-5.186 10.653-10.501h14.993l-0.211 12.082z"></path>
<path fill="#4c58a2" style="fill: var(--color4, #4c58a2)" d="M14.193 19.552c0.239 0.225 0.373 0.53 0.373 0.848s-0.134 0.623-0.373 0.848l-3.4 3.2c-0.239 0.225-0.563 0.351-0.901 0.351s-0.662-0.126-0.901-0.351l-1.7-1.6c-0.125-0.11-0.226-0.242-0.295-0.39s-0.107-0.306-0.11-0.467 0.028-0.321 0.093-0.471c0.064-0.149 0.16-0.285 0.281-0.399s0.265-0.204 0.424-0.264c0.159-0.060 0.329-0.090 0.5-0.087s0.34 0.038 0.496 0.104c0.156 0.066 0.297 0.16 0.414 0.278l0.799 0.752 2.499-2.352c0.239-0.225 0.563-0.351 0.901-0.351s0.662 0.126 0.901 0.351z"></path>
<path fill="#f7d056" style="fill: var(--color6, #f7d056)" d="M14.193 12.448c0.125-0.11 0.226-0.242 0.295-0.39s0.107-0.306 0.11-0.467c0.003-0.161-0.028-0.321-0.093-0.471s-0.16-0.285-0.281-0.399c-0.121-0.114-0.265-0.204-0.424-0.264s-0.329-0.090-0.5-0.087c-0.171 0.003-0.34 0.038-0.496 0.104s-0.297 0.16-0.414 0.278l-2.499 2.352-0.799-0.752c-0.242-0.212-0.561-0.327-0.892-0.322s-0.645 0.131-0.879 0.351c-0.234 0.22-0.367 0.516-0.373 0.827s0.117 0.612 0.342 0.839l1.7 1.6c0.239 0.225 0.563 0.351 0.901 0.351s0.662-0.126 0.901-0.351l3.4-3.2z"></path>
<path fill="#4c58a2" style="fill: var(--color4, #4c58a2)" d="M21.845 0.962c-0.708-0.618-1.637-0.962-2.603-0.962h-5.95c-0.941 0-1.849 0.326-2.55 0.917s-1.147 1.403-1.251 2.283h-2.999c-1.014 0-1.987 0.379-2.705 1.054s-1.12 1.591-1.12 2.546v21.6c0 0.955 0.403 1.87 1.12 2.546s1.69 1.054 2.705 1.054h19.55c0.502 0 1-0.093 1.464-0.274s0.886-0.446 1.241-0.78c0.355-0.334 0.637-0.731 0.829-1.168s0.291-0.905 0.291-1.378v-21.6c0-0.473-0.099-0.941-0.291-1.378s-0.474-0.834-0.829-1.168-0.777-0.599-1.241-0.78c-0.464-0.181-0.962-0.274-1.464-0.274h-2.999c-0.102-0.855-0.526-1.65-1.198-2.238zM13.292 7.2h5.95c1.326 0 2.494-0.635 3.181-1.6h3.619c0.338 0 0.662 0.126 0.902 0.351s0.373 0.53 0.373 0.849v21.6c0 0.318-0.134 0.623-0.373 0.849s-0.563 0.351-0.902 0.351h-19.55c-0.338 0-0.662-0.126-0.902-0.351s-0.373-0.53-0.373-0.849v-21.6c0-0.318 0.134-0.623 0.373-0.849s0.563-0.351 0.902-0.351h3.619c0.687 0.965 1.855 1.6 3.181 1.6zM13.292 2.4h5.95c0.338 0 0.662 0.126 0.902 0.351s0.373 0.53 0.373 0.849-0.134 0.623-0.373 0.849c-0.239 0.225-0.563 0.351-0.902 0.351h-5.95c-0.338 0-0.662-0.126-0.902-0.351s-0.373-0.53-0.373-0.849 0.134-0.623 0.373-0.849c0.239-0.225 0.563-0.351 0.902-0.351z"></path>
<path fill="#f7d056" style="fill: var(--color6, #f7d056)" d="M17.117 13.2c0-0.318 0.134-0.623 0.373-0.849s0.563-0.351 0.902-0.351h5.95c0.338 0 0.662 0.126 0.902 0.351s0.373 0.53 0.373 0.849-0.134 0.623-0.373 0.849c-0.239 0.225-0.563 0.351-0.902 0.351h-5.95c-0.338 0-0.662-0.126-0.902-0.351s-0.373-0.53-0.373-0.849z"></path>
<path fill="#4c58a2" style="fill: var(--color4, #4c58a2)" d="M18.392 20.8c-0.338 0-0.662 0.126-0.902 0.351s-0.373 0.53-0.373 0.849 0.134 0.623 0.373 0.849c0.239 0.225 0.563 0.351 0.902 0.351h5.95c0.338 0 0.662-0.126 0.902-0.351s0.373-0.53 0.373-0.849-0.134-0.623-0.373-0.849c-0.239-0.225-0.563-0.351-0.902-0.351h-5.95z"></path>
</symbol>
<symbol id="icon-Icon_set" viewBox="0 0 32 32">
<path fill="#f5f5f5" style="fill: var(--color1, #f5f5f5)" d="M9.457 0.105l4.903 10.048 16.196 8.133-10.926 4.989-13.229 0.192-5.794-14.817 8.851-8.544z"></path>
<path fill="#4c58a2" style="fill: var(--color4, #4c58a2)" d="M10.789 7.028c-0.51 0.199-0.892 0.076-1.024-0.273-0.053-0.14-0.068-0.318-0.027-0.526 0.019-0.099 0.018-0.2-0.003-0.296s-0.063-0.187-0.123-0.265c-0.059-0.079-0.135-0.145-0.223-0.194s-0.186-0.081-0.29-0.093l-0.822-0.103c-0.091-0.011-0.184-0.005-0.274 0.017s-0.176 0.062-0.253 0.116c-0.076 0.054-0.142 0.121-0.193 0.197s-0.086 0.16-0.103 0.248l-0.019 0.087c-0.141 0.72-0.726 0.949-1.305 0.51l-0.071-0.052c-0.069-0.053-0.15-0.092-0.237-0.115s-0.179-0.028-0.271-0.016c-0.092 0.012-0.181 0.041-0.263 0.085s-0.154 0.103-0.214 0.173l-0.55 0.64c-0.192 0.219-0.245 0.513-0.153 0.757 0.045 0.119 0.127 0.223 0.237 0.308 0.168 0.127 0.282 0.267 0.334 0.406 0.132 0.349-0.078 0.704-0.588 0.903-0.412 0.161-0.639 0.61-0.493 0.994l0.248 0.656c0.145 0.384 0.609 0.564 1.021 0.402 0.51-0.199 0.899-0.079 1.031 0.27 0.053 0.14 0.061 0.321 0.019 0.529-0.019 0.099-0.018 0.2 0.003 0.296s0.063 0.187 0.123 0.265c0.059 0.079 0.135 0.145 0.223 0.194s0.186 0.081 0.29 0.093l0.83 0.1c0.373 0.054 0.746-0.211 0.815-0.575l0.019-0.087c0.141-0.72 0.726-0.949 1.305-0.51l0.071 0.052c0.298 0.22 0.743 0.166 0.992-0.131l0.542-0.637c0.192-0.219 0.245-0.513 0.153-0.757-0.045-0.119-0.127-0.223-0.237-0.308-0.168-0.127-0.274-0.27-0.327-0.409-0.132-0.349 0.071-0.701 0.581-0.9 0.42-0.164 0.639-0.61 0.493-0.994l-0.248-0.656c-0.145-0.384-0.601-0.566-1.021-0.402zM8.414 10.513c-0.342 0.134-0.718 0.135-1.045 0.005s-0.578-0.383-0.699-0.702c-0.12-0.319-0.1-0.677 0.057-0.997s0.437-0.575 0.779-0.708c0.342-0.134 0.718-0.135 1.045-0.005s0.578 0.383 0.699 0.702c0.12 0.319 0.1 0.677-0.057 0.997s-0.437 0.575-0.779 0.708z"></path>
<path fill="#4c58a2" style="fill: var(--color4, #4c58a2)" d="M18.843 6.666c-0.374-0.4-0.38-0.831-0.073-1.127 0.123-0.119 0.297-0.22 0.521-0.28 0.106-0.029 0.207-0.078 0.297-0.146s0.166-0.151 0.226-0.247c0.059-0.096 0.1-0.201 0.119-0.311s0.018-0.22-0.005-0.326l-0.175-0.849c-0.019-0.094-0.057-0.182-0.111-0.259s-0.123-0.142-0.203-0.19-0.17-0.080-0.264-0.092c-0.094-0.013-0.191-0.006-0.284 0.019l-0.094 0.024c-0.773 0.21-1.202-0.249-0.957-1.023l0.028-0.095c0.030-0.093 0.042-0.19 0.035-0.286s-0.033-0.188-0.076-0.271c-0.043-0.083-0.103-0.156-0.175-0.214s-0.156-0.1-0.247-0.124l-0.831-0.227c-0.286-0.081-0.599 0.008-0.814 0.216-0.104 0.101-0.181 0.231-0.23 0.379-0.070 0.225-0.173 0.402-0.296 0.521-0.307 0.297-0.735 0.263-1.109-0.137-0.302-0.323-0.831-0.327-1.169-0.001l-0.577 0.557c-0.337 0.326-0.36 0.864-0.058 1.187 0.374 0.4 0.385 0.837 0.079 1.133-0.123 0.119-0.302 0.214-0.526 0.274-0.106 0.029-0.207 0.078-0.297 0.146s-0.166 0.151-0.226 0.247-0.1 0.201-0.119 0.311c-0.020 0.109-0.018 0.22 0.005 0.326l0.181 0.855c0.072 0.389 0.466 0.624 0.856 0.516l0.094-0.024c0.773-0.21 1.202 0.249 0.957 1.023l-0.028 0.095c-0.12 0.396 0.085 0.803 0.469 0.901l0.825 0.221c0.286 0.081 0.599-0.008 0.814-0.216 0.104-0.101 0.181-0.231 0.23-0.379 0.070-0.225 0.178-0.396 0.301-0.515 0.307-0.297 0.73-0.269 1.103 0.131 0.308 0.329 0.831 0.327 1.169 0.001l0.577-0.558c0.337-0.326 0.366-0.858 0.058-1.187zM14.527 6.035c-0.251-0.268-0.38-0.633-0.36-1.014s0.189-0.747 0.469-1.018c0.28-0.271 0.648-0.423 1.023-0.425s0.727 0.148 0.978 0.416c0.251 0.268 0.38 0.633 0.36 1.014s-0.189 0.747-0.469 1.018c-0.28 0.271-0.648 0.423-1.023 0.425s-0.727-0.148-0.978-0.416z"></path>
<path fill="#f7d056" style="fill: var(--color6, #f7d056)" d="M24.722 11.534c-0.242-0.414-0.163-0.782 0.157-0.975 0.128-0.077 0.296-0.13 0.499-0.137 0.096-0.004 0.192-0.026 0.282-0.066s0.171-0.097 0.241-0.167 0.124-0.152 0.162-0.242c0.038-0.089 0.058-0.184 0.059-0.279l0.015-0.758c0.002-0.084-0.013-0.166-0.044-0.242s-0.077-0.144-0.136-0.201c-0.059-0.057-0.129-0.101-0.207-0.13s-0.162-0.042-0.247-0.039l-0.085 0.002c-0.701 0.028-0.978-0.446-0.618-1.058l0.043-0.075c0.044-0.074 0.073-0.154 0.085-0.237s0.008-0.166-0.012-0.246c-0.021-0.079-0.057-0.153-0.108-0.217s-0.114-0.116-0.187-0.154l-0.666-0.355c-0.229-0.125-0.514-0.109-0.737 0.026-0.109 0.066-0.2 0.162-0.27 0.278-0.104 0.178-0.226 0.309-0.354 0.386-0.32 0.193-0.679 0.081-0.92-0.333-0.195-0.335-0.646-0.441-0.998-0.228l-0.601 0.363c-0.351 0.212-0.476 0.666-0.28 1 0.242 0.414 0.166 0.788-0.153 0.981-0.128 0.077-0.3 0.123-0.503 0.131-0.096 0.004-0.192 0.026-0.282 0.066s-0.171 0.097-0.241 0.167-0.124 0.152-0.162 0.242c-0.038 0.089-0.058 0.184-0.059 0.279l-0.012 0.764c-0.014 0.346 0.277 0.623 0.631 0.606l0.085-0.002c0.701-0.028 0.978 0.446 0.618 1.058l-0.043 0.075c-0.18 0.314-0.084 0.701 0.225 0.86l0.662 0.349c0.229 0.125 0.513 0.11 0.737-0.026 0.109-0.066 0.2-0.162 0.27-0.278 0.104-0.178 0.229-0.303 0.357-0.38 0.32-0.193 0.675-0.087 0.917 0.327 0.199 0.341 0.646 0.441 0.998 0.228l0.601-0.363c0.351-0.212 0.479-0.66 0.28-1zM21.159 10.156c-0.162-0.277-0.202-0.614-0.11-0.934s0.307-0.6 0.598-0.776 0.635-0.235 0.956-0.163c0.321 0.072 0.592 0.268 0.754 0.545s0.202 0.614 0.11 0.934c-0.092 0.321-0.307 0.6-0.598 0.776s-0.635 0.235-0.956 0.163c-0.321-0.072-0.592-0.268-0.754-0.545z"></path>
<path fill="#4c58a2" style="fill: var(--color4, #4c58a2)" d="M10.296 17.008c-0.533-0.705-1.543-0.85-2.252-0.32s-0.855 1.535-0.322 2.24l1.915 2.54c0.241 0.32 0.206 0.765-0.075 1.045l-0.644 0.64c-0.337 0.335-0.885 0.31-1.186-0.055l-4.515-5.39v-7.42c0-0.885-0.719-1.6-1.609-1.6s-1.254 1.6-1.254 1.6c0 0-0.623 6.115 0.449 10.835 0.804 1.573 0.731 1.605 1.073 2.030l3.885 6.27c0.175 0.274 0.332 0.634 0.523 1.085 0.014 0.053 0.033 0.104 0.057 0.151 0.132 0.261 0.406 0.429 0.712 0.429h6.621c0.442 0 0.804-0.36 0.804-0.8v-5.6c0-1.385-0.452-2.73-1.287-3.84l-2.896-3.84zM30.566 8.688c-0.89 0-1.765 0.715-1.765 1.6l-0.38 7.426-3.978 5.384c-0.302 0.36-0.855 0.385-1.186 0.055l-0.644-0.64c-0.282-0.28-0.317-0.725-0.075-1.045l1.915-2.54c0.533-0.705 0.387-1.71-0.322-2.24s-1.719-0.385-2.252 0.32l-2.896 3.84c-0.835 1.11-1.287 2.455-1.287 3.84v5.6c0 0.44 0.362 0.8 0.804 0.8h6.621c0.357 0 0.679-0.235 0.769-0.58 0.101-0.39 0.271-0.76 0.523-1.085l3.884-5.678c0.342-0.425 1.072-2.884 1.072-3.409l0.63-10.048c0-0.885-0.545-1.6-1.435-1.6z"></path>
</symbol>
<symbol id="icon-Icon_star" viewBox="0 0 32 32">
<path fill="#f5f5f5" style="fill: var(--color1, #f5f5f5)" d="M29.751 16.133c0.908 7.2-3.578 13.2-11.351 13.2s-16.8-6.131-16.8-13.2c0-7.069 0.853-15.6 8.627-15.6s19.524 8.531 19.524 15.6z"></path>
<path fill="#4c58a2" style="fill: var(--color4, #4c58a2)" d="M29.794 10.708l-8.898-0.78-3.474-8.266c-0.625-1.505-2.758-1.505-3.383 0l-3.474 8.285-8.879 0.762c-1.618 0.13-2.28 2.173-1.048 3.251l6.747 5.907-2.022 8.768c-0.368 1.598 1.342 2.861 2.739 2.006l7.629-4.644 7.629 4.662c1.397 0.855 3.107-0.409 2.739-2.006l-2.022-8.786 6.747-5.907c1.232-1.077 0.588-3.121-1.029-3.251zM15.731 22.522l-6.912 4.217 1.838-7.95-6.103-5.35 8.052-0.706 3.125-7.486 3.144 7.504 8.052 0.706-6.103 5.35 1.838 7.95-6.931-4.235z"></path>
<path fill="none" stroke="#f7d056" style="stroke: var(--color6, #f7d056)" stroke-linejoin="miter" stroke-linecap="butt" stroke-miterlimit="4" stroke-width="1.0667" d="M24.725 17.235l3.254-2.712"></path>
<path fill="none" stroke="#f7d056" style="stroke: var(--color6, #f7d056)" stroke-linejoin="miter" stroke-linecap="butt" stroke-miterlimit="4" stroke-width="1.0667" d="M22.917 20.671l1.029 4.109"></path>
</symbol>
<symbol id="icon-Icon_collage" viewBox="0 0 32 32">
<path fill="#f5f5f5" style="fill: var(--color1, #f5f5f5)" d="M28.258 20.862l-28.525 5.331 5.849-19.713 12.897-5.427 9.779 19.809z"></path>
<path fill="#4c58a2" style="fill: var(--color4, #4c58a2)" d="M16.267 4.267l-14.667 9.422 5.333 3.423v9.422l9.333 5.999 9.333-5.999v-9.422l2.667-1.712v10.851h2.667v-12.563l-14.667-9.422zM25.36 13.689l-9.093 5.842-9.093-5.842 9.093-5.842 9.093 5.842zM22.933 24.681l-6.667 4.271-6.667-4.271v-5.858l6.667 4.287 6.667-4.287v5.858z"></path>
<path fill="none" stroke="#f7d056" style="stroke: var(--color6, #f7d056)" stroke-linejoin="miter" stroke-linecap="square" stroke-miterlimit="4" stroke-width="1.0667" d="M9.5 12l5.408 3.030"></path>
</symbol>
<symbol id="icon-Icon_dev" viewBox="0 0 32 32">
<path fill="#4c58a2" style="fill: var(--color4, #4c58a2)" d="M0.415 16.941l7.623-15.806c0.387-0.803 1.168-1.246 1.959-1.111l19.573 3.348c0.939 0.161 1.634 1.087 1.634 2.177v21.146c0 1.145-0.764 2.099-1.758 2.194l-24.926 2.385c-0.946 0.090-1.807-0.628-2.025-1.689l-2.271-11.074c-0.109-0.532-0.042-1.093 0.189-1.571z"></path>
<path fill="#f5f5f5" style="fill: var(--color1, #f5f5f5)" d="M29.333 27.611c-0.294 0-0.533-0.246-0.533-0.549v-17.556c0-0.302-0.24-0.549-0.533-0.549h-24.533c-0.293 0-0.533 0.247-0.533 0.549v17.556c0 0.303-0.239 0.549-0.533 0.549s-0.533-0.246-0.533-0.549v-17.556c0-0.907 0.718-1.646 1.6-1.646h24.533c0.882 0 1.6 0.738 1.6 1.646v17.556c0 0.303-0.239 0.549-0.533 0.549z"></path>
<path fill="#f5f5f5" style="fill: var(--color1, #f5f5f5)" d="M29.333 32h-26.667c-1.471 0-2.667-1.23-2.667-2.743 0-0.303 0.239-0.549 0.533-0.549h11.733c0.294 0 0.533 0.246 0.533 0.549s-0.239 0.549-0.533 0.549h-11.108c0.22 0.639 0.813 1.097 1.508 1.097h26.667c0.695 0 1.289-0.459 1.508-1.097h-11.108c-0.294 0-0.533-0.246-0.533-0.549s0.239-0.549 0.533-0.549h11.733c0.294 0 0.533 0.246 0.533 0.549 0 1.513-1.196 2.743-2.667 2.743z"></path>
<path fill="#ffe600" style="fill: var(--color7, #ffe600)" d="M16.959 27.611h-1.919c-0.251 0-0.467-0.18-0.521-0.432l-0.316-1.485c-0.443-0.133-0.868-0.315-1.274-0.544l-1.244 0.82c-0.211 0.138-0.487 0.109-0.665-0.073l-1.356-1.395c-0.177-0.182-0.208-0.467-0.073-0.684l0.797-1.279c-0.223-0.417-0.4-0.855-0.529-1.31l-1.442-0.325c-0.244-0.055-0.419-0.278-0.419-0.535v-1.974c0-0.258 0.174-0.481 0.419-0.535l1.441-0.325c0.131-0.456 0.308-0.894 0.53-1.31l-0.797-1.279c-0.135-0.216-0.106-0.501 0.071-0.684l1.356-1.395c0.177-0.182 0.453-0.212 0.665-0.073l1.245 0.82c0.407-0.229 0.833-0.411 1.273-0.543l0.316-1.484c0.054-0.255 0.271-0.433 0.523-0.433h1.919c0.251 0 0.467 0.179 0.521 0.432l0.316 1.483c0.441 0.132 0.867 0.314 1.273 0.543l1.245-0.82c0.211-0.138 0.487-0.109 0.665 0.074l1.356 1.395c0.177 0.182 0.207 0.467 0.071 0.684l-0.797 1.281c0.223 0.418 0.4 0.856 0.528 1.309l1.443 0.325c0.244 0.055 0.419 0.278 0.419 0.535v1.974c0 0.258-0.174 0.481-0.419 0.535l-1.443 0.325c-0.128 0.452-0.305 0.891-0.528 1.309l0.797 1.281c0.135 0.216 0.106 0.501-0.071 0.684l-1.356 1.397c-0.178 0.183-0.455 0.212-0.666 0.074l-1.244-0.822c-0.404 0.229-0.83 0.41-1.273 0.543l-0.316 1.486c-0.053 0.253-0.27 0.433-0.522 0.433zM15.47 26.514h1.060l0.293-1.381c0.044-0.206 0.199-0.37 0.399-0.418 0.559-0.134 1.089-0.361 1.578-0.673 0.173-0.111 0.395-0.111 0.57 0.004l1.156 0.764 0.75-0.771-0.741-1.192c-0.111-0.178-0.112-0.405-0.005-0.584 0.306-0.509 0.527-1.056 0.655-1.623 0.047-0.206 0.205-0.366 0.406-0.411l1.341-0.302v-1.091l-1.341-0.302c-0.201-0.045-0.359-0.205-0.406-0.41-0.129-0.571-0.35-1.117-0.655-1.624-0.108-0.179-0.106-0.406 0.005-0.584l0.741-1.191-0.75-0.771-1.157 0.763c-0.172 0.114-0.394 0.115-0.567 0.005-0.494-0.314-1.025-0.541-1.579-0.674-0.201-0.048-0.355-0.211-0.399-0.417l-0.293-1.383h-1.060l-0.293 1.38c-0.044 0.206-0.199 0.369-0.4 0.417-0.553 0.132-1.084 0.359-1.578 0.674-0.174 0.111-0.396 0.109-0.567-0.005l-1.157-0.763-0.75 0.771 0.741 1.191c0.111 0.178 0.112 0.406 0.004 0.585-0.303 0.5-0.524 1.047-0.657 1.624-0.047 0.206-0.204 0.364-0.404 0.409l-1.34 0.302v1.091l1.341 0.302c0.201 0.045 0.359 0.205 0.406 0.411 0.13 0.573 0.35 1.119 0.654 1.623 0.109 0.179 0.108 0.407-0.004 0.585l-0.741 1.191 0.75 0.771 1.157-0.763c0.174-0.114 0.397-0.114 0.569-0.004 0.49 0.313 1.020 0.539 1.578 0.673 0.201 0.048 0.356 0.211 0.4 0.418l0.292 1.383zM15.999 23.222c-2.059 0-3.733-1.723-3.733-3.84s1.675-3.84 3.733-3.84c2.059 0 3.733 1.723 3.733 3.84 0 0.303-0.239 0.549-0.533 0.549s-0.533-0.246-0.533-0.549c0-1.513-1.196-2.743-2.667-2.743s-2.667 1.23-2.667 2.743c0 1.513 1.196 2.743 2.667 2.743 0.178 0 0.352-0.019 0.519-0.052 0.286-0.064 0.57 0.134 0.626 0.432 0.058 0.297-0.131 0.586-0.42 0.644-0.234 0.048-0.477 0.072-0.725 0.072z"></path>
<path fill="#f5f5f5" style="fill: var(--color1, #f5f5f5)" d="M18.667 22.204c0.295 0 0.533-0.246 0.533-0.549s-0.239-0.549-0.533-0.549c-0.295 0-0.533 0.246-0.533 0.549s0.239 0.549 0.533 0.549z"></path>
</symbol>
<symbol id="icon-Icon_vac" viewBox="0 0 32 32">
<path fill="#4c58a2" style="fill: var(--color4, #4c58a2)" d="M16.583 1.25l11.271 8.194c0.573 0.416 0.859 1.197 0.719 1.958l-3.478 18.842c-0.167 0.904-0.886 1.533-1.691 1.479l-15.604-1.058c-0.845-0.057-7.152-11.421-7.171-12.39l5.165-13.753c-0.018-0.923 0.556-1.724 1.351-1.882l8.288-1.652c0.399-0.079 0.808 0.014 1.15 0.262z"></path>
<path fill="#ffe500" style="fill: var(--color8, #ffe500)" d="M19.467 13.415c0 0.797-0.289 1.56-0.803 2.124s-1.211 0.88-1.938 0.88c-0.727 0-1.424-0.316-1.938-0.88s-0.803-1.327-0.803-2.124 0.289-1.56 0.803-2.124c0.514-0.563 1.211-0.88 1.938-0.88s1.424 0.316 1.938 0.88c0.514 0.563 0.803 1.327 0.803 2.124z"></path>
<path fill="#ffe500" style="fill: var(--color8, #ffe500)" d="M9.417 15.417c0-2.124 0.77-4.161 2.141-5.663s3.23-2.346 5.168-2.346c1.939 0 3.798 0.844 5.168 2.346s2.141 3.539 2.141 5.663c0 2.124-0.77 4.161-2.141 5.663s-3.23 2.346-5.168 2.346-3.798-0.844-5.168-2.346c-1.371-1.502-2.141-3.539-2.141-5.663zM16.726 8.409c-1.204 0-2.384 0.373-3.404 1.075s-1.838 1.706-2.36 2.895-0.727 2.516-0.591 3.827c0.136 1.311 0.607 2.554 1.359 3.585 0.649-1.145 2.077-2.373 4.996-2.373s4.346 1.226 4.996 2.373c0.752-1.031 1.223-2.273 1.359-3.585s-0.069-2.638-0.591-3.827c-0.522-1.189-1.34-2.193-2.36-2.895s-2.2-1.075-3.404-1.075z"></path>
<path fill="#f5f5f5" style="fill: var(--color1, #f5f5f5)" d="M5.761 15.108c-0.593 0-1.1-0.231-1.522-0.694s-0.633-1.018-0.633-1.668c0-0.649 0.211-1.205 0.633-1.668s0.929-0.694 1.522-0.694 1.1 0.231 1.522 0.694c0.422 0.462 0.633 1.018 0.633 1.668s-0.211 1.205-0.633 1.668c-0.422 0.462-0.929 0.694-1.522 0.694zM2.528 19.831c-0.296 0-0.55-0.116-0.761-0.347s-0.317-0.509-0.317-0.834v-0.472c0-0.334 0.079-0.642 0.236-0.923s0.366-0.494 0.626-0.642c0.557-0.305 1.123-0.534 1.697-0.687s1.159-0.228 1.751-0.228 1.176 0.076 1.751 0.228c0.575 0.153 1.141 0.382 1.697 0.687 0.26 0.148 0.469 0.361 0.626 0.642s0.236 0.588 0.236 0.923v0.472c0 0.325-0.105 0.603-0.316 0.834s-0.465 0.347-0.761 0.347h-6.466z"></path>
<path fill="#f5f5f5" style="fill: var(--color1, #f5f5f5)" d="M27.69 15.108c-0.593 0-1.1-0.231-1.522-0.694s-0.633-1.018-0.633-1.668c0-0.649 0.211-1.205 0.633-1.668s0.93-0.694 1.522-0.694 1.1 0.231 1.522 0.694c0.422 0.462 0.633 1.018 0.633 1.668s-0.211 1.205-0.633 1.668c-0.422 0.462-0.93 0.694-1.522 0.694zM24.457 19.831c-0.296 0-0.55-0.116-0.761-0.347s-0.317-0.509-0.317-0.834v-0.472c0-0.334 0.079-0.642 0.236-0.923s0.366-0.494 0.626-0.642c0.557-0.305 1.123-0.534 1.697-0.687s1.159-0.228 1.751-0.228 1.176 0.076 1.751 0.228c0.575 0.153 1.141 0.382 1.697 0.687 0.26 0.148 0.469 0.361 0.626 0.642s0.236 0.588 0.236 0.923v0.472c0 0.325-0.105 0.603-0.316 0.834s-0.465 0.347-0.761 0.347h-6.466z"></path>
<path fill="#f5f5f5" style="fill: var(--color1, #f5f5f5)" d="M24.493 15.916c0 1.878-0.54 3.612-1.45 5.019l4.588 5.183c0.453 0.511 0.453 1.342 0 1.853s-1.189 0.511-1.642 0l-4.588-5.183c-1.247 1.031-2.783 1.636-4.447 1.636-4.164 0-7.538-3.808-7.538-8.508s3.374-8.508 7.538-8.508c4.164 0 7.538 3.808 7.538 8.508zM16.955 21.806c2.881 0 5.219-2.638 5.219-5.89s-2.338-5.89-5.219-5.89c-2.881 0-5.219 2.638-5.219 5.89s2.338 5.89 5.219 5.89z"></path>
</symbol>
<symbol id="icon-Icon_men" viewBox="0 0 32 32">
<path fill="#4c58a2" style="fill: var(--color4, #4c58a2)" d="M13.289 13.4l8.72-11.092c0.507-0.646 1.339-0.912 2.108-0.675l4.233 1.302c0.702 0.216 1.149 0.928 1.057 1.681l-2.161 17.73c-0.105 0.861-0.619 1.61-1.369 1.994l-14.441 7.392c-1.151 0.589-2.544 0.173-3.218-0.96l-7.994-13.439c-0.584-0.981 0.032-2.257 1.138-2.359l10.903-1.011c0.401-0.037 0.77-0.24 1.024-0.564z"></path>
<path fill="none" stroke="#f5f5f5" style="stroke: var(--color1, #f5f5f5)" stroke-linejoin="round" stroke-linecap="round" stroke-miterlimit="4" stroke-width="1.6" d="M4.904 7.742v9.677"></path>
<path fill="none" stroke="#ffe500" style="stroke: var(--color8, #ffe500)" stroke-linejoin="round" stroke-linecap="round" stroke-miterlimit="4" stroke-width="1.6" d="M21.512 9.944c0.888 0.969 1.474 2.176 1.688 3.473s0.046 2.628-0.484 3.831c-0.53 1.203-1.398 2.226-2.499 2.944s-2.387 1.101-3.701 1.101-2.6-0.382-3.701-1.101c-1.101-0.718-1.969-1.741-2.499-2.944s-0.698-2.534-0.484-3.831c0.214-1.297 0.8-2.504 1.688-3.473"></path>
<path fill="none" stroke="#ffe500" style="stroke: var(--color8, #ffe500)" stroke-linejoin="round" stroke-linecap="round" stroke-miterlimit="4" stroke-width="1.6" d="M7.59 26.128c0.968-1.485 2.292-2.705 3.851-3.55s3.304-1.287 5.077-1.287 3.518 0.442 5.077 1.287c1.559 0.845 2.882 2.065 3.851 3.55"></path>
<path fill="none" stroke="#f5f5f5" style="stroke: var(--color1, #f5f5f5)" stroke-linejoin="round" stroke-linecap="round" stroke-miterlimit="4" stroke-width="1.6" d="M28.13 7.742l-11.613 3.871-11.613-3.871 11.613-3.871 11.613 3.871z"></path>
</symbol>
<symbol id="icon-Icon_tools" viewBox="0 0 32 32">
<path fill="#4c58a2" style="fill: var(--color4, #4c58a2)" d="M0.727 15.857l9.452-12.805c0.376-0.616 1.134-0.956 1.902-0.852l19.002 2.568c0.912 0.123-1.778 7.894-1.778 8.731l-5.716 6.838c0 0.878 3.538 3.536 2.858 4.48l-19.682 1.359c-0.918 0.069-1.755-0.482-1.966-1.296l3.462-5.251c-0.106-0.409-7.015-1.65-7.534-3.772z"></path>
<path fill="#ffe600" style="fill: var(--color7, #ffe600)" d="M31.263 27.089l-9.865-9.936c-1.306-1.315-0.676-2.282-0.676-2.282l-0.006-0.007c0.436-0.905 0.289-2.020-0.455-2.772l-3.84-3.867c-0.942-0.95-2.471-0.95-3.414 0l-0.649 0.653c0 0-0.269 0.539 0.958 0.611l0.001 0.002c0 0 0.565 0.048 1.116 0.604l1.359 1.369c0.497 0.5 0.51 1.021 0.487 1.256-0.113 0.644-0.408 1.262-0.903 1.759-0.49 0.495-1.1 0.79-1.735 0.904-0.281 0.026-0.817-0.023-1.409-0.62l-1.030-1.039c-0.649-0.654-0.787-1.497-0.787-1.497h-0.002c-0.251-1.147-0.595-0.79-0.595-0.79l-0.65 0.654c-0.943 0.949-0.943 2.488-0.001 3.438l3.839 3.866c0.785 0.791 1.972 0.913 2.893 0.388l0.007 0.008c0 0 0.845-0.538 1.982 0.608l10.237 10.311c0 0 1.244 1.23 2.418 0.049l0.968-0.975c0.327-0.368 1.020-1.414-0.252-2.695z"></path>
<path fill="#f5f5f5" style="fill: var(--color1, #f5f5f5)" d="M20.394 25.737c-0.613-0.734-1.596-0.279-1.596-0.279l-0.003-0.007c-0.084 0.029-0.166 0.062-0.252 0.089-0.027 0.010-0.044 0.021-0.075 0.034-1.343 0.498-1.356 1.527-1.356 1.527v1.206c-0.019 1.027-0.833 1.207-1.253 1.234h-0.487c-1.045 0.021-1.233-0.622-1.26-0.967v-1.389c0-1.277-1.416-1.63-1.416-1.63l0.004-0.006c-0.767-0.228-1.492-0.553-2.173-0.943-0.028-0.013-0.051-0.020-0.082-0.036-1.146-0.578-2 0.238-2 0.238l-0.974 0.981c-0.68 0.682-1.183 0.364-1.368 0.196l-0.078-0.080-0.003-0.004h-0l-0.8-0.806c-0-0.002-0.002-0.002-0.003-0.003-0.626-0.63 0.188-1.496 0.297-1.605l0.95-0.956c0 0 0-0.003 0-0.003 0.732-0.737 0.157-1.885 0.157-1.885s0.008-0.002 0.010-0.002c-0.365-0.668-0.667-1.376-0.883-2.125-0.007-0.020-0.015-0.032-0.022-0.053-0.482-1.343-1.699-1.32-1.722-1.32l-0.923 0.004c-1.080 0.002-1.275-0.706-1.304-1.077l-0.002-0.749c0.006-0.309 0.118-1.185 1.211-1.195 0.001 0 0.001 0 0.001 0l1.183-0.005c0 0 1.115 0.052 1.511-1.144 0.006-0.015 0.013-0.023 0.018-0.038 0.237-0.881 0.58-1.718 1.024-2.487 0 0 0-0 0-0.002 0.565-1.144-0.242-2.002-0.347-2.106l-0.805-0.809c0 0-0-0-0.002-0.002-0.776-0.782-0.244-1.459-0.060-1.652l0.419-0.422c0 0 0.885-0.943 1.821 0 0.002 0 0.002 0.001 0.003 0.002l0.914 0.921c0.172 0.165 0.876 0.741 1.885 0.247 0.004-0.002 0.005-0.002 0.009-0.003 0.65-0.37 1.348-0.661 2.075-0.885 0.020-0.008 0.030-0.018 0.052-0.027 1.171-0.463 1.39-1.191 1.422-1.567v-1.375c0.007-0.23 0.094-1.135 1.144-1.135h0.657c0 0 1.198-0.040 1.198 1.303v1.038c0.006 0.296 0.109 1.282 1.238 1.683 0.002 0.001 0.002 0.002 0.005 0.003 0.684 0.19 1.336 0.456 1.954 0.779l0.006-0.005c0 0 1.409 0.881 2.473-0.19l0.712-0.717c0.033-0.033 0.996-0.972 1.716-0.247 0.002 0 0.003 0.002 0.003 0.003l0.59 0.592c0 0 0.715 0.877-0.185 1.784l-0.797 0.803c0 0-0.831 0.857-0.227 2.157 0.010 0.023 0.010 0.036 0.020 0.058 0.368 0.675 0.658 1.397 0.872 2.153 0.002-0.002 0.010-0.008 0.010-0.008s0.258 1.303 1.412 1.3l1.201-0.005c0.032-0.001 1.368-0.022 1.371 1.249l0.003 0.534v0.133c-0.011 0.314-0.16 1.101-1.402 1.105l-1.074 0.004c-0.84 0.008-1.258 0.701-1.442 1.142-0.070 0.193-0.233 0.818 0.359 1.405l0.152 0.151c0.003 0.003 0.005 0.004 0.007 0.006 0.886 0.956 1.518-0.383 1.518-0.383 0.402-0.672 0.989-0.807 1.303-0.829h1.639c0.498 0 0.902-0.406 0.902-0.908v-4.189c0-0.501-0.404-0.908-0.902-0.908h-1.563c-1.226 0-1.535-1.145-1.535-1.145s-0.008 0.002-0.011 0.003c-0.182-0.528-0.39-1.046-0.638-1.54 0-0.002 0-0.002-0.002-0.004-0.413-0.916 0.362-1.696 0.404-1.737l0.997-1.006c0.352-0.355 0.352-0.929 0-1.285l-2.941-2.962c-0.353-0.354-0.924-0.354-1.276 0.001l-0.725 0.729c-1.131 1.146-2.192 0.593-2.192 0.593l-0.002 0.003c-0.407-0.196-0.823-0.373-1.251-0.527-0.020-0.010-0.034-0.018-0.054-0.027-0.946-0.39-1.070-1.366-1.082-1.762v-1.056c0-0.502-0.404-0.908-0.902-0.908h-4.33c-0.497 0-0.902 0.407-0.902 0.908v1.313c0 1.315-1.104 1.514-1.104 1.514l0.007 0.007c-0.478 0.172-0.946 0.363-1.397 0.589-0.008 0.003-0.012 0.002-0.020 0.005-0.9 0.402-1.398 0.008-1.525-0.115l-0.031-0.031-0.005-0.006h-0l-1.22-1.231c-0.353-0.354-0.924-0.354-1.276-0.002l-2.944 2.961c-0.352 0.355-0.353 0.929 0 1.284l0.977 0.985c0 0 0.848 0.823 0.427 1.747 0 0.002 0 0.002 0 0.002-0.243 0.482-0.448 0.985-0.629 1.5-0.013 0.027-0.025 0.047-0.037 0.079-0.375 0.921-1.071 1.097-1.443 1.124h-1.422c-0.498 0-0.902 0.408-0.902 0.908v4.189c0 0.502 0.404 0.908 0.902 0.908h1.619c0.916 0 1.157 0.851 1.157 0.851s0.006-0.016 0.010-0.023c0.187 0.587 0.401 1.162 0.668 1.708-0 0-0.005 0.003-0.005 0.003s0.572 0.977-0.069 1.622v0.002l-1.259 1.267c-0.352 0.354-0.352 0.931 0 1.284l2.942 2.962c0.353 0.355 0.923 0.355 1.275 0l1.185-1.192c0.155-0.149 0.701-0.554 1.753-0.117 0.011 0.006 0.018 0.007 0.027 0.011 0.401 0.191 0.814 0.365 1.237 0.515l-0.005 0.005c0 0 1.108 0.332 1.108 1.453v1.375c0 0.502 0.405 0.908 0.902 0.908h4.33c0.498 0 0.902-0.406 0.902-0.908v-1.506c0.020-0.332 0.166-0.959 0.942-1.267 0.030-0.013 0.049-0.023 0.072-0.034 0.3-0.105 0.588-0.233 0.878-0.358 0.7-0.392 0.051-1.19 0.051-1.19l-0.228-0.273z"></path>
</symbol>
<symbol id="icon-Icon_map" viewBox="0 0 32 32">
<path fill="#4c58a2" style="fill: var(--color4, #4c58a2)" d="M14.455 12.455l9.485-11.656c0.552-0.678 1.456-0.958 2.293-0.709l4.604 1.369c0.763 0.227 1.25 0.975 1.15 1.767l-2.351 18.632c-0.114 0.905-0.673 1.692-1.489 2.095l-15.708 7.768c-1.252 0.619-2.767 0.182-3.5-1.009l-8.695-14.122c-0.635-1.031 0.034-2.372 1.238-2.479l11.859-1.062c0.436-0.039 0.837-0.253 1.114-0.593z"></path>
<path fill="#f5f5f5" style="fill: var(--color1, #f5f5f5)" d="M25.929 3.078c-0.81-0.776-1.895-1.231-3.039-1.277s-2.265 0.323-3.139 1.032-1.438 1.707-1.579 2.796c-0.142 1.089 0.149 2.188 0.815 3.081l2.984 4.001c0.083 0.111 0.193 0.202 0.32 0.265s0.268 0.095 0.411 0.095 0.284-0.033 0.411-0.095c0.127-0.063 0.237-0.153 0.32-0.265l2.984-4.001c0.631-0.841 0.928-1.87 0.839-2.902s-0.559-2-1.326-2.73zM22.702 7.603c-0.296 0-0.585-0.084-0.831-0.242s-0.438-0.381-0.551-0.643c-0.113-0.262-0.143-0.55-0.085-0.828s0.2-0.533 0.41-0.734c0.209-0.2 0.476-0.337 0.766-0.392s0.591-0.027 0.864 0.082c0.273 0.108 0.507 0.292 0.672 0.528s0.252 0.513 0.252 0.796c0 0.38-0.158 0.745-0.438 1.013s-0.661 0.42-1.058 0.42z"></path>
<path fill="#f5f5f5" style="fill: var(--color1, #f5f5f5)" d="M22.702 15.173c-0.118 0-0.235 0.022-0.344 0.065s-0.208 0.107-0.291 0.186-0.149 0.175-0.195 0.279c-0.045 0.104-0.068 0.216-0.068 0.329v1.833c0 0.806-0.334 1.579-0.929 2.149s-1.402 0.89-2.244 0.89-1.649-0.32-2.244-0.89c-0.595-0.57-0.929-1.343-0.929-2.149v-7.798c0.001-0.625-0.127-1.245-0.377-1.823s-0.615-1.103-1.077-1.546c-0.461-0.442-1.009-0.793-1.613-1.033s-1.25-0.363-1.903-0.363c-0.653 0-1.299 0.123-1.903 0.363s-1.151 0.59-1.613 1.033c-0.461 0.442-0.827 0.968-1.077 1.546s-0.377 1.197-0.377 1.823v4.054c0.001 0.228 0.095 0.446 0.264 0.607s0.396 0.251 0.634 0.251 0.466-0.090 0.634-0.251c0.168-0.161 0.263-0.379 0.264-0.607v-4.054c-0.001-0.399 0.081-0.795 0.24-1.164s0.393-0.705 0.688-0.987c0.295-0.283 0.645-0.507 1.030-0.66s0.798-0.232 1.215-0.232 0.83 0.079 1.215 0.232c0.385 0.153 0.735 0.377 1.030 0.66s0.528 0.618 0.688 0.987c0.159 0.369 0.241 0.765 0.24 1.164v7.798c0 1.262 0.523 2.473 1.455 3.365s2.196 1.394 3.513 1.394c1.318 0 2.582-0.501 3.513-1.394s1.455-2.103 1.455-3.365v-1.833c0-0.113-0.023-0.225-0.068-0.329s-0.111-0.199-0.195-0.279c-0.083-0.080-0.182-0.143-0.291-0.186s-0.226-0.065-0.344-0.065z"></path>
<path fill="#ffe600" style="fill: var(--color7, #ffe600)" d="M6.418 17.085c-0.572 0-1.131 0.162-1.607 0.467s-0.846 0.737-1.065 1.243c-0.219 0.506-0.276 1.063-0.165 1.601s0.387 1.031 0.792 1.419c0.405 0.387 0.92 0.651 1.481 0.758s1.143 0.052 1.671-0.158c0.529-0.21 0.98-0.565 1.298-1.020s0.488-0.991 0.488-1.539c-0.001-0.735-0.306-1.439-0.848-1.958s-1.278-0.812-2.045-0.812z"></path>
</symbol>
<symbol id="icon-Icon_pencil" viewBox="0 0 32 32">
<path fill="#4c58a2" style="fill: var(--color4, #4c58a2)" d="M18.494 1.704l12.709 7.854c0.646 0.399 0.97 1.145 0.814 1.872l-3.869 17.98c-0.186 0.863-0.994 1.461-1.9 1.407l-17.57-1.053c-0.951-0.057-8.080-10.924-8.103-11.849l5.782-13.116c-0.023-0.882 0.622-1.644 1.516-1.793l9.327-1.554c0.448-0.075 0.91 0.016 1.295 0.253z"></path>
<path fill="none" stroke="#f5f5f5" style="stroke: var(--color1, #f5f5f5)" stroke-linejoin="round" stroke-linecap="round" stroke-miterlimit="10" stroke-width="1.0667" d="M13.173 6.5v2.118"></path>
<path fill="none" stroke="#f5f5f5" style="stroke: var(--color1, #f5f5f5)" stroke-linejoin="round" stroke-linecap="round" stroke-miterlimit="10" stroke-width="1.0667" d="M14.21 7.558h-2.072"></path>
<path fill="none" stroke="#fbff25" style="stroke: var(--color9, #fbff25)" stroke-linejoin="round" stroke-linecap="round" stroke-miterlimit="10" stroke-width="1.0667" d="M17.59 21.882v2.118"></path>
<path fill="none" stroke="#fbff25" style="stroke: var(--color9, #fbff25)" stroke-linejoin="round" stroke-linecap="round" stroke-miterlimit="10" stroke-width="1.0667" d="M18.626 22.941h-2.072"></path>
<path fill="none" stroke="#fbff25" style="stroke: var(--color9, #fbff25)" stroke-linejoin="round" stroke-linecap="round" stroke-miterlimit="10" stroke-width="0.5333" d="M11.577 10.41v1.182"></path>
<path fill="none" stroke="#fbff25" style="stroke: var(--color9, #fbff25)" stroke-linejoin="round" stroke-linecap="round" stroke-miterlimit="10" stroke-width="0.5333" d="M12.156 11.001h-1.156"></path>
<path fill="none" stroke="#f5f5f5" style="stroke: var(--color1, #f5f5f5)" stroke-linejoin="round" stroke-linecap="round" stroke-miterlimit="10" stroke-width="0.5333" d="M19.921 18.845v1.182"></path>
<path fill="none" stroke="#f5f5f5" style="stroke: var(--color1, #f5f5f5)" stroke-linejoin="round" stroke-linecap="round" stroke-miterlimit="10" stroke-width="0.5333" d="M20.5 19.436h-1.156"></path>
<path fill="none" stroke="#f5f5f5" style="stroke: var(--color1, #f5f5f5)" stroke-linejoin="round" stroke-linecap="round" stroke-miterlimit="10" stroke-width="1.0667" d="M24.114 11.2l-3.814-3.814-13.395 13.395 3.814 3.814 13.395-13.395z"></path>
<path fill="none" stroke="#f5f5f5" style="stroke: var(--color1, #f5f5f5)" stroke-linejoin="round" stroke-linecap="round" stroke-miterlimit="10" stroke-width="1.0667" d="M8.795 22.705l1.903 1.902-5.198 1.393 1.393-5.198 1.902 1.903z"></path>
<path fill="none" stroke="#f5f5f5" style="stroke: var(--color1, #f5f5f5)" stroke-linejoin="round" stroke-linecap="round" stroke-miterlimit="10" stroke-width="1.0667" d="M26 9.315l-3.814-3.814-1.886 1.885 3.814 3.814 1.886-1.886z"></path>
</symbol>
<symbol id="icon-Icon_lamp" viewBox="0 0 32 32">
<path fill="#4c58a2" style="fill: var(--color4, #4c58a2)" d="M0.911 21.277l27.435-12.427c1.306-0.591 3.215-0.019 3.117 0.934l-2.095 20.366c-0.083 0.81-1.606 1.295-2.846 0.906l-25.34-7.939c-1.214-0.38-1.356-1.349-0.27-1.841z"></path>
<path fill="#f5f5f5" style="fill: var(--color1, #f5f5f5)" d="M15.079 26.869l10.086-3.347c0.371-0.123 0.785 0.045 0.923 0.375s-0.050 0.698-0.422 0.821l-10.086 3.347c-0.371 0.123-0.785-0.045-0.923-0.375s0.050-0.698 0.422-0.821zM17.426 28.816l7.397-2.454c0.371-0.123 0.785 0.045 0.923 0.375s-0.050 0.698-0.422 0.821l-7.397 2.454c-0.371 0.123-0.785-0.045-0.923-0.375s0.050-0.698 0.422-0.821zM19.774 30.763l4.707-1.562c0.371-0.123 0.785 0.045 0.923 0.375s-0.050 0.698-0.422 0.821l-4.707 1.562c-0.371 0.123-0.785-0.045-0.923-0.375s0.050-0.698 0.422-0.821zM23.24 17.104c2.499-2.797 3.338-6.656 1.832-10.247-2.285-5.452-9.105-8.223-15.232-6.19s-9.242 8.101-6.957 13.553c1.505 3.592 4.979 6.020 8.926 6.678l1.844 4.4c0.138 0.33 0.552 0.498 0.923 0.375s0.56-0.491 0.422-0.821l-2.14-5.106c-3.788-0.367-7.208-2.579-8.63-5.972-2.008-4.791 0.729-10.123 6.114-11.91s11.378 0.649 13.386 5.44c1.422 3.393 0.464 7.057-2.128 9.541l2.14 5.106c0.138 0.33 0.552 0.498 0.923 0.375s0.56-0.491 0.422-0.821l-1.844-4.4z"></path>
<path fill="#f7d056" style="fill: var(--color6, #f7d056)" d="M14.933 8.533v0c-2.356 0-4.267 1.433-4.267 3.2v0c0 1.767 1.91 3.2 4.267 3.2v0c2.356 0 4.267-1.433 4.267-3.2v0c0-1.767-1.91-3.2-4.267-3.2z"></path>
</symbol>
<symbol id="icon-Icon_geometry" viewBox="0 0 32 32">
<path fill="#4c58a2" style="fill: var(--color4, #4c58a2)" d="M1.312 16.076l7.598-14.589c0.386-0.741 1.164-1.15 1.953-1.025l19.508 3.090c0.936 0.148 1.629 1.003 1.629 2.010v19.518c0 1.057-0.762 1.937-1.752 2.025l-24.842 2.202c-0.943 0.084-1.801-0.58-2.018-1.559l-2.263-10.221c-0.109-0.491-0.042-1.008 0.188-1.45z"></path>
<path fill="none" stroke="#f5f5f5" style="stroke: var(--color1, #f5f5f5)" stroke-linejoin="miter" stroke-linecap="butt" stroke-miterlimit="4" stroke-width="0.955" d="M6.4 15.429c2.946 0 5.333-2.558 5.333-5.714s-2.388-5.714-5.333-5.714-5.333 2.558-5.333 5.714c0 3.156 2.388 5.714 5.333 5.714z"></path>
<path fill="none" stroke="#f5f5f5" style="stroke: var(--color1, #f5f5f5)" stroke-linejoin="miter" stroke-linecap="butt" stroke-miterlimit="4" stroke-width="0.955" d="M26.667 4h-10.667v11.429h10.667v-11.429z"></path>
<path fill="#f7d056" style="fill: var(--color6, #f7d056); stroke: var(--color1, #f5f5f5)" stroke="#f5f5f5" stroke-linejoin="miter" stroke-linecap="butt" stroke-miterlimit="4" stroke-width="0.955" d="M14.012 20.743l-0.412-0.743-5.067 9.143h10.133l-4.655-8.4z"></path>
</symbol>
</defs>
</svg>
