<svg width="20" height="20" viewBox="0 0 20 20" fill="none" xmlns="http://www.w3.org/2000/svg">
<path fill-rule="evenodd" clip-rule="evenodd" d="M9 0C8.20435 0 7.44129 0.33363 6.87868 0.927495C6.31607 1.52136 6 2.32681 6 3.16667V4.22222H3C2.20435 4.22222 1.44129 4.55585 0.87868 5.14972C0.316071 5.74358 0 6.54904 0 7.38889V15.8333C0 16.6732 0.316071 17.4786 0.87868 18.0725C1.44129 18.6664 2.20435 19 3 19H17C17.7956 19 18.5587 18.6664 19.1213 18.0725C19.6839 17.4786 20 16.6732 20 15.8333V7.38889C20 6.54904 19.6839 5.74358 19.1213 5.14972C18.5587 4.55585 17.7956 4.22222 17 4.22222H14V3.16667C14 2.32681 13.6839 1.52136 13.1213 0.927495C12.5587 0.33363 11.7956 0 11 0H9ZM12 4.22222H8V3.16667C8 2.88672 8.10536 2.61823 8.29289 2.42028C8.48043 2.22232 8.73478 2.11111 9 2.11111H11C11.2652 2.11111 11.5196 2.22232 11.7071 2.42028C11.8946 2.61823 12 2.88672 12 3.16667V4.22222Z" fill="#4C58A2"/>
<line x1="4.37114e-08" y1="9.5" x2="20" y2="9.5" stroke="#252525"/>
<line x1="7.41797" y1="9.91699" x2="7.41797" y2="10.917" stroke="#252525" stroke-width="1.5" stroke-linecap="round"/>
<line x1="12.418" y1="9.91699" x2="12.418" y2="10.917" stroke="#252525" stroke-width="1.5" stroke-linecap="round"/>
</svg>
