<svg width="20" height="20" viewBox="0 0 20 20" fill="none" xmlns="http://www.w3.org/2000/svg">
<path d="M12.4419 2.08366V7.00033C12.4419 7.36699 12.0086 7.55033 11.7419 7.30866L10.2836 5.96699C10.2069 5.8948 10.1056 5.8546 10.0003 5.8546C9.89495 5.8546 9.7936 5.8948 9.71693 5.96699L8.25859 7.30033C7.99193 7.55033 7.55859 7.35866 7.55859 7.00033V2.08366C7.55859 1.85033 7.74193 1.66699 7.97526 1.66699H12.0253C12.2586 1.66699 12.4419 1.85033 12.4419 2.08366Z" fill="#4C58A2"/>
<path d="M14.15 1.71543C13.9083 1.6821 13.6917 1.89043 13.6917 2.1321V7.14877C13.6917 7.7821 13.3167 8.3571 12.7333 8.61543C12.15 8.86543 11.475 8.7571 11.0083 8.32377L10.2833 7.6571C10.2067 7.58491 10.1053 7.54471 10 7.54471C9.89469 7.54471 9.79334 7.58491 9.71667 7.6571L8.99167 8.32377C8.69167 8.6071 8.3 8.74877 7.90833 8.74877C7.68749 8.74956 7.46892 8.70414 7.26667 8.61543C6.68333 8.3571 6.30833 7.7821 6.30833 7.14877V2.1321C6.30833 1.89043 6.09167 1.6821 5.85 1.71543C3.51667 2.0071 2.5 3.5821 2.5 5.8321V14.1654C2.5 16.6654 3.75 18.3321 6.66667 18.3321H13.3333C16.25 18.3321 17.5 16.6654 17.5 14.1654V5.8321C17.5 3.5821 16.4833 2.0071 14.15 1.71543ZM14.5833 15.6238H7.5C7.15833 15.6238 6.875 15.3404 6.875 14.9988C6.875 14.6571 7.15833 14.3738 7.5 14.3738H14.5833C14.925 14.3738 15.2083 14.6571 15.2083 14.9988C15.2083 15.3404 14.925 15.6238 14.5833 15.6238ZM14.5833 12.2904H11.0417C10.7 12.2904 10.4167 12.0071 10.4167 11.6654C10.4167 11.3238 10.7 11.0404 11.0417 11.0404H14.5833C14.925 11.0404 15.2083 11.3238 15.2083 11.6654C15.2083 12.0071 14.925 12.2904 14.5833 12.2904Z" fill="#4C58A2"/>
</svg>
