<svg width="60" height="60" viewBox="0 0 60 60" fill="none" xmlns="http://www.w3.org/2000/svg">
<path d="M27.7478 28.2387L44.6426 9.29802C45.6259 8.19571 47.2362 7.74133 48.727 8.14566L56.9285 10.3696C58.2877 10.7382 59.1549 11.9537 58.9769 13.2409L54.7892 43.5176C54.5858 44.9879 53.5897 46.2665 52.1373 46.9217L24.1578 59.5446C21.9285 60.5503 19.2291 59.8406 17.923 57.9054L2.43508 34.9566C1.30445 33.2813 2.49634 31.1029 4.63938 30.9278L25.7638 29.2017C26.5398 29.1382 27.2551 28.7911 27.7478 28.2387Z" fill="#4C58A2"/>
<path d="M48.103 32.0321L48.083 32.0362L48.0631 32.0408C47.7265 32.1198 47.309 32.1347 46.8208 32.0953C44.3073 31.8922 42.5108 29.6795 43.4066 27.3837C43.8748 26.2069 45.0221 25.386 46.4485 25.207C47.3091 25.1045 48.101 25.2063 48.8519 25.4419C49.3993 25.6495 50.0234 25.8677 50.6064 26.0307C52.3064 26.538 53.9178 25.5013 54.0727 24.0726L54.98 15.7077C55.2105 13.5819 53.4294 11.6419 50.8784 11.4358L41.2504 10.6576C41.1094 10.6463 40.9923 10.5806 40.9204 10.4862C40.8492 10.3926 40.8408 10.2981 40.8748 10.2188L40.8904 10.1824L40.9025 10.145C41.0686 9.6332 41.2866 9.16458 41.5819 8.62617L41.5846 8.62117C42.0712 7.72037 42.2644 6.61626 42.0147 5.48513C41.6773 3.53281 40.0802 1.96302 37.9566 1.33248C33.9062 0.0892869 29.9894 2.48939 29.617 5.92289C29.5567 6.48004 29.572 7.0123 29.7312 7.61732C29.792 7.91637 29.8538 8.20197 29.9144 8.4816L29.915 8.4841C29.9768 8.76969 30.0374 9.04913 30.0964 9.3404C30.1363 9.59436 29.9014 9.7946 29.6287 9.77258L19.8765 8.98444C17.4138 8.78536 15.1664 10.3228 14.9277 12.525L12.0201 39.3356C11.7895 41.4615 13.5705 43.4014 16.1215 43.6076L25.8118 44.3908C25.9526 44.4021 26.0698 44.4678 26.1417 44.5622C26.213 44.6558 26.2212 44.7503 26.1874 44.8296L26.1718 44.866L26.1596 44.9034C25.9935 45.4152 25.7755 45.8838 25.4802 46.4222L25.4775 46.4272C24.9908 47.3281 24.7976 48.4321 25.0473 49.5633C25.385 51.5176 26.9852 53.0886 29.112 53.7179L29.1236 53.7213L29.1353 53.7245C33.1626 54.8311 37.0826 52.4677 37.4508 49.0719C37.5113 48.5148 37.4959 47.9825 37.3367 47.3774C37.276 47.0784 37.2141 46.7927 37.1534 46.5131L37.1529 46.5107C37.091 46.2251 37.0304 45.9456 36.9714 45.6545C36.9316 45.4004 37.1664 45.2002 37.4391 45.2223L47.1915 46.0104C49.6541 46.2094 51.9014 44.6719 52.1403 42.4698L53.0358 34.2121C53.1952 32.742 51.7251 31.5143 50.0014 31.726C49.3089 31.7901 48.6833 31.9156 48.1269 32.0273L48.103 32.0321Z" stroke="#F5F5F5" stroke-width="1.9351"/>
<path d="M15.5447 16.1012C15.5988 15.677 15.0607 15.3034 14.3428 15.2667C13.6249 15.23 12.9991 15.5441 12.945 15.9682L10.4954 35.1688C10.4413 35.593 10.9794 35.9666 11.6973 36.0033C12.4151 36.04 13.041 35.7259 13.0951 35.3017L15.5447 16.1012Z" fill="#F7D056"/>
</svg>
