<svg width="20" height="16" viewBox="0 0 20 16" fill="none" xmlns="http://www.w3.org/2000/svg">
<path d="M3.33337 13.0972V9.73347L7.20007 12.1031C8.03262 12.6132 9.00559 12.8849 10.0001 12.8849C10.9946 12.8849 11.9676 12.6132 12.8001 12.1031L16.6668 9.73347V13.0972C16.6668 13.2421 16.6167 13.3832 16.524 13.4991L16.523 13.5L16.5221 13.5018L16.5192 13.5054L16.5106 13.5143L16.4992 13.5286L16.4868 13.5438L16.4049 13.634C16.3088 13.7362 16.2081 13.8346 16.103 13.9287C15.8392 14.1672 15.4459 14.4771 14.9125 14.7844C13.8449 15.4007 12.2277 16 10.0001 16C7.77246 16 6.15625 15.4016 5.08672 14.7844C4.65874 14.5398 4.25967 14.2533 3.89623 13.9296C3.75204 13.7991 3.61625 13.6608 3.48956 13.5152L3.48099 13.5063L3.47813 13.5018V13.5C3.38483 13.3839 3.33405 13.2426 3.33337 13.0972ZM19.6764 6.28938L12.0192 10.9812C11.4189 11.3492 10.7172 11.5452 10.0001 11.5452C9.28295 11.5452 8.58133 11.3492 7.98103 10.9812L1.42859 6.96641V11.7574C1.42859 11.9351 1.35333 12.1055 1.21937 12.2311C1.08542 12.3567 0.903735 12.4273 0.714293 12.4273C0.52485 12.4273 0.343167 12.3567 0.209211 12.2311C0.0752556 12.1055 0 11.9351 0 11.7574V6.17506C0 6.09646 0.0142858 6.02143 0.0409528 5.95176C-0.012683 5.80939 -0.0134599 5.65421 0.0387482 5.51138C0.0909562 5.36854 0.193087 5.24644 0.328575 5.16487L8.00865 0.547148C8.603 0.18989 9.29414 0 10.0001 0C10.706 0 11.3972 0.18989 11.9915 0.547148L19.6716 5.16487C19.7719 5.22527 19.8545 5.30824 19.9119 5.40624C19.9692 5.50423 19.9995 5.61413 20 5.72591C20.0005 5.8377 19.9711 5.94782 19.9146 6.04624C19.8581 6.14465 19.7762 6.22824 19.6764 6.28938Z" fill="#4C58A2"/>
</svg>
