<svg width="18" height="18" viewBox="0 0 18 18" fill="none" xmlns="http://www.w3.org/2000/svg">
<path d="M17.3495 14.9386L15.8641 15.2924C15.5311 15.374 15.27 15.628 15.198 15.9636L14.8829 17.2969C14.7119 18.0225 13.7936 18.2493 13.3165 17.6779L10.6249 14.5577C10.5748 14.4996 10.5402 14.4296 10.5244 14.3543C10.5086 14.279 10.5122 14.2009 10.5347 14.1273C10.5572 14.0538 10.598 13.9872 10.6532 13.934C10.7083 13.8807 10.7761 13.8425 10.8499 13.823C12.4479 13.4316 13.878 12.5314 14.9279 11.2561C15.0989 11.0475 15.405 11.0203 15.5941 11.2108L17.5925 13.2244C18.2767 13.9137 18.0336 14.7754 17.3495 14.9386ZM0.650516 14.9386L2.13587 15.2924C2.46895 15.374 2.73001 15.628 2.80203 15.9636L3.1171 17.2969C3.28814 18.0225 4.20636 18.2493 4.68347 17.6779L7.37511 14.5577C7.59117 14.3037 7.47414 13.9046 7.15006 13.823C5.5521 13.4316 4.12201 12.5314 3.07209 11.2561C3.03322 11.2062 2.98437 11.1651 2.92872 11.1355C2.87306 11.1058 2.81184 11.0883 2.74903 11.084C2.68622 11.0798 2.62322 11.0888 2.56411 11.1107C2.50501 11.1325 2.45111 11.1666 2.40593 11.2108L0.407458 13.2244C-0.276704 13.9137 -0.0336467 14.7754 0.650516 14.9386ZM9.02251 0C5.53868 0 2.72101 2.83898 2.72101 6.34915C2.72101 7.66433 3.1081 8.87067 3.77426 9.87747C4.2624 10.611 4.89736 11.2336 5.63839 11.7054C6.37943 12.1771 7.21016 12.4875 8.07728 12.6167C8.38335 12.6711 8.69843 12.6983 9.02251 12.6983C9.34658 12.6983 9.66166 12.6711 9.96773 12.6167C11.7592 12.3536 13.2985 11.3287 14.2708 9.87747C14.9618 8.83286 15.3285 7.60455 15.324 6.34915C15.324 2.83898 12.5063 0 9.02251 0ZM11.7772 6.14961L11.03 6.90244C10.904 7.02942 10.8319 7.27431 10.8769 7.45572L11.093 8.38995C11.264 9.12464 10.8769 9.41489 10.2288 9.02487L9.32858 8.48972C9.23716 8.44057 9.13513 8.41486 9.03151 8.41486C8.92789 8.41486 8.82586 8.44057 8.73444 8.48972L7.83422 9.02487C7.18607 9.40582 6.79898 9.12464 6.97002 8.38995L7.18607 7.45572C7.22208 7.28338 7.15906 7.02942 7.03303 6.90244L6.26785 6.14961C5.82675 5.70517 5.97078 5.26073 6.58293 5.16095L7.54615 4.99769C7.70819 4.97048 7.89724 4.82536 7.96926 4.68023L8.50038 3.60995C8.78845 3.02945 9.25656 3.02945 9.54463 3.60995L10.0758 4.68023C10.1478 4.82536 10.3368 4.97048 10.5079 4.99769L11.4711 5.16095C12.0742 5.26073 12.2183 5.70517 11.7772 6.14961Z" fill="#F5F5F5"/>
</svg>
